<?xml version="1.0" encoding="UTF-8" standalone="no"?>
<!DOCTYPE svg PUBLIC "-//W3C//DTD SVG 1.1//EN" "http://www.w3.org/Graphics/SVG/1.1/DTD/svg11.dtd">
<svg version="1.1" xmlns="http://www.w3.org/2000/svg" xmlns:xlink="http://www.w3.org/1999/xlink" preserveAspectRatio="xMidYMid meet" viewBox="118.95724387217946 18.633227895847558 1006.6431728289814 424.9293418313696" width="1002.64" height="423.83"><defs><path d="M600 243.03L595.36 245.91L600 247.78L595.36 250L600 252.03L595.36 255.03L601.61 256.13L595.36 260.78L595.36 271.28L656.75 257.83L656.75 248.78L651.84 247.45L656.75 245.36L651.84 244.53L656.75 242.11L651.84 241.11L656.75 237.95L600 243.03Z" id="f2MGTrFKB"></path><path d="M571.73 245.49C568.96 249.18 567.23 251.48 566.54 252.41C564.93 254.54 565.15 257.53 567.05 259.41C568.01 260.35 570.4 262.71 574.23 266.49L580.98 264.99C576.67 260.79 573.97 258.16 572.9 257.11C571.79 256.03 571.63 254.31 572.51 253.05C573.31 251.92 575.3 249.07 578.48 244.53L571.73 245.49Z" id="c80nCIP5rr"></path><path d="M465.12 216.21C463.28 216.21 462.14 216.21 461.68 216.21C460.87 216.21 460.17 215.66 459.98 214.88C459.64 213.55 458.97 210.85 458.63 209.51C458.44 208.72 458.73 207.9 459.38 207.42C459.78 207.12 460.78 206.39 462.37 205.21L465.12 216.21Z" id="c3pL77m0mY"></path><path d="M146.16 342.63C154.18 341.22 162.31 340.43 170.45 340.26C180.33 340.05 199.57 339.65 209.92 339.44C216.53 339.3 223.12 338.56 229.6 337.22C317.85 318.92 573.09 266 661.4 247.7C667.41 246.45 673.67 247.87 678.55 251.59C681.61 253.92 682.48 254.58 685.39 256.79C690.36 260.57 692.11 267.27 689.62 273C688.17 276.35 688.15 276.4 686.72 279.69C684 285.96 678.31 290.45 671.58 291.64C579.06 308.02 308.61 355.9 215.17 372.45C211.05 373.18 207.03 374.39 203.19 376.06C200.44 377.26 196.7 378.89 193.63 380.23C190.88 381.43 188.38 383.14 186.27 385.27C181.96 389.63 171.62 400.07 167.16 404.58C166.22 405.53 164.59 404.91 164.51 403.58C164.3 399.97 164.06 395.72 163.89 392.89C163.61 388.02 162.68 383.2 161.14 378.56C160.55 376.81 161.6 379.96 161.14 378.56C159.23 372.83 155.75 367.75 151.1 363.89C149.28 362.37 148.85 362.01 146.51 360.07C143.54 357.6 139.93 356.04 136.11 355.56C132.93 355.15 126.17 354.3 122.22 353.8C121.06 353.65 120.16 352.7 120.1 351.53C120.04 350.68 120.01 350.12 119.96 349.27C119.89 348.13 120.69 347.13 121.81 346.93C129.09 345.64 140.9 343.56 146.16 342.63Z" id="asu2ZIW8X"></path><path d="M838.9 220.58L861.56 246.58L860.06 235.91L846.9 219.24L838.9 220.58Z" id="bYXrTg51N"></path><path d="M830.75 148.57L850.5 116.07L851.23 126.32L839.9 147.82L830.75 148.57Z" id="agBhXE6I3"></path><path d="M905.26 183.16L905.26 175.34C939.98 172.02 961.69 169.95 970.37 169.13C971.02 169.06 971.59 169.55 971.64 170.2C971.74 171.55 971.94 174.12 972.03 175.4C972.1 176.27 971.46 177.03 970.59 177.11C961.88 177.91 940.1 179.93 905.26 183.16Z" id="d5oP4JrrQB"></path><path d="M471.75 221.9C469.92 222.65 468.78 223.11 468.32 223.3C467.7 223.56 466.99 223.24 466.76 222.6C465.89 220.07 464.4 215.78 463.7 213.78C462.82 211.24 462.37 208.56 462.37 205.87C462.37 204.22 462.37 201.13 462.37 198.93C462.37 198.19 462.9 197.55 463.63 197.42C464.1 197.33 465.28 197.12 467.17 196.77L471.75 221.9Z" id="goIeduPIr"></path><path d="M905.26 193.44C905.26 202.89 905.26 208.79 905.26 211.16C905.26 213.16 903.73 214.83 901.74 215.02C827.01 222.01 606.46 242.66 531.76 249.65C529.71 249.84 527.9 248.34 527.7 246.3C527.48 244.05 526.93 238.42 526.06 229.41L905.26 193.44Z" id="e3MevAaMy"></path><path d="M913.43 170.69L906.18 193.44C678.67 215.28 536.47 228.93 479.59 234.39C477.48 234.59 475.51 233.31 474.84 231.3C473.47 227.19 469.65 215.75 468.07 211C468.03 210.87 468.12 210.73 468.26 210.71C527.62 205.38 676.01 192.03 913.43 170.69Z" id="b2Lvxz45u2"></path><path d="M1120.13 127.42C1119.98 126.04 1118.76 125.02 1117.37 125.13C988.2 135.04 605.15 164.43 476.47 174.31C473.53 174.53 471.08 176.64 470.42 179.51C469.65 182.9 469.1 185.25 468.5 187.89C467.2 193.55 466.85 199.38 467.47 205.16C467.54 205.79 467.71 207.39 467.98 209.94C815.9 179.52 1033.35 160.51 1120.33 152.91C1121.72 152.79 1122.74 151.55 1122.59 150.17C1122.04 145.12 1120.67 132.47 1120.13 127.42Z" id="f3rOx3om3a"></path><path d="M651.94 241.24L599.08 247.81" id="a1DM1HeBP"></path><path d="M587.76 234.41L587.76 195.04L582.61 195.04L582.61 234.41L587.76 234.41Z" id="a5MtZ2lJO"></path><path d="M565.5 217.3L604.87 217.3L604.87 212.15L565.5 212.15L565.5 217.3Z" id="b22rLz4MbT"></path><path d="M652.94 244.53L599.51 252.1" id="ftJey7pat"></path><path d="M587.97 189.85L589.26 190.02L590.53 190.26L591.77 190.55L592.99 190.91L594.18 191.33L595.35 191.81L596.48 192.34L597.59 192.92L598.66 193.56L599.69 194.25L600.69 194.99L601.65 195.78L602.56 196.61L603.44 197.49L604.27 198.4L605.06 199.36L605.8 200.36L606.49 201.39L607.13 202.46L607.71 203.57L608.24 204.7L608.72 205.87L609.14 207.06L609.5 208.28L609.79 209.52L610.03 210.79L610.2 212.08L610.3 213.39L610.33 214.72L610.3 216.04L610.2 217.35L610.03 218.64L609.79 219.91L609.5 221.15L609.14 222.37L608.72 223.57L608.24 224.73L607.71 225.87L607.13 226.97L606.49 228.04L605.8 229.07L605.06 230.07L604.27 231.03L603.44 231.95L602.56 232.82L601.65 233.65L600.69 234.44L599.69 235.18L598.66 235.87L597.59 236.51L596.48 237.09L595.35 237.63L594.18 238.1L592.99 238.52L591.77 238.88L590.53 239.18L589.26 239.41L587.97 239.58L586.66 239.68L585.33 239.72L584.01 239.68L582.7 239.58L581.41 239.41L580.14 239.18L578.9 238.88L577.68 238.52L576.48 238.1L575.32 237.63L574.18 237.09L573.08 236.51L572.01 235.87L570.98 235.18L569.98 234.44L569.02 233.65L568.1 232.82L567.23 231.95L566.39 231.03L565.61 230.07L564.87 229.07L564.18 228.04L563.54 226.97L562.96 225.87L562.42 224.73L561.95 223.57L561.53 222.37L561.17 221.15L560.87 219.91L560.64 218.64L560.47 217.35L560.37 216.04L560.33 214.72L560.37 213.39L560.47 212.08L560.64 210.79L560.87 209.52L561.17 208.28L561.53 207.06L561.95 205.87L562.42 204.7L562.96 203.57L563.54 202.46L564.18 201.39L564.87 200.36L565.61 199.36L566.39 198.4L567.23 197.49L568.1 196.61L569.02 195.78L569.98 194.99L570.98 194.25L572.01 193.56L573.08 192.92L574.18 192.34L575.32 191.81L576.48 191.33L577.68 190.91L578.9 190.55L580.14 190.26L581.41 190.02L582.7 189.85L584.01 189.75L585.33 189.72L586.66 189.75L587.97 189.85ZM582.73 194.88L581.46 195.09L580.22 195.38L579.01 195.74L577.84 196.17L576.7 196.67L575.6 197.24L574.54 197.88L573.52 198.58L572.56 199.33L571.63 200.15L570.77 201.02L569.95 201.94L569.19 202.91L568.5 203.92L567.86 204.98L567.29 206.08L566.79 207.22L566.35 208.4L565.99 209.61L565.71 210.84L565.5 212.11L565.38 213.4L565.33 214.72L565.38 216.03L565.5 217.32L565.71 218.59L565.99 219.83L566.35 221.03L566.79 222.21L567.29 223.35L567.86 224.45L568.5 225.51L569.19 226.52L569.95 227.49L570.77 228.41L571.63 229.28L572.56 230.1L573.52 230.86L574.54 231.55L575.6 232.19L576.7 232.76L577.84 233.26L579.01 233.7L580.22 234.06L581.46 234.34L582.73 234.55L584.02 234.67L585.33 234.72L586.65 234.67L587.94 234.55L589.21 234.34L590.44 234.06L591.65 233.7L592.83 233.26L593.97 232.76L595.07 232.19L596.13 231.55L597.14 230.86L598.11 230.1L599.03 229.28L599.9 228.41L600.71 227.49L601.47 226.52L602.17 225.51L602.81 224.45L603.38 223.35L603.88 222.21L604.31 221.03L604.67 219.83L604.96 218.59L605.16 217.32L605.29 216.03L605.33 214.72L605.29 213.4L605.16 212.11L604.96 210.84L604.67 209.61L604.31 208.4L603.88 207.22L603.38 206.08L602.81 204.98L602.17 203.92L601.47 202.91L600.71 201.94L599.9 201.02L599.03 200.15L598.11 199.33L597.14 198.58L596.13 197.88L595.07 197.24L593.97 196.67L592.83 196.17L591.65 195.74L590.44 195.38L589.21 195.09L587.94 194.88L586.65 194.76L585.33 194.72L584.02 194.76L582.73 194.88Z" id="b68jn6DGNa"></path><path d="M652.94 246.96L600.8 256.13" id="a6WDcpR5mF"></path><path d="M844.16 97.97C845.81 101.93 846.84 106.12 847.22 110.39C849.83 139.47 857.35 223.36 860.02 253.21C860.15 254.62 861.4 255.64 862.81 255.49C864.6 255.3 867.52 254.99 869.34 254.79C870.68 254.65 871.65 253.46 871.52 252.12C868.64 222.35 860.46 137.64 857.64 108.41C857.31 105 856.48 101.65 855.17 98.47C848.62 82.57 830.13 37.65 823.37 21.25C822.85 19.98 821.39 19.39 820.13 19.94C818.7 20.57 816.71 21.44 815.28 22.07C814.01 22.63 813.42 24.1 813.96 25.38C820.49 41.1 837.93 82.99 844.16 97.97Z" id="bL5k48Hqg"></path><path d="M607.08 214.73L563.08 214.73" id="cx41mPXfO"></path><path d="M585.18 236.73L585.18 192.73" id="adTGPPkWf"></path><path d="M569.08 214.73C569.08 218.04 566.39 220.73 563.08 220.73C559.77 220.73 557.08 218.04 557.08 214.73C557.08 211.41 559.77 208.73 563.08 208.73C566.39 208.73 569.08 211.41 569.08 214.73Z" id="b8Tm7iQWV"></path><path d="M698.4 267.56C698.4 284.67 684.51 298.56 667.4 298.56C650.29 298.56 636.4 284.67 636.4 267.56C636.4 250.45 650.29 236.56 667.4 236.56C684.51 236.56 698.4 250.45 698.4 267.56Z" id="bFtGD8rcG"></path><path d="M819.9 264.81L819.9 272.31L514.9 272.31L514.9 264.81L819.9 264.81Z" id="aHPsCdIh"></path><path d="M663.9 119.06L671.4 119.06L671.4 424.06L663.9 424.06L663.9 119.06Z" id="a3g5t3EZX5"></path><path d="M772.58 159.39L777.88 164.69L562.21 380.36L556.91 375.06L772.58 159.39Z" id="a15VEEVDIv"></path><path d="M556.91 164.69L562.21 159.39L777.88 375.06L772.58 380.36L556.91 164.69Z" id="ad8mHp39P"></path><path d="M605.57 132.11L612.5 129.24L729.22 411.02L722.29 413.89L605.57 132.11Z" id="ebD3hhNNj"></path><path d="M722.29 129.24L729.22 132.11L612.5 413.89L605.57 411.02L722.29 129.24Z" id="ga4k2DRy2"></path><path d="M807.1 209.74L809.97 216.67L528.19 333.39L525.32 326.46L807.1 209.74Z" id="a34Rg2qCBK"></path><path d="M809.72 326.46L806.85 333.39L525.07 216.67L527.94 209.74L809.72 326.46Z" id="al7cbjNfN"></path><path d="M681.99 94.14L689.05 94.86L696.02 95.85L702.9 97.12L709.68 98.65L716.36 100.44L722.93 102.49L729.39 104.79L735.74 107.32L741.95 110.1L748.04 113.11L753.99 116.34L759.8 119.8L765.46 123.47L770.97 127.35L776.32 131.43L781.51 135.71L786.52 140.18L791.37 144.84L796.03 149.68L800.5 154.7L804.78 159.89L808.86 165.24L812.74 170.75L816.41 176.41L819.87 182.22L823.1 188.17L826.11 194.26L828.88 200.47L831.42 206.81L833.72 213.27L835.76 219.85L837.56 226.53L839.09 233.31L840.35 240.19L841.35 247.16L842.07 254.22L842.5 261.35L842.65 268.56L842.5 275.77L842.07 282.91L841.35 289.96L840.35 296.93L839.09 303.81L837.56 310.6L835.76 317.28L833.72 323.85L831.42 330.31L828.88 336.65L826.11 342.87L823.1 348.96L819.87 354.91L816.41 360.72L812.74 366.38L808.86 371.89L804.78 377.24L800.5 382.42L796.03 387.44L791.37 392.28L786.52 396.94L781.51 401.42L776.32 405.7L770.97 409.78L765.46 413.66L759.8 417.33L753.99 420.78L748.04 424.02L741.95 427.03L735.74 429.8L729.39 432.34L722.93 434.63L716.36 436.68L709.68 438.47L702.9 440L696.02 441.27L689.05 442.26L681.99 442.98L674.85 443.42L667.65 443.56L660.44 443.42L653.3 442.98L646.25 442.26L639.28 441.27L632.4 440L625.61 438.47L618.93 436.68L612.36 434.63L605.9 432.34L599.56 429.8L593.34 427.03L587.25 424.02L581.3 420.78L575.49 417.33L569.83 413.66L564.32 409.78L558.97 405.7L553.78 401.42L548.77 396.94L543.93 392.28L539.27 387.44L534.79 382.42L530.51 377.24L526.43 371.89L522.55 366.38L518.88 360.72L515.43 354.91L512.19 348.96L509.18 342.87L506.41 336.65L503.87 330.31L501.57 323.85L499.53 317.28L497.74 310.6L496.2 303.81L494.94 296.93L493.94 289.96L493.23 282.91L492.79 275.77L492.65 268.56L492.79 261.35L493.23 254.22L493.94 247.16L494.94 240.19L496.2 233.31L497.74 226.53L499.53 219.85L501.57 213.27L503.87 206.81L506.41 200.47L509.18 194.26L512.19 188.17L515.43 182.22L518.88 176.41L522.55 170.75L526.43 165.24L530.51 159.89L534.79 154.7L539.27 149.68L543.93 144.84L548.77 140.18L553.78 135.71L558.97 131.43L564.32 127.35L569.83 123.47L575.49 119.8L581.3 116.34L587.25 113.11L593.34 110.1L599.56 107.32L605.9 104.79L612.36 102.49L618.93 100.44L625.61 98.65L632.4 97.12L639.28 95.85L646.25 94.86L653.3 94.14L660.44 93.71L667.65 93.56L674.85 93.71L681.99 94.14ZM655.6 121.44L649.55 122.05L643.58 122.9L637.68 123.99L631.87 125.3L626.14 126.84L620.51 128.59L614.97 130.56L609.53 132.73L604.2 135.11L598.99 137.69L593.89 140.46L588.91 143.42L584.05 146.57L579.33 149.89L574.75 153.39L570.3 157.06L566 160.9L561.85 164.89L557.86 169.04L554.02 173.34L550.35 177.79L546.85 182.37L543.53 187.1L540.38 191.95L537.42 196.93L534.65 202.03L532.07 207.25L529.69 212.57L527.52 218.01L525.55 223.55L523.79 229.18L522.26 234.91L520.95 240.72L519.86 246.62L519.01 252.6L518.39 258.64L518.02 264.76L517.9 270.94L518.02 277.12L518.39 283.23L519.01 289.28L519.86 295.25L520.95 301.15L522.26 306.97L523.79 312.69L525.55 318.33L527.52 323.87L529.69 329.3L532.07 334.63L534.65 339.85L537.42 344.95L540.38 349.93L543.53 354.78L546.85 359.5L550.35 364.09L554.02 368.53L557.86 372.83L561.85 376.98L566 380.98L570.3 384.81L574.75 388.48L579.33 391.98L584.05 395.31L588.91 398.45L593.89 401.41L598.99 404.18L604.2 406.76L609.53 409.14L614.97 411.32L620.51 413.29L626.14 415.04L631.87 416.57L637.68 417.89L643.58 418.97L649.55 419.83L655.6 420.44L661.72 420.81L667.9 420.94L674.07 420.81L680.19 420.44L686.24 419.83L692.21 418.97L698.11 417.89L703.92 416.57L709.65 415.04L715.29 413.29L720.82 411.32L726.26 409.14L731.59 406.76L736.8 404.18L741.91 401.41L746.88 398.45L751.74 395.31L756.46 391.98L761.05 388.48L765.49 384.81L769.79 380.98L773.94 376.98L777.94 372.83L781.77 368.53L785.44 364.09L788.94 359.5L792.26 354.78L795.41 349.93L798.37 344.95L801.14 339.85L803.72 334.63L806.1 329.3L808.28 323.87L810.24 318.33L812 312.69L813.53 306.97L814.85 301.15L815.93 295.25L816.78 289.28L817.4 283.23L817.77 277.12L817.9 270.94L817.77 264.76L817.4 258.64L816.78 252.6L815.93 246.62L814.85 240.72L813.53 234.91L812 229.18L810.24 223.55L808.28 218.01L806.1 212.57L803.72 207.25L801.14 202.03L798.37 196.93L795.41 191.95L792.26 187.1L788.94 182.37L785.44 177.79L781.77 173.34L777.94 169.04L773.94 164.89L769.79 160.9L765.49 157.06L761.05 153.39L756.46 149.89L751.74 146.57L746.88 143.42L741.91 140.46L736.8 137.69L731.59 135.11L726.26 132.73L720.82 130.56L715.29 128.59L709.65 126.84L703.92 125.3L698.11 123.99L692.21 122.9L686.24 122.05L680.19 121.44L674.07 121.06L667.9 120.94L661.72 121.06L655.6 121.44Z" id="a2bYUTraPd"></path><path d="M697.65 267.56C697.65 284.12 684.2 297.56 667.65 297.56C651.09 297.56 637.65 284.12 637.65 267.56C637.65 251.01 651.09 237.56 667.65 237.56C684.2 237.56 697.65 251.01 697.65 267.56Z" id="ba6LKYwZu"></path><path d="M682.65 268.56C682.65 276.84 675.92 283.56 667.65 283.56C659.37 283.56 652.65 276.84 652.65 268.56C652.65 260.28 659.37 253.56 667.65 253.56C675.92 253.56 682.65 260.28 682.65 268.56Z" id="b9Je1IFuRr"></path></defs><g><g><use xlink:href="#f2MGTrFKB" opacity="1" fill="#4a3722" fill-opacity="1"></use><g><use xlink:href="#f2MGTrFKB" opacity="1" fill-opacity="0" stroke="#000000" stroke-width="2" stroke-opacity="1"></use></g></g><g><use xlink:href="#c80nCIP5rr" opacity="1" fill="#959595" fill-opacity="1"></use><g><use xlink:href="#c80nCIP5rr" opacity="1" fill-opacity="0" stroke="#000000" stroke-width="2" stroke-opacity="1"></use></g></g><g><use xlink:href="#c3pL77m0mY" opacity="1" fill="#95937c" fill-opacity="1"></use><g><use xlink:href="#c3pL77m0mY" opacity="1" fill-opacity="0" stroke="#000000" stroke-width="2" stroke-opacity="1"></use></g></g><g><use xlink:href="#asu2ZIW8X" opacity="1" fill="#44433a" fill-opacity="1"></use><g><use xlink:href="#asu2ZIW8X" opacity="1" fill-opacity="0" stroke="#000000" stroke-width="2" stroke-opacity="1"></use></g></g><g><use xlink:href="#bYXrTg51N" opacity="1" fill="#9e9e9e" fill-opacity="1"></use><g><use xlink:href="#bYXrTg51N" opacity="1" fill-opacity="0" stroke="#000000" stroke-width="2.2" stroke-opacity="1"></use></g></g><g><use xlink:href="#agBhXE6I3" opacity="1" fill="#9e9e9e" fill-opacity="1"></use><g><use xlink:href="#agBhXE6I3" opacity="1" fill-opacity="0" stroke="#050505" stroke-width="2.2" stroke-opacity="1"></use></g></g><g><use xlink:href="#d5oP4JrrQB" opacity="1" fill="#a2a2a2" fill-opacity="1"></use><g><use xlink:href="#d5oP4JrrQB" opacity="1" fill-opacity="0" stroke="#000000" stroke-width="2" stroke-opacity="1"></use></g></g><g><use xlink:href="#goIeduPIr" opacity="1" fill="#8d8d8d" fill-opacity="1"></use><g><use xlink:href="#goIeduPIr" opacity="1" fill-opacity="0" stroke="#000000" stroke-width="2" stroke-opacity="1"></use></g></g><g><use xlink:href="#e3MevAaMy" opacity="1" fill="#dbd6b2" fill-opacity="1"></use><g><use xlink:href="#e3MevAaMy" opacity="1" fill-opacity="0" stroke="#000000" stroke-width="2" stroke-opacity="1"></use></g></g><g><use xlink:href="#b2Lvxz45u2" opacity="1" fill="#505050" fill-opacity="1"></use><g><use xlink:href="#b2Lvxz45u2" opacity="1" fill-opacity="0" stroke="#000000" stroke-width="2" stroke-opacity="1"></use></g></g><g><use xlink:href="#f3rOx3om3a" opacity="1" fill="#909090" fill-opacity="1"></use><g><use xlink:href="#f3rOx3om3a" opacity="1" fill-opacity="0" stroke="#000000" stroke-width="2" stroke-opacity="1"></use></g></g><g><g><use xlink:href="#a1DM1HeBP" opacity="1" fill-opacity="0" stroke="#000000" stroke-width="2" stroke-opacity="1"></use></g></g><g><use xlink:href="#a5MtZ2lJO" opacity="1" fill="#7e7e7e" fill-opacity="1"></use><g><use xlink:href="#a5MtZ2lJO" opacity="1" fill-opacity="0" stroke="#000000" stroke-width="3" stroke-opacity="1"></use></g></g><g><use xlink:href="#b22rLz4MbT" opacity="1" fill="#7e7e7e" fill-opacity="1"></use><g><use xlink:href="#b22rLz4MbT" opacity="1" fill-opacity="0" stroke="#000000" stroke-width="3" stroke-opacity="1"></use></g></g><g><g><use xlink:href="#ftJey7pat" opacity="1" fill-opacity="0" stroke="#000000" stroke-width="2" stroke-opacity="1"></use></g></g><g><use xlink:href="#b68jn6DGNa" opacity="1" fill="#7e7e7e" fill-opacity="1"></use><g><use xlink:href="#b68jn6DGNa" opacity="1" fill-opacity="0" stroke="#000000" stroke-width="2" stroke-opacity="1"></use></g></g><g><g><use xlink:href="#a6WDcpR5mF" opacity="1" fill-opacity="0" stroke="#000000" stroke-width="2" stroke-opacity="1"></use></g></g><g><use xlink:href="#bL5k48Hqg" opacity="1" fill="#686868" fill-opacity="1"></use><g><use xlink:href="#bL5k48Hqg" opacity="1" fill-opacity="0" stroke="#000000" stroke-width="2.2" stroke-opacity="1"></use></g></g><g><g><use xlink:href="#cx41mPXfO" opacity="1" fill-opacity="0" stroke="#7e7e7e" stroke-width="2.2" stroke-opacity="1"></use></g></g><g><g><use xlink:href="#adTGPPkWf" opacity="1" fill-opacity="0" stroke="#7e7e7e" stroke-width="2.2" stroke-opacity="1"></use></g></g><g><use xlink:href="#b8Tm7iQWV" opacity="1" fill="#454545" fill-opacity="1"></use><g><use xlink:href="#b8Tm7iQWV" opacity="1" fill-opacity="0" stroke="#000000" stroke-width="2.2" stroke-opacity="1"></use></g></g><g><g><use xlink:href="#bFtGD8rcG" opacity="1" fill="#62442c" fill-opacity="1"></use><g><use xlink:href="#bFtGD8rcG" opacity="1" fill-opacity="0" stroke="#000000" stroke-width="2" stroke-opacity="1"></use></g></g><g><use xlink:href="#aHPsCdIh" opacity="1" fill="#62442c" fill-opacity="1"></use><g><use xlink:href="#aHPsCdIh" opacity="1" fill-opacity="0" stroke="#000000" stroke-width="2" stroke-opacity="1"></use></g></g><g><use xlink:href="#a3g5t3EZX5" opacity="1" fill="#62442c" fill-opacity="1"></use><g><use xlink:href="#a3g5t3EZX5" opacity="1" fill-opacity="0" stroke="#000000" stroke-width="2" stroke-opacity="1"></use></g></g><g><use xlink:href="#a15VEEVDIv" opacity="1" fill="#62442c" fill-opacity="1"></use><g><use xlink:href="#a15VEEVDIv" opacity="1" fill-opacity="0" stroke="#000000" stroke-width="2" stroke-opacity="1"></use></g></g><g><use xlink:href="#ad8mHp39P" opacity="1" fill="#62442c" fill-opacity="1"></use><g><use xlink:href="#ad8mHp39P" opacity="1" fill-opacity="0" stroke="#000000" stroke-width="2" stroke-opacity="1"></use></g></g><g><use xlink:href="#ebD3hhNNj" opacity="1" fill="#62442c" fill-opacity="1"></use><g><use xlink:href="#ebD3hhNNj" opacity="1" fill-opacity="0" stroke="#000000" stroke-width="2" stroke-opacity="1"></use></g></g><g><use xlink:href="#ga4k2DRy2" opacity="1" fill="#62442c" fill-opacity="1"></use><g><use xlink:href="#ga4k2DRy2" opacity="1" fill-opacity="0" stroke="#000000" stroke-width="2" stroke-opacity="1"></use></g></g><g><use xlink:href="#a34Rg2qCBK" opacity="1" fill="#62442c" fill-opacity="1"></use><g><use xlink:href="#a34Rg2qCBK" opacity="1" fill-opacity="0" stroke="#000000" stroke-width="2" stroke-opacity="1"></use></g></g><g><use xlink:href="#al7cbjNfN" opacity="1" fill="#62442c" fill-opacity="1"></use><g><use xlink:href="#al7cbjNfN" opacity="1" fill-opacity="0" stroke="#000000" stroke-width="2" stroke-opacity="1"></use></g></g><g><use xlink:href="#a2bYUTraPd" opacity="1" fill="#62442c" fill-opacity="1"></use><g><use xlink:href="#a2bYUTraPd" opacity="1" fill-opacity="0" stroke="#000000" stroke-width="2" stroke-opacity="1"></use></g></g><g><use xlink:href="#ba6LKYwZu" opacity="1" fill="#62442c" fill-opacity="1"></use></g></g><g><use xlink:href="#b9Je1IFuRr" opacity="1" fill="#686868" fill-opacity="1"></use><g><use xlink:href="#b9Je1IFuRr" opacity="1" fill-opacity="0" stroke="#000000" stroke-width="2.2" stroke-opacity="1"></use></g></g></g></svg>