<?xml version="1.0" encoding="UTF-8" standalone="no"?>
<!DOCTYPE svg PUBLIC "-//W3C//DTD SVG 1.1//EN" "http://www.w3.org/Graphics/SVG/1.1/DTD/svg11.dtd">
<svg version="1.1" xmlns="http://www.w3.org/2000/svg" xmlns:xlink="http://www.w3.org/1999/xlink" preserveAspectRatio="xMidYMid meet" viewBox="0 0 1300 250" width="1300" height="250"><defs><path d="M413.06 57.83L464.29 57.83L464.29 72.02L413.06 72.02L413.06 57.83Z" id="bQ6O6aHI1"></path><path d="M425.64 112.48C421.28 119.37 418.56 123.68 417.47 125.4C416.42 127.06 415.5 128.8 414.74 130.61C414.45 131.28 414.76 130.56 414.47 131.23C413.72 133.01 413.58 134.99 414.09 136.85C414.22 137.31 413.94 136.28 414.09 136.85C414.51 138.35 415.29 139.73 416.37 140.86C416.94 141.45 417.63 142.16 418.36 142.91C418.56 143.13 418.33 143.47 418.06 143.37C416.89 142.92 416.28 142.69 415.54 142.41C413.45 141.61 411.86 139.88 411.23 137.74C411.01 136.98 411.43 138.42 411.23 137.74C410.52 135.3 410.64 132.7 411.57 130.33C411.87 129.58 411.63 130.18 412.01 129.23C412.7 127.46 413.6 125.76 414.67 124.19C415.51 122.94 416.6 121.34 417.49 120.03C418.36 118.75 418.53 117.11 417.94 115.68C417.74 115.21 417.25 114.03 416.47 112.14L425.64 112.48Z" id="g5xvlwfn9"></path><path d="M453.72 103.87L533.37 103.87C530.42 113.71 528.57 119.86 527.83 122.32C527.16 124.55 525.46 126.3 523.25 127.04C509.61 131.55 473.23 143.61 459.84 148.04C456.91 149.01 453.69 148.19 451.57 145.94C450.69 145 450.46 144.76 449.32 143.54C447.97 142.11 447.44 140.1 447.88 138.19C448.66 134.87 450.61 126.56 453.72 113.27L453.72 103.87Z" id="c4zSKgFTA5"></path><path d="M458.13 65.8L492.01 65.8L492.01 97.42L458.13 97.42L458.13 65.8Z" id="bFvhkN4v1"></path><path d="M411.03 113.57C405.33 118.17 401.77 121.04 400.35 122.19C398.09 124.01 396.52 126.54 395.88 129.37C395.61 130.57 395.58 130.73 395.25 132.16C394.78 134.27 394.96 136.48 395.79 138.48C396.19 139.47 396.29 139.71 396.73 140.79C397.43 142.49 398.71 143.89 400.35 144.73C402.3 145.74 405.35 147.32 407.24 148.3C409.13 149.27 411.22 149.8 413.34 149.83C416.45 149.89 422.64 149.99 425.78 150.04C427.82 150.07 429.84 149.68 431.71 148.88C433.39 148.17 435.76 147.16 437.48 146.43C439.22 145.69 440.82 144.64 442.18 143.33C442.89 142.64 442.81 142.73 443.48 142.08C444.94 140.68 445.82 138.79 445.97 136.78C446.04 135.91 446.02 136.15 446.09 135.21C446.22 133.36 446.09 131.49 445.7 129.67C445.33 127.99 444.92 126.12 444.58 124.55C444.12 122.43 442.92 120.55 441.21 119.23C440.25 118.49 437.85 116.65 434.01 113.7L453.72 113.27L449.15 135.76C449.02 136.42 448.93 136.83 448.9 136.99C448.32 139.84 446.83 142.41 444.65 144.33C443.96 144.94 444.32 144.63 443.4 145.44C441.94 146.73 440.28 147.77 438.48 148.51C436.62 149.29 434.09 150.35 432.31 151.09C430.25 151.94 428.05 152.36 425.82 152.31C422.52 152.23 416.54 152.1 413.37 152.03C410.69 151.97 408.07 151.26 405.73 149.96C403.81 148.9 401.79 147.78 399.92 146.74C397.48 145.39 395.6 143.24 394.58 140.64C394.18 139.62 394.63 140.77 394.26 139.8C393.15 136.97 392.58 133.95 392.58 130.91C392.58 128.69 392.58 123.15 392.58 114.29L411.03 113.57Z" id="fFGSrfikD"></path><path d="M460.32 69L460.32 79L459.16 89.41L465.83 89.41L464.32 79L464.32 69L522.18 69L522.18 54.62C488.37 54.62 467.24 54.62 458.79 54.62C458.11 54.62 457.56 55.18 457.56 55.86C457.56 58.49 457.56 65.13 457.56 67.76C457.56 68.44 458.11 69 458.79 69C459 69 459.51 69 460.32 69Z" id="b4r6nGsZuI"></path><path d="M538.43 74.5L538.43 51.67C531.91 51.67 527.84 51.67 526.21 51.67C525.14 51.67 524.12 52.07 523.33 52.78C522.93 53.15 522.81 53.25 522.38 53.65C521.69 54.27 521.31 55.15 521.31 56.07C521.31 58.01 521.31 60.86 521.31 62.42C521.31 64.28 519.8 65.78 517.95 65.79C510.87 65.79 491.53 65.79 484.09 65.8C483.24 65.8 482.56 66.48 482.56 67.33C482.56 68.28 482.56 70.67 482.56 74.5L538.43 74.5Z" id="a5UCI6lhXE"></path><path d="M475.58 109.25L470.33 144.08L465.5 145.67L471.09 109.75L475.58 109.25Z" id="c3L7xAXdjf"></path><path d="M1003.35 55.16C1038.29 55.16 1060.12 55.16 1068.86 55.16C1069.77 55.16 1070.51 55.9 1070.51 56.81C1070.51 59.21 1070.51 65.15 1070.51 67.64C1070.51 68.29 1069.99 68.82 1069.34 68.82C1060.54 68.82 1038.54 68.82 1003.35 68.82L1003.35 55.16Z" id="c1r5O6UHEV"></path><path d="M504.65 132.77L508.32 105.69L503.99 106.19C501.64 121.19 500.18 130.57 499.59 134.32C499.58 134.37 499.64 134.42 499.69 134.4C500.35 134.18 502.01 133.64 504.65 132.77Z" id="a2bJrCcgVH"></path><path d="M416.63 72.96C416.63 67.99 416.63 64.88 416.63 63.64C416.63 62.08 417.9 60.81 419.46 60.81C429.21 60.81 456.31 60.81 466.23 60.81C467.18 60.81 467.84 59.85 467.5 58.97C467.03 57.77 466.45 56.25 466.01 55.11C465.51 53.81 464.26 52.96 462.88 52.96C452.39 52.96 423.31 52.96 412.84 52.96C411.31 52.96 409.81 53.48 408.61 54.43C407.68 55.16 406.46 56.12 405.46 56.91C404.52 57.65 403.97 58.78 403.97 59.99C403.97 61.72 403.97 66.04 403.97 72.96L416.63 72.96Z" id="aPzesvzPM"></path><path d="M674.33 54.46C674.33 48.89 674.33 45.41 674.33 44.01C674.33 42.03 673.7 40.1 672.53 38.5C671.79 37.49 671.59 37.22 670.9 36.28C669.67 34.61 667.49 33.93 665.53 34.61C664.75 34.88 666.28 34.35 665.64 34.57C663.1 35.46 661.02 37.33 659.86 39.77C659.5 40.53 658.6 42.42 657.17 45.46L657.17 54.46L674.33 54.46Z" id="c8N44ZbXh"></path><path d="M846.91 99.56C842.37 104.14 839.52 107 838.39 108.15C837.89 108.65 837.07 108.64 836.59 108.13C836.01 107.53 835.04 106.51 834.44 105.87C834.05 105.47 834.09 104.82 834.52 104.47C835.86 103.37 839.2 100.63 844.54 96.25L846.91 99.56Z" id="aVZYQ6xPC"></path><path d="M538.43 70.14L558.73 70.14L558.73 48.97C551.19 48.97 546.48 48.97 544.59 48.97C542.95 48.97 541.35 49.5 540.04 50.48C539.82 50.64 539.29 51.04 538.43 51.67L538.43 70.14Z" id="b221moLPnW"></path><path d="M145.78 207.41C142.81 213.14 140.95 216.72 140.21 218.15C139.89 218.78 139.11 219.02 138.49 218.67C137.76 218.27 136.53 217.59 135.76 217.16C135.27 216.89 135.12 216.27 135.42 215.8C136.37 214.36 138.73 210.74 142.52 204.96L145.78 207.41Z" id="a6CaQAmbr"></path><path d="M682.45 49.67L682.45 44.41L680.95 44.41L680.95 49.92L682.45 49.67Z" id="f1pCDMxLEQ"></path><path d="M854.5 85.72C854.5 90.72 854.5 93.85 854.5 95.1C854.5 96.13 854.13 97.13 853.46 97.91C853.09 98.34 852.9 98.57 852.5 99.04C851.95 99.69 851.14 100.06 850.29 100.06C849.31 100.06 847.71 100.06 846.73 100.06C845.88 100.06 845.09 99.68 844.56 99.03C844.18 98.57 843.72 98 843.3 97.49C842.88 96.98 842.65 96.33 842.65 95.67C842.65 94.35 842.65 91.03 842.65 85.72L854.5 85.72Z" id="aSVQUzS3D"></path><path d="M147.11 194.01C148.61 198.78 149.55 201.76 149.92 202.95C150.23 203.93 150.18 205 149.78 205.95C149.56 206.47 149.44 206.74 149.2 207.31C148.87 208.1 148.21 208.69 147.4 208.95C146.47 209.24 144.94 209.72 144 210.02C143.2 210.27 142.32 210.15 141.62 209.69C141.12 209.36 140.51 208.96 139.96 208.59C139.41 208.23 139 207.69 138.8 207.05C138.4 205.79 137.4 202.62 135.81 197.56L147.11 194.01Z" id="a27FrwDyCk"></path><path d="M96.21 220.5C94.42 221.53 93.29 222.17 92.84 222.43C92.02 222.9 91.03 222.97 90.15 222.63C89.66 222.44 89.35 222.31 88.8 222.1C88.11 221.83 87.57 221.27 87.33 220.57C85.44 215.19 82.41 206.56 81.08 202.78C78.95 196.73 77.6 190.44 77.06 184.05C76.54 177.91 75.95 170.86 75.46 165.16C74.8 157.29 73.51 149.49 71.62 141.82C70.2 136.09 66.97 122.99 65.1 115.4C64.74 113.97 64.94 112.45 65.65 111.16C65.8 110.89 65.6 111.26 65.86 110.78C66.18 110.2 66.79 109.84 67.45 109.84C67.82 109.84 68.74 109.84 70.21 109.84L96.21 220.5Z" id="i3GakmbwqW"></path><path d="M738.85 45.58C705.48 45.76 684.63 45.88 676.28 45.92C675.94 45.92 675.64 45.66 675.61 45.31C675.54 44.48 675.37 42.53 675.3 41.68C675.27 41.4 675.49 41.15 675.77 41.14C677.94 41.01 683.86 40.67 686.01 40.55C686.36 40.53 686.68 40.76 686.77 41.09C686.92 41.63 687.23 42.77 687.38 43.34C687.45 43.6 687.69 43.79 687.96 43.78C694.78 43.73 711.83 43.6 739.11 43.4L738.85 45.58Z" id="aa8cVBCFi3"></path><path d="M295.44 101.26L324.68 98.77C330.62 97.35 334.34 96.47 335.82 96.11C350.64 92.59 365.12 87.77 379.09 81.72C385.3 79.03 396.29 74.28 405.83 70.14C408.67 68.92 411.73 68.28 414.83 68.28C423.64 68.28 448.02 68.28 457.5 68.28C458.28 68.28 458.91 68.91 458.91 69.7C458.91 74.86 458.91 89.41 458.91 94.69C458.91 95.14 459.27 95.5 459.72 95.5C460.99 95.5 463.82 95.5 465.04 95.5C465.6 95.5 466.05 95.05 466.05 94.49C466.05 91.29 466.05 82.55 466.05 79.31C466.05 78.86 466.42 78.5 466.86 78.5C469.99 78.5 477.23 78.5 480.02 78.5C481.39 78.5 482.5 77.39 482.5 76.03C482.5 75.57 482.5 75.55 482.5 74.81C482.5 74.23 482.97 73.76 483.55 73.76C492.8 73.76 517.96 73.76 526.83 73.76C528.78 73.76 530.71 73.41 532.53 72.71C538.5 70.43 553.23 64.81 559.09 62.57C561.27 61.74 563.57 61.31 565.9 61.31C625.35 61.31 774 61.31 1011.83 61.31C1011.83 69.68 1011.83 74.91 1011.83 77C1011.83 77.83 1011.16 78.5 1010.33 78.5C1005.29 78.5 991.24 78.5 986.09 78.5C985.55 78.5 985.11 78.94 985.11 79.48C985.11 81.95 985.11 88.41 985.11 90.89C985.11 91.42 984.69 91.84 984.17 91.85C912.68 93.03 716.99 96.27 649.95 97.38C634.48 97.64 619.04 99 603.76 101.45C595.48 102.78 588.28 103.94 578.67 105.48C567.87 107.22 556.87 107.39 546.01 105.98C543.17 105.61 549.29 106.4 546.01 105.98C536.56 104.75 526.99 104.72 517.53 105.86C509.03 106.9 487.78 109.48 453.78 113.6C428.09 113.6 412.04 113.6 405.61 113.6C396.33 113.6 387.07 114.6 378 116.58C374.5 117.35 377.57 116.68 374.05 117.44C365.04 119.41 356.24 122.26 347.78 125.93C344.63 127.3 342.56 128.2 338.08 130.15C334.08 131.89 330.41 134.32 327.26 137.34C326.48 138.08 327.66 136.95 326.57 137.99C324.49 139.99 323.09 142.59 322.59 145.43C322.43 146.35 322.59 145.41 322.4 146.5C322 148.8 320.92 150.93 319.31 152.62C318.85 153.09 319.83 152.07 319.34 152.58C317.84 154.15 315.86 155.18 313.71 155.5C302.4 157.18 298.92 157.69 294.39 158.37C269.64 162.05 245.3 168.11 221.71 176.46C195.7 185.67 128.36 209.51 96.15 220.91C93.66 221.79 90.91 220.51 89.99 218.03C88.42 213.82 86.84 209.59 85.64 206.36C83.33 200.15 81.91 193.65 81.44 187.04C80.98 180.63 80.96 180.34 80.67 176.18C79.66 162.09 77.32 148.13 73.68 134.49C72.38 129.59 70.46 122.41 68.29 114.26C67.71 112.08 69.3 109.92 71.56 109.83C101.41 108.69 176.03 105.83 295.44 101.26Z" id="cNdZa4QG5"></path><path d="M751.12 56.04C751.12 52.82 751.12 50.81 751.12 50.01C751.12 48.71 750.69 47.45 749.9 46.42C749.18 45.47 748.04 43.98 747.28 42.97C746.65 42.15 745.68 41.67 744.65 41.67C743.67 41.67 742.03 41.67 740.97 41.67C740.21 41.67 739.49 41.99 738.98 42.54C738.27 43.3 737.47 44.16 736.89 44.79C735.97 45.78 734.69 46.37 733.33 46.43C725.47 46.75 705.8 47.55 674.33 48.82L674.33 54.46L751.12 56.04Z" id="b8VOFii0c"></path><path d="M1044.9 89.54C1109.9 87.78 1150.52 86.68 1166.77 86.24C1194.08 85.51 1221.28 82.43 1248.07 77.04C1253.24 76 1260.37 74.56 1273.51 71.92C1273.56 71.91 1273.55 71.84 1273.5 71.84C1243.02 72.04 1166.82 72.53 1044.9 73.32L1044.9 89.54Z" id="dd4RWyR98"></path><path d="M1040.27 85.49L1012.65 85.49L1012.65 76.44L1040.27 76.44L1040.27 85.49Z" id="e1tst19Sqi"></path><path d="M1045.65 84.67L1202.11 80.69L1235.88 76.85L1267.94 72.49L1233.48 79.3C1222.3 81.2 1212.11 82.61 1202.93 83.56C1185.1 85.39 1171.05 85.64 1160.77 85.9C1145.66 86.28 1107.29 87.25 1045.65 88.79L1045.65 84.67Z" id="b4T52TRhvU"></path><path d="M1040.27 107C1040.27 107.33 1040.53 107.59 1040.86 107.59C1041.67 107.59 1043.22 107.59 1043.96 107.59C1044.48 107.59 1044.9 107.17 1044.9 106.65C1044.9 103.06 1044.9 95.25 1044.9 92.16C1044.9 89.99 1045.95 87.95 1047.71 86.68C1049.2 85.61 1052.36 83.34 1054.23 82C1054.68 81.67 1054.68 80.99 1054.22 80.67C1052.98 79.79 1049.87 77.59 1044.9 74.08C1044.9 71.92 1044.9 70.58 1044.9 70.04C1044.9 69.74 1044.67 69.51 1044.37 69.51C1043.55 69.51 1041.62 69.51 1040.8 69.51C1040.51 69.51 1040.27 69.74 1040.27 70.04C1040.27 77.55 1040.27 99.5 1040.27 107Z" id="a1gENo8wXI"></path><path d="M1028.97 86.33C1027.19 89.55 1026.08 91.55 1025.64 92.36C1025.54 92.54 1025.67 92.77 1025.88 92.77C1026.3 92.77 1027.14 92.77 1027.58 92.77C1027.83 92.77 1028.06 92.62 1028.18 92.4C1028.57 91.59 1029.56 89.57 1031.15 86.33L1028.97 86.33Z" id="bghtWjKQX"></path><path d="M1011.83 61.44C1011.83 57.94 1011.83 55.75 1011.83 54.88C1011.83 53.69 1010.88 52.72 1009.69 52.7C960.52 51.59 816.04 48.35 767.1 47.25C765.02 47.2 763.02 48.08 761.65 49.64C760.61 50.82 760.65 50.77 759.86 51.67C757.71 54.11 754.62 55.49 751.37 55.46C732.53 55.27 678.52 54.73 659.03 54.53C657.99 54.52 657.15 53.67 657.15 52.62C657.15 51.68 657.15 49.3 657.15 45.51C607.89 44.92 577.11 44.55 564.8 44.41C563.26 44.39 561.8 45.04 560.8 46.2C560.48 46.57 559.67 47.49 558.38 48.97L558.38 62.59L562.38 61.44L1011.83 61.44Z" id="aDXM8WHxm"></path><path d="M1002.89 78.43C1007.2 78.43 1010.69 74.94 1010.69 70.63C1010.69 69.92 1010.69 70.59 1010.69 68.63C1010.69 67.78 1011.37 67.09 1012.22 67.09C1013.54 67.09 1013.99 67.09 1014.81 67.09C1017.04 67.09 1018.85 65.28 1018.85 63.05C1018.85 61.14 1018.85 57.03 1018.85 54.51C1018.85 53.95 1019.3 53.5 1019.86 53.5C1021.4 53.5 1025.18 53.5 1026.76 53.5C1027.2 53.5 1027.57 53.86 1027.57 54.31C1027.57 56.86 1027.57 61.63 1027.57 63.66C1027.57 65.56 1029.1 67.09 1031 67.09C1031.91 67.09 1031.38 67.09 1032.33 67.09C1034.12 67.09 1035.57 65.65 1035.57 63.86C1035.57 61.79 1035.57 57.35 1035.57 54.91C1035.57 54.13 1036.2 53.5 1036.98 53.5C1038.58 53.5 1041.98 53.5 1043.58 53.5C1044.36 53.5 1044.99 54.13 1044.99 54.91C1044.99 58.83 1044.99 69.56 1044.99 73.58C1044.99 74.1 1044.57 74.52 1044.06 74.52C1043.37 74.52 1042.07 74.52 1041.33 74.52C1040.94 74.52 1040.63 74.84 1040.63 75.23C1040.63 77.64 1040.63 83.69 1040.63 85.98C1040.63 86.63 1040.01 87.11 1039.37 86.94C1038.61 86.74 1038.1 86.61 1037.47 86.44C1036.21 86.11 1034.9 86.03 1033.62 86.22C1024.97 87.49 1002.12 90.85 993.75 92.08C991.51 92.41 989.24 92.57 986.97 92.57C986.01 92.57 984.27 92.57 982.74 92.57C982.42 92.57 982.15 92.31 982.15 91.99C982.15 89.27 982.15 83.44 982.15 81.15C982.15 79.65 983.38 78.43 984.88 78.43C990.04 78.43 998.74 78.43 1002.89 78.43Z" id="a1dLlJvdu"></path><path d="M470.04 95.92C470.04 100.06 466.68 103.42 462.54 103.42C458.4 103.42 455.04 100.06 455.04 95.92C455.04 91.78 458.4 88.42 462.54 88.42C466.68 88.42 470.04 91.78 470.04 95.92Z" id="a2WDEm7oar"></path><path d="M468.75 69.01C469.12 68.68 469.6 68.49 470.09 68.49C472.38 68.49 478.4 68.49 480.67 68.49C481.21 68.49 481.73 68.7 482.12 69.08C482.59 69.53 483.37 70.27 483.83 70.72C484.25 71.13 484.49 71.69 484.49 72.28C484.49 73 484.49 74.32 484.49 75.06C484.49 75.61 484.28 76.13 483.91 76.52C483.43 77.01 482.58 77.88 482.11 78.38C481.73 78.77 481.2 78.99 480.66 78.99C478.39 78.99 472.51 78.99 470.26 78.99C469.66 78.99 469.08 78.76 468.65 78.34C468.15 77.86 467.25 76.98 466.73 76.48C466.35 76.11 466.14 75.61 466.14 75.09C466.14 74.34 466.14 72.83 466.14 72.06C466.14 71.61 466.33 71.18 466.67 70.88C467.2 70.4 468.23 69.48 468.75 69.01Z" id="g7aXfkbHM"></path><path d="M469.6 70.52L469.6 76.96" id="ac1c1NdHE"></path><path d="M471.96 70.52L471.96 76.96" id="c5lV4PPHZd"></path><path d="M474.13 70.52L474.13 76.96" id="i1tIlbdd3P"></path><path d="M476.37 70.52L476.37 76.96" id="aXmK7jk81"></path><path d="M478.6 70.52L478.6 76.96" id="a18dY3qQLK"></path><path d="M480.9 70.52L480.9 76.96" id="f2ZnHN4qNY"></path><path d="M1043.58 39.92C1044.36 39.92 1044.99 40.55 1044.99 41.33C1044.99 43.01 1044.99 47.21 1044.99 53.93L1035.8 53.93C1035.8 52.63 1035.8 51.81 1035.8 51.49C1035.8 50.15 1034.72 49.06 1033.38 49.06C1032.23 49.06 1031.71 49.06 1030.69 49.06C1029.01 49.06 1027.66 50.42 1027.66 52.09C1027.66 52.4 1027.66 53.15 1027.66 54.36L1018.82 54.36C1018.82 47.2 1018.82 42.72 1018.82 40.93C1018.82 40.37 1019.27 39.92 1019.83 39.92C1024.86 39.92 1038.63 39.92 1043.58 39.92Z" id="a1rDhVyFVR"></path><path d="" id="c14eNKvkKC"></path></defs><g><g><g><use xlink:href="#bQ6O6aHI1" opacity="1" fill="#414141" fill-opacity="1"></use></g><g><use xlink:href="#g5xvlwfn9" opacity="1" fill="#7e7e7e" fill-opacity="1"></use><g><use xlink:href="#g5xvlwfn9" opacity="1" fill-opacity="0" stroke="#000000" stroke-width="1" stroke-opacity="1"></use></g></g><g><use xlink:href="#c4zSKgFTA5" opacity="1" fill="#7a7a7a" fill-opacity="1"></use><g><use xlink:href="#c4zSKgFTA5" opacity="1" fill-opacity="0" stroke="#0c0c0c" stroke-width="1" stroke-opacity="1"></use></g></g><g><use xlink:href="#bFvhkN4v1" opacity="1" fill="#603719" fill-opacity="1"></use></g><g><use xlink:href="#fFGSrfikD" opacity="1" fill="#565656" fill-opacity="1"></use><g><use xlink:href="#fFGSrfikD" opacity="1" fill-opacity="0" stroke="#000000" stroke-width="1" stroke-opacity="1"></use></g></g><g><use xlink:href="#b4r6nGsZuI" opacity="1" fill="#c8c8c8" fill-opacity="1"></use><g><use xlink:href="#b4r6nGsZuI" opacity="1" fill-opacity="0" stroke="#000000" stroke-width="1" stroke-opacity="1"></use></g></g><g><use xlink:href="#a5UCI6lhXE" opacity="1" fill="#808080" fill-opacity="1"></use><g><use xlink:href="#a5UCI6lhXE" opacity="1" fill-opacity="0" stroke="#000000" stroke-width="1" stroke-opacity="1"></use></g></g><g><use xlink:href="#c3L7xAXdjf" opacity="1" fill="#363636" fill-opacity="1"></use></g><g><use xlink:href="#c1r5O6UHEV" opacity="1" fill="#878787" fill-opacity="1"></use><g><use xlink:href="#c1r5O6UHEV" opacity="1" fill-opacity="0" stroke="#0c0c0c" stroke-width="1" stroke-opacity="1"></use></g></g><g><use xlink:href="#a2bJrCcgVH" opacity="1" fill="#363636" fill-opacity="1"></use></g><g><use xlink:href="#aPzesvzPM" opacity="1" fill="#868686" fill-opacity="1"></use><g><use xlink:href="#aPzesvzPM" opacity="1" fill-opacity="0" stroke="#000000" stroke-width="1" stroke-opacity="1"></use></g></g><g><use xlink:href="#c8N44ZbXh" opacity="1" fill="#969696" fill-opacity="1"></use><g><use xlink:href="#c8N44ZbXh" opacity="1" fill-opacity="0" stroke="#080707" stroke-width="1" stroke-opacity="1"></use></g></g><g><use xlink:href="#aVZYQ6xPC" opacity="1" fill="#aaaaaa" fill-opacity="1"></use><g><use xlink:href="#aVZYQ6xPC" opacity="1" fill-opacity="0" stroke="#080707" stroke-width="1" stroke-opacity="1"></use></g></g><g><use xlink:href="#b221moLPnW" opacity="1" fill="#605e5e" fill-opacity="1"></use><g><use xlink:href="#b221moLPnW" opacity="1" fill-opacity="0" stroke="#0c0c0c" stroke-width="1" stroke-opacity="1"></use></g></g><g><use xlink:href="#a6CaQAmbr" opacity="1" fill="#aaaaaa" fill-opacity="1"></use><g><use xlink:href="#a6CaQAmbr" opacity="1" fill-opacity="0" stroke="#080707" stroke-width="1" stroke-opacity="1"></use></g></g><g><use xlink:href="#f1pCDMxLEQ" opacity="1" fill="#626262" fill-opacity="1"></use><g><use xlink:href="#f1pCDMxLEQ" opacity="1" fill-opacity="0" stroke="#080707" stroke-width="1" stroke-opacity="1"></use></g></g><g><use xlink:href="#aSVQUzS3D" opacity="1" fill="#787878" fill-opacity="1"></use><g><use xlink:href="#aSVQUzS3D" opacity="1" fill-opacity="0" stroke="#080707" stroke-width="1" stroke-opacity="1"></use></g></g><g><use xlink:href="#a27FrwDyCk" opacity="1" fill="#787878" fill-opacity="1"></use><g><use xlink:href="#a27FrwDyCk" opacity="1" fill-opacity="0" stroke="#080707" stroke-width="1" stroke-opacity="1"></use></g></g><g><use xlink:href="#i3GakmbwqW" opacity="1" fill="#ceb563" fill-opacity="1"></use><g><use xlink:href="#i3GakmbwqW" opacity="1" fill-opacity="0" stroke="#080707" stroke-width="1" stroke-opacity="1"></use></g></g><g><use xlink:href="#aa8cVBCFi3" opacity="1" fill="#9b9b9b" fill-opacity="1"></use><g><use xlink:href="#aa8cVBCFi3" opacity="1" fill-opacity="0" stroke="#080707" stroke-width="1" stroke-opacity="1"></use></g></g><g><use xlink:href="#cNdZa4QG5" opacity="1" fill="#ab602a" fill-opacity="1"></use><g><use xlink:href="#cNdZa4QG5" opacity="1" fill-opacity="0" stroke="#000000" stroke-width="1" stroke-opacity="1"></use></g></g><g><use xlink:href="#b8VOFii0c" opacity="1" fill="#575757" fill-opacity="1"></use><g><use xlink:href="#b8VOFii0c" opacity="1" fill-opacity="0" stroke="#080707" stroke-width="1" stroke-opacity="1"></use></g></g><g><g><use xlink:href="#dd4RWyR98" opacity="1" fill="#656565" fill-opacity="1"></use><g><use xlink:href="#dd4RWyR98" opacity="1" fill-opacity="0" stroke="#080707" stroke-width="1" stroke-opacity="1"></use></g></g><g><use xlink:href="#e1tst19Sqi" opacity="1" fill="#956543" fill-opacity="1"></use><g><use xlink:href="#e1tst19Sqi" opacity="1" fill-opacity="0" stroke="#080707" stroke-width="1" stroke-opacity="1"></use></g></g><g><use xlink:href="#b4T52TRhvU" opacity="1" fill="#929292" fill-opacity="1"></use></g><g><use xlink:href="#a1gENo8wXI" opacity="1" fill="#ceb563" fill-opacity="1"></use><g><use xlink:href="#a1gENo8wXI" opacity="1" fill-opacity="0" stroke="#080707" stroke-width="1" stroke-opacity="1"></use></g></g></g><g><use xlink:href="#bghtWjKQX" opacity="1" fill="#808080" fill-opacity="1"></use><g><use xlink:href="#bghtWjKQX" opacity="1" fill-opacity="0" stroke="#080707" stroke-width="1" stroke-opacity="1"></use></g></g><g><use xlink:href="#aDXM8WHxm" opacity="1" fill="#ab602a" fill-opacity="1"></use><g><use xlink:href="#aDXM8WHxm" opacity="1" fill-opacity="0" stroke="#000000" stroke-width="1" stroke-opacity="1"></use></g></g><g><use xlink:href="#a1dLlJvdu" opacity="1" fill="#393939" fill-opacity="1"></use><g><use xlink:href="#a1dLlJvdu" opacity="1" fill-opacity="0" stroke="#000000" stroke-width="1" stroke-opacity="1"></use></g></g><g><use xlink:href="#a2WDEm7oar" opacity="1" fill="#909090" fill-opacity="1"></use><g><use xlink:href="#a2WDEm7oar" opacity="1" fill-opacity="0" stroke="#000000" stroke-width="1" stroke-opacity="1"></use></g></g><g><use xlink:href="#g7aXfkbHM" opacity="1" fill="#4a4a4a" fill-opacity="1"></use><g><use xlink:href="#g7aXfkbHM" opacity="1" fill-opacity="0" stroke="#000000" stroke-width="1" stroke-opacity="1"></use></g></g><g><g><use xlink:href="#ac1c1NdHE" opacity="1" fill-opacity="0" stroke="#000000" stroke-width="1" stroke-opacity="0.4"></use></g></g><g><g><use xlink:href="#c5lV4PPHZd" opacity="1" fill-opacity="0" stroke="#000000" stroke-width="1" stroke-opacity="0.4"></use></g></g><g><g><use xlink:href="#i1tIlbdd3P" opacity="1" fill-opacity="0" stroke="#000000" stroke-width="1" stroke-opacity="0.4"></use></g></g><g><g><use xlink:href="#aXmK7jk81" opacity="1" fill-opacity="0" stroke="#000000" stroke-width="1" stroke-opacity="0.4"></use></g></g><g><g><use xlink:href="#a18dY3qQLK" opacity="1" fill-opacity="0" stroke="#000000" stroke-width="1" stroke-opacity="0.4"></use></g></g><g><g><use xlink:href="#f2ZnHN4qNY" opacity="1" fill-opacity="0" stroke="#000000" stroke-width="1" stroke-opacity="0.4"></use></g></g><g><use xlink:href="#a1rDhVyFVR" opacity="1" fill="#4b4a4a" fill-opacity="1"></use><g><use xlink:href="#a1rDhVyFVR" opacity="1" fill-opacity="0" stroke="#080707" stroke-width="1" stroke-opacity="1"></use></g></g><g><g><use xlink:href="#c14eNKvkKC" opacity="1" fill-opacity="0" stroke="#080707" stroke-width="1" stroke-opacity="1"></use></g></g></g></g></svg>