<?xml version="1.0" encoding="UTF-8" standalone="no"?>
<!DOCTYPE svg PUBLIC "-//W3C//DTD SVG 1.1//EN" "http://www.w3.org/Graphics/SVG/1.1/DTD/svg11.dtd">
<svg version="1.1" xmlns="http://www.w3.org/2000/svg" xmlns:xlink="http://www.w3.org/1999/xlink" preserveAspectRatio="xMidYMid meet" viewBox="0 0 1200 250" width="1200" height="250"><defs><path d="M407.62 72.23C407.75 72.5 407.55 72.8 407.25 72.8C406.83 72.8 406.11 72.8 405.66 72.8C405.33 72.8 405.02 72.6 404.89 72.29C404.56 71.49 403.8 69.66 403.47 68.87C403.35 68.58 403.56 68.26 403.88 68.26C404.26 68.26 404.84 68.26 405.25 68.26C405.59 68.26 405.89 68.46 406.03 68.77C406.4 69.58 407.26 71.44 407.62 72.23Z" id="bcw1IiXlG4"></path><path d="M445.18 72.23C445.3 72.5 445.1 72.8 444.81 72.8C444.38 72.8 443.66 72.8 443.22 72.8C442.88 72.8 442.58 72.6 442.45 72.29C442.11 71.49 441.35 69.66 441.03 68.87C440.91 68.58 441.12 68.26 441.43 68.26C441.82 68.26 442.4 68.26 442.8 68.26C443.14 68.26 443.45 68.46 443.59 68.77C443.96 69.58 444.81 71.44 445.18 72.23Z" id="c1eE9bLWuu"></path><path d="M440.13 72.23C440.25 72.5 440.06 72.8 439.76 72.8C439.33 72.8 438.61 72.8 438.17 72.8C437.83 72.8 437.53 72.6 437.4 72.29C437.07 71.49 436.31 69.66 435.98 68.87C435.86 68.58 436.07 68.26 436.39 68.26C436.77 68.26 437.35 68.26 437.75 68.26C438.09 68.26 438.4 68.46 438.54 68.77C438.91 69.58 439.77 71.44 440.13 72.23Z" id="arvoYwrEp"></path><path d="M450.6 72.23C450.72 72.5 450.53 72.8 450.23 72.8C449.8 72.8 449.08 72.8 448.64 72.8C448.3 72.8 448 72.6 447.87 72.29C447.54 71.49 446.78 69.66 446.45 68.87C446.33 68.58 446.54 68.26 446.85 68.26C447.24 68.26 447.82 68.26 448.22 68.26C448.56 68.26 448.87 68.46 449.01 68.77C449.38 69.58 450.24 71.44 450.6 72.23Z" id="caffnQ8HCF"></path><path d="M456.15 72.23C456.27 72.5 456.07 72.8 455.78 72.8C455.35 72.8 454.63 72.8 454.19 72.8C453.85 72.8 453.55 72.6 453.42 72.29C453.08 71.49 452.32 69.66 452 68.87C451.88 68.58 452.09 68.26 452.4 68.26C452.79 68.26 453.36 68.26 453.77 68.26C454.11 68.26 454.42 68.46 454.56 68.77C454.93 69.58 455.78 71.44 456.15 72.23Z" id="a1tH0KXwJf"></path><path d="M413.04 72.23C413.17 72.5 412.97 72.8 412.68 72.8C412.25 72.8 411.53 72.8 411.08 72.8C410.75 72.8 410.44 72.6 410.32 72.29C409.98 71.49 409.22 69.66 408.89 68.87C408.77 68.58 408.99 68.26 409.3 68.26C409.68 68.26 410.26 68.26 410.67 68.26C411.01 68.26 411.32 68.46 411.46 68.77C411.83 69.58 412.68 71.44 413.04 72.23Z" id="aWpqYCSI0"></path><path d="M461.88 72.23C462 72.5 461.81 72.8 461.51 72.8C461.08 72.8 460.36 72.8 459.92 72.8C459.58 72.8 459.28 72.6 459.15 72.29C458.82 71.49 458.06 69.66 457.73 68.87C457.61 68.58 457.82 68.26 458.14 68.26C458.52 68.26 459.1 68.26 459.5 68.26C459.84 68.26 460.15 68.46 460.29 68.77C460.66 69.58 461.52 71.44 461.88 72.23Z" id="fAqoh8bgY"></path><path d="M418.28 72.23C418.4 72.5 418.21 72.8 417.91 72.8C417.48 72.8 416.76 72.8 416.32 72.8C415.98 72.8 415.68 72.6 415.55 72.29C415.22 71.49 414.46 69.66 414.13 68.87C414.01 68.58 414.22 68.26 414.53 68.26C414.92 68.26 415.5 68.26 415.9 68.26C416.24 68.26 416.55 68.46 416.69 68.77C417.06 69.58 417.91 71.44 418.28 72.23Z" id="b1KisPD5I"></path><path d="M423.58 72.23C423.7 72.5 423.5 72.8 423.21 72.8C422.78 72.8 422.06 72.8 421.61 72.8C421.28 72.8 420.98 72.6 420.85 72.29C420.51 71.49 419.75 69.66 419.43 68.87C419.31 68.58 419.52 68.26 419.83 68.26C420.22 68.26 420.79 68.26 421.2 68.26C421.54 68.26 421.85 68.46 421.99 68.77C422.36 69.58 423.21 71.44 423.58 72.23Z" id="b1F4pH5py"></path><path d="M467.55 72.23C467.68 72.5 467.48 72.8 467.18 72.8C466.75 72.8 466.04 72.8 465.59 72.8C465.26 72.8 464.95 72.6 464.82 72.29C464.49 71.49 463.73 69.66 463.4 68.87C463.28 68.58 463.49 68.26 463.81 68.26C464.19 68.26 464.77 68.26 465.18 68.26C465.52 68.26 465.82 68.46 465.96 68.77C466.33 69.58 467.19 71.44 467.55 72.23Z" id="f3LDYwaNKx"></path><path d="M434.48 72.23C434.61 72.5 434.41 72.8 434.11 72.8C433.68 72.8 432.97 72.8 432.52 72.8C432.19 72.8 431.88 72.6 431.75 72.29C431.42 71.49 430.66 69.66 430.33 68.87C430.21 68.58 430.42 68.26 430.74 68.26C431.12 68.26 431.7 68.26 432.11 68.26C432.45 68.26 432.75 68.46 432.89 68.77C433.26 69.58 434.12 71.44 434.48 72.23Z" id="d13WHZbKwV"></path><path d="M429.06 72.23C429.18 72.5 428.99 72.8 428.69 72.8C428.26 72.8 427.54 72.8 427.1 72.8C426.76 72.8 426.46 72.6 426.33 72.29C426 71.49 425.24 69.66 424.91 68.87C424.79 68.58 425 68.26 425.32 68.26C425.7 68.26 426.28 68.26 426.68 68.26C427.02 68.26 427.33 68.46 427.47 68.77C427.84 69.58 428.7 71.44 429.06 72.23Z" id="h18LsJDYLg"></path><path d="M472.72 72.23C472.85 72.5 472.65 72.8 472.36 72.8C471.93 72.8 471.21 72.8 470.76 72.8C470.43 72.8 470.12 72.6 470 72.29C469.66 71.49 468.9 69.66 468.57 68.87C468.45 68.58 468.67 68.26 468.98 68.26C469.36 68.26 469.94 68.26 470.35 68.26C470.69 68.26 470.99 68.46 471.14 68.77C471.51 69.58 472.36 71.44 472.72 72.23Z" id="baEc4qqMB"></path><path d="M395.36 69.27L482.76 69.27L482.76 71.87L395.36 71.87L395.36 69.27Z" id="f3tksVBTRT"></path><path d="M404.95 68.84C405.07 68.57 404.88 68.26 404.58 68.26C404.15 68.26 403.43 68.26 402.99 68.26C402.65 68.26 402.35 68.47 402.22 68.78C401.89 69.58 401.13 71.41 400.8 72.19C400.68 72.48 400.89 72.8 401.21 72.8C401.59 72.8 402.17 72.8 402.58 72.8C402.91 72.8 403.22 72.61 403.36 72.3C403.73 71.49 404.59 69.63 404.95 68.84Z" id="a9jE8JHmy3"></path><path d="M410.5 68.84C410.62 68.57 410.42 68.26 410.13 68.26C409.7 68.26 408.98 68.26 408.54 68.26C408.2 68.26 407.9 68.47 407.77 68.78C407.43 69.58 406.67 71.41 406.35 72.19C406.23 72.48 406.44 72.8 406.75 72.8C407.14 72.8 407.72 72.8 408.12 72.8C408.46 72.8 408.77 72.61 408.91 72.3C409.28 71.49 410.13 69.63 410.5 68.84Z" id="cfAzo4vne"></path><path d="M415.86 68.84C415.98 68.57 415.78 68.26 415.49 68.26C415.06 68.26 414.34 68.26 413.9 68.26C413.56 68.26 413.26 68.47 413.13 68.78C412.79 69.58 412.03 71.41 411.71 72.19C411.59 72.48 411.8 72.8 412.11 72.8C412.5 72.8 413.08 72.8 413.48 72.8C413.82 72.8 414.13 72.61 414.27 72.3C414.64 71.49 415.49 69.63 415.86 68.84Z" id="aF6dbsVBP"></path><path d="M421.22 68.84C421.34 68.57 421.14 68.26 420.85 68.26C420.42 68.26 419.7 68.26 419.26 68.26C418.92 68.26 418.62 68.47 418.49 68.78C418.15 69.58 417.39 71.41 417.07 72.19C416.95 72.48 417.16 72.8 417.47 72.8C417.86 72.8 418.44 72.8 418.84 72.8C419.18 72.8 419.49 72.61 419.63 72.3C420 71.49 420.85 69.63 421.22 68.84Z" id="i2m9JXT38T"></path><path d="M426.51 68.84C426.64 68.57 426.44 68.26 426.15 68.26C425.72 68.26 425 68.26 424.55 68.26C424.22 68.26 423.91 68.47 423.78 68.78C423.45 69.58 422.69 71.41 422.36 72.19C422.24 72.48 422.46 72.8 422.77 72.8C423.15 72.8 423.73 72.8 424.14 72.8C424.48 72.8 424.78 72.61 424.93 72.3C425.3 71.49 426.15 69.63 426.51 68.84Z" id="iboC4y87lu"></path><path d="M431.94 68.84C432.06 68.57 431.86 68.26 431.57 68.26C431.14 68.26 430.42 68.26 429.97 68.26C429.64 68.26 429.34 68.47 429.21 68.78C428.87 69.58 428.11 71.41 427.78 72.19C427.66 72.48 427.88 72.8 428.19 72.8C428.58 72.8 429.15 72.8 429.56 72.8C429.9 72.8 430.21 72.61 430.35 72.3C430.72 71.49 431.57 69.63 431.94 68.84Z" id="a5SnHqRV0A"></path><path d="M437.42 68.84C437.54 68.57 437.35 68.26 437.05 68.26C436.62 68.26 435.9 68.26 435.46 68.26C435.12 68.26 434.82 68.47 434.69 68.78C434.36 69.58 433.6 71.41 433.27 72.19C433.15 72.48 433.36 72.8 433.67 72.8C434.06 72.8 434.64 72.8 435.04 72.8C435.38 72.8 435.69 72.61 435.83 72.3C436.2 71.49 437.06 69.63 437.42 68.84Z" id="d2xWbwkM8d"></path><path d="M442.72 68.84C442.84 68.57 442.64 68.26 442.35 68.26C441.92 68.26 441.2 68.26 440.76 68.26C440.42 68.26 440.12 68.47 439.99 68.78C439.65 69.58 438.89 71.41 438.57 72.19C438.45 72.48 438.66 72.8 438.97 72.8C439.36 72.8 439.94 72.8 440.34 72.8C440.68 72.8 440.99 72.61 441.13 72.3C441.5 71.49 442.35 69.63 442.72 68.84Z" id="eKLuAJ6qW"></path><path d="M447.89 68.84C448.01 68.57 447.82 68.26 447.52 68.26C447.09 68.26 446.37 68.26 445.93 68.26C445.59 68.26 445.29 68.47 445.16 68.78C444.82 69.58 444.06 71.41 443.74 72.19C443.62 72.48 443.83 72.8 444.14 72.8C444.53 72.8 445.11 72.8 445.51 72.8C445.85 72.8 446.16 72.61 446.3 72.3C446.67 71.49 447.52 69.63 447.89 68.84Z" id="b1XGFf7vQH"></path><path d="M453.44 68.84C453.56 68.57 453.36 68.26 453.07 68.26C452.64 68.26 451.92 68.26 451.47 68.26C451.14 68.26 450.84 68.47 450.71 68.78C450.37 69.58 449.61 71.41 449.28 72.19C449.16 72.48 449.38 72.8 449.69 72.8C450.08 72.8 450.65 72.8 451.06 72.8C451.4 72.8 451.71 72.61 451.85 72.3C452.22 71.49 453.07 69.63 453.44 68.84Z" id="c2uXlaFllx"></path><path d="M459.17 68.84C459.29 68.57 459.1 68.26 458.8 68.26C458.37 68.26 457.65 68.26 457.21 68.26C456.87 68.26 456.57 68.47 456.44 68.78C456.11 69.58 455.35 71.41 455.02 72.19C454.9 72.48 455.11 72.8 455.42 72.8C455.81 72.8 456.39 72.8 456.79 72.8C457.13 72.8 457.44 72.61 457.58 72.3C457.95 71.49 458.81 69.63 459.17 68.84Z" id="b2xVT1USja"></path><path d="M464.72 68.84C464.84 68.57 464.64 68.26 464.35 68.26C463.92 68.26 463.2 68.26 462.76 68.26C462.42 68.26 462.12 68.47 461.99 68.78C461.65 69.58 460.89 71.41 460.57 72.19C460.45 72.48 460.66 72.8 460.97 72.8C461.36 72.8 461.94 72.8 462.34 72.8C462.68 72.8 462.99 72.61 463.13 72.3C463.5 71.49 464.35 69.63 464.72 68.84Z" id="i4gg7x3Zi"></path><path d="M470.14 68.84C470.26 68.57 470.07 68.26 469.77 68.26C469.34 68.26 468.62 68.26 468.18 68.26C467.84 68.26 467.54 68.47 467.41 68.78C467.07 69.58 466.31 71.41 465.99 72.19C465.87 72.48 466.08 72.8 466.39 72.8C466.78 72.8 467.36 72.8 467.76 72.8C468.1 72.8 468.41 72.61 468.55 72.3C468.92 71.49 469.77 69.63 470.14 68.84Z" id="b8wIYRnN2A"></path><path d="M475.31 68.84C475.43 68.57 475.24 68.26 474.94 68.26C474.51 68.26 473.79 68.26 473.35 68.26C473.01 68.26 472.71 68.47 472.58 68.78C472.25 69.58 471.49 71.41 471.16 72.19C471.04 72.48 471.25 72.8 471.57 72.8C471.95 72.8 472.53 72.8 472.93 72.8C473.27 72.8 473.58 72.61 473.72 72.3C474.09 71.49 474.95 69.63 475.31 68.84Z" id="e15eGFoHh1"></path><path d="M601.49 79.14L601.49 54.24L475.71 54.24L475.71 79.14L601.49 79.14Z" id="f28Cdhq1Mx"></path><path d="M486.91 54.64L603.89 54.64L603.89 64.84L486.91 64.84L486.91 54.64Z" id="a1cKp1oFRB"></path><path d="M375.41 124.43C373.96 125.61 373.06 126.35 372.69 126.65C370.93 128.09 369.62 130.02 368.94 132.19C368.52 133.53 368.98 132.04 368.73 132.84C367.52 136.69 367.92 140.86 369.82 144.42C370.71 146.08 372.13 148.72 373.45 151.18C373.55 151.38 373.29 151.56 373.15 151.39C371.03 148.88 368.39 145.76 366.92 144.02C364.19 140.8 363.25 136.42 364.41 132.36C364.61 131.66 364.04 133.66 364.41 132.36C365.04 130.16 364.56 127.81 363.12 126.04C363 125.9 362.72 125.55 362.27 125L375.41 124.43Z" id="bjvVJ2K6Z"></path><path d="M578.94 163.01C580.38 163.41 581.29 163.67 581.65 163.77C581.89 163.84 581.96 164.14 581.78 164.31C581.41 164.65 580.99 165.04 580.68 165.32C580.2 165.77 579.6 166.06 578.95 166.16C562.56 168.68 514.45 176.1 498.08 178.63C497.4 178.73 496.7 178.64 496.07 178.37C495.79 178.26 495.88 178.29 495.6 178.17C495.15 177.98 495.01 177.41 495.32 177.04C495.46 176.87 495.81 176.46 496.37 175.79L578.94 163.01Z" id="dJH2tyeOQ"></path><path d="M749.57 54.71C752.74 54.06 755.96 53.74 759.19 53.74C763.98 53.74 777 53.74 782.67 53.74C782.94 53.74 783.16 53.96 783.16 54.23C783.16 55.33 783.16 58.17 783.16 59.28C783.16 59.53 782.95 59.74 782.7 59.74C777.02 59.74 765.18 59.74 760.68 59.74C756.46 59.74 752.25 60.16 748.11 61.01C743.46 61.95 735.97 63.48 731.38 64.41C727.04 65.29 722.62 65.74 718.2 65.74C696.34 65.74 632.8 65.74 609.79 65.74C609.32 65.74 608.94 65.36 608.94 64.89C608.94 63.86 608.94 61.45 608.94 60.38C608.94 60.03 609.23 59.74 609.58 59.74C632.63 59.74 697.29 59.74 719.38 59.74C723.02 59.74 726.65 59.37 730.22 58.65C735.04 57.67 744.63 55.71 749.57 54.71Z" id="b3IP57Kv8g"></path><path d="M1012.19 80.88C1012.19 81.9 1011.36 82.73 1010.34 82.73C930.06 82.73 691.85 82.73 611.77 82.73C610.2 82.73 608.94 81.46 608.94 79.9C608.94 77.77 608.94 73.62 608.94 71.35C608.94 70.17 609.89 69.22 611.06 69.22C691.29 69.22 929.98 69.22 1010.24 69.22C1011.31 69.22 1012.19 70.1 1012.19 71.18C1012.19 73.49 1012.19 78.55 1012.19 80.88Z" id="f1JAGYljz9"></path><path d="M795.52 63.44C796.9 63.61 798.19 64.21 799.2 65.17C799.72 65.66 800.31 66.22 800.98 66.85C801.51 67.35 801.82 68.06 801.82 68.8C801.82 72.27 801.82 81.4 801.82 84.85C801.82 85.56 802.4 86.14 803.11 86.14C806.69 86.14 816.02 86.14 819.57 86.14C820.35 86.14 820.98 85.51 820.98 84.73C820.98 81.31 820.98 72.93 820.98 69.63C820.98 68.43 820.26 67.34 819.15 66.88C815.98 65.56 811.16 63.55 808.7 62.53C805.18 61.06 802.14 58.64 799.91 55.54C799.46 54.91 799.34 54.75 798.35 53.37C797.91 52.76 797.2 52.4 796.45 52.4C791.91 52.4 780.21 52.4 775.85 52.4C774.68 52.4 773.73 53.35 773.73 54.52C773.73 56.18 773.73 59.29 773.73 61.01C773.73 62 774.54 62.81 775.53 62.81C778.44 62.81 785.78 62.81 788.79 62.81C788.79 62.81 791.39 62.96 791.39 62.96C792.64 63.11 794.44 63.32 795.52 63.44Z" id="a1bvVCnpIP"></path><path d="M757.72 46.45L757.81 46.46L757.9 46.48L757.99 46.49L758.08 46.51L758.16 46.53L758.24 46.56L758.33 46.59L758.41 46.62L758.49 46.66L758.56 46.69L758.64 46.74L758.71 46.78L758.78 46.83L758.85 46.87L758.92 46.93L758.99 46.98L759.05 47.04L759.11 47.1L759.17 47.16L759.23 47.22L759.28 47.29L759.34 47.36L759.38 47.43L759.43 47.5L759.48 47.57L759.52 47.65L759.55 47.72L759.59 47.8L759.62 47.88L759.65 47.97L759.68 48.05L759.7 48.13L759.72 48.22L759.74 48.31L759.75 48.4L759.76 48.49L759.76 48.58L759.76 48.67L759.76 68.26L605.76 68.26L605.76 54.64L705.77 54.64L706.17 54.64L706.57 54.63L706.96 54.61L707.36 54.59L707.75 54.56L708.15 54.53L708.54 54.49L708.93 54.45L709.32 54.4L709.71 54.34L710.1 54.28L710.49 54.21L710.87 54.13L711.26 54.05L711.64 53.97L712.02 53.87L712.4 53.78L712.78 53.67L713.16 53.56L713.54 53.45L713.91 53.33L714.28 53.2L714.65 53.07L715.02 52.93L715.39 52.79L715.75 52.64L716.11 52.48L716.47 52.32L716.83 52.16L717.18 51.99L717.54 51.81L717.89 51.63L718.23 51.44L718.58 51.25L718.92 51.05L719.26 50.85L719.6 50.64L719.93 50.43L720.26 50.21L720.59 49.98L724.11 47.53L724.18 47.47L724.26 47.42L724.34 47.37L724.41 47.32L724.49 47.28L724.57 47.23L724.65 47.19L724.73 47.14L724.81 47.1L724.89 47.06L724.98 47.02L725.06 46.98L725.14 46.95L725.23 46.91L725.31 46.88L725.4 46.84L725.48 46.81L725.57 46.78L725.65 46.75L725.74 46.72L725.83 46.7L725.91 46.67L726 46.65L726.09 46.62L726.18 46.6L726.27 46.58L726.36 46.56L726.45 46.55L726.54 46.53L726.63 46.52L726.72 46.5L726.81 46.49L726.9 46.48L726.99 46.47L727.08 46.46L727.17 46.46L727.26 46.45L727.36 46.45L727.45 46.45L727.54 46.45L757.54 46.45L757.63 46.45L757.72 46.45ZM654.4 57.66L652.95 58.11L652 58.69L651.65 59.35L652 60.02L652.95 60.59L654.4 61.05L656.24 61.34L658.35 61.45L660.47 61.34L662.31 61.05L663.76 60.59L664.71 60.02L665.05 59.35L664.71 58.69L663.76 58.11L662.31 57.66L660.47 57.36L658.35 57.25L656.24 57.36L654.4 57.66ZM695.49 57.66L694.03 58.11L693.08 58.69L692.74 59.35L693.08 60.02L694.03 60.59L695.49 61.05L697.32 61.34L699.44 61.45L701.56 61.34L703.4 61.05L704.85 60.59L705.8 60.02L706.14 59.35L705.8 58.69L704.85 58.11L703.4 57.66L701.56 57.36L699.44 57.25L697.32 57.36L695.49 57.66ZM633.65 57.66L632.2 58.11L631.25 58.69L630.91 59.35L631.25 60.02L632.2 60.59L633.65 61.05L635.49 61.34L637.61 61.45L639.73 61.34L641.57 61.05L643.02 60.59L643.97 60.02L644.31 59.35L643.97 58.69L643.02 58.11L641.57 57.66L639.73 57.36L637.61 57.25L635.49 57.36L633.65 57.66ZM614.31 57.66L612.86 58.11L611.91 58.69L611.57 59.35L611.91 60.02L612.86 60.59L614.31 61.05L616.15 61.34L618.27 61.45L620.38 61.34L622.22 61.05L623.67 60.59L624.62 60.02L624.97 59.35L624.62 58.69L623.67 58.11L622.22 57.66L620.38 57.36L618.27 57.25L616.15 57.36L614.31 57.66ZM674.74 57.66L673.29 58.11L672.34 58.69L672 59.35L672.34 60.02L673.29 60.59L674.74 61.05L676.58 61.34L678.7 61.45L680.81 61.34L682.65 61.05L684.1 60.59L685.06 60.02L685.4 59.35L685.06 58.69L684.1 58.11L682.65 57.66L680.81 57.36L678.7 57.25L676.58 57.36L674.74 57.66Z" id="bwJjAolLa"></path><path d="M605.76 79.14C605.76 65.42 605.76 56.85 605.76 53.42C605.76 52.89 605.34 52.47 604.82 52.47C603.55 52.47 600.5 52.47 599.18 52.47C598.8 52.47 598.49 52.78 598.49 53.17C598.49 57.68 598.49 67.31 598.49 71.03C598.49 73.63 596.38 75.74 593.78 75.74C554.36 75.74 441.01 75.74 401.64 75.74C398.91 75.74 396.69 73.52 396.69 70.79C396.69 69.61 396.69 71.57 396.69 70.53C396.69 67.41 399.22 64.87 402.35 64.87C419.97 64.87 470.31 64.87 488.72 64.87C489.7 64.87 490.49 64.08 490.49 63.11C490.49 60.98 490.49 56.08 490.49 53.89C490.49 53.11 489.86 52.47 489.07 52.47C463.2 52.47 389.73 52.47 364.54 52.47C361.8 52.47 359.51 54.57 359.27 57.31C359.01 60.22 358.37 67.5 357.36 79.14L605.76 79.14Z" id="a1tk5wqfST"></path><path d="M572.76 119.41C572.76 122.91 572.76 125.11 572.76 125.98C572.76 134.91 573.88 143.8 576.1 152.44C576.48 153.9 577.42 157.56 578.92 163.42L495.87 176.12C494.05 167.12 492.92 161.49 492.46 159.24C490.41 149.08 489.48 138.73 489.69 128.37C489.72 127.18 489.78 124.19 489.87 119.41L572.76 119.41Z" id="d1lvRR9Upt"></path><path d="M477.81 125.82C469.38 127.81 464.11 129.06 462 129.56C461.67 129.64 461.43 129.94 461.43 130.28C461.43 130.61 461.43 130.87 461.43 131.16C461.43 131.56 461.8 131.86 462.2 131.78C464.28 131.34 469.48 130.22 477.81 128.44L477.81 125.82Z" id="f4eCs62JzO"></path><path d="M489.17 135.63L489.27 135.67L489.37 135.71L489.45 135.76L489.54 135.83L489.61 135.9L489.67 135.98L489.73 136.07L489.77 136.17L489.8 136.27L489.82 136.38L492.08 155.99L492.08 156.15L492.04 156.3L491.98 156.43L491.89 156.54L491.78 156.63L491.65 156.7L491.52 156.73L491.38 156.75L491.24 156.73L491.1 156.68L490.97 156.59L490.86 156.48L475.21 135.74L475.2 135.73L475.2 135.71L475.19 135.7L475.19 135.68L475.2 135.67L475.2 135.65L475.21 135.64L475.22 135.63L475.23 135.62L475.24 135.61L475.26 135.61L475.28 135.61L488.95 135.61L489.06 135.61L489.17 135.63ZM484.65 139.25L484.12 140.05L483.92 141.02L484.12 141.99L484.65 142.79L485.45 143.32L486.42 143.52L487.39 143.32L488.19 142.79L488.72 141.99L488.92 141.02L488.72 140.05L488.19 139.25L487.39 138.72L486.42 138.52L485.45 138.72L484.65 139.25Z" id="a8HvotAKhT"></path><path d="M115.29 198.51C115.53 199.36 115.04 200.23 114.2 200.49C113.6 200.67 113.36 200.75 112.77 200.93C111.91 201.19 111.01 200.69 110.78 199.83C110.16 197.6 109.09 193.7 108.56 191.77C108.08 190.03 109.06 188.21 110.78 187.63C111.06 187.54 108.79 188.3 109.06 188.21C110.77 187.64 112.61 188.62 113.08 190.36C113.61 192.29 114.68 196.24 115.29 198.51Z" id="fg0NFpm2h"></path><path d="M747.93 95.5C747.97 96.13 747.52 96.69 746.9 96.79C746.45 96.86 746.25 96.88 745.81 96.95C745.2 97.04 744.63 96.59 744.58 95.97C744.45 94.15 744.21 90.77 744.1 89.18C744.01 87.87 744.92 86.71 746.2 86.48C746.42 86.44 744.76 86.74 744.97 86.7C746.21 86.48 747.37 87.38 747.46 88.64C747.57 90.24 747.8 93.66 747.93 95.5Z" id="b2nG9BfOb"></path><path d="M348.33 144.34L348.29 144.22L348.25 144.09L348.2 143.96L348.16 143.83L348.13 143.7L348.09 143.57L348.05 143.44L348.02 143.31L347.99 143.18L347.96 143.05L347.93 142.92L347.9 142.78L347.87 142.65L347.84 142.52L347.82 142.39L347.8 142.25L347.78 142.12L347.76 141.99L347.74 141.85L347.72 141.72L347.71 141.59L347.69 141.45L347.68 141.32L347.67 141.18L347.66 141.05L347.65 140.91L347.64 140.78L347.64 140.64L347.63 140.51L347.63 140.37L347.63 140.24L347.63 140.1L347.63 139.97L347.64 139.83L347.64 139.7L347.65 139.56L347.76 137.59L347.77 137.28L347.77 136.97L347.77 136.66L347.77 136.36L347.75 136.05L347.73 135.74L347.71 135.44L347.67 135.13L347.63 134.83L347.59 134.53L347.53 134.23L347.47 133.93L347.41 133.63L347.34 133.34L347.26 133.05L347.17 132.75L347.08 132.47L346.98 132.18L346.88 131.89L346.77 131.61L346.66 131.33L346.53 131.05L346.41 130.78L346.27 130.5L346.13 130.23L345.99 129.97L345.84 129.7L345.68 129.44L345.52 129.18L345.35 128.93L345.18 128.68L345 128.43L344.81 128.19L344.62 127.95L344.42 127.71L344.22 127.48L344.02 127.25L343.8 127.03L343.58 126.81L341.76 125L355.01 121.77L419.77 121.77L415.35 125.08L415.03 125.33L414.7 125.59L414.38 125.85L414.06 126.11L413.75 126.38L413.44 126.66L413.13 126.93L412.83 127.21L412.54 127.5L412.24 127.79L411.96 128.08L411.67 128.38L411.39 128.68L411.12 128.99L410.85 129.3L410.58 129.61L410.32 129.93L410.07 130.25L409.81 130.57L409.57 130.9L409.33 131.23L409.09 131.57L408.86 131.9L408.63 132.24L408.4 132.59L408.19 132.94L407.97 133.29L407.77 133.64L407.56 134L407.36 134.36L407.17 134.73L406.98 135.09L406.8 135.46L406.62 135.83L406.45 136.21L406.28 136.59L406.12 136.97L405.97 137.35L405.82 137.74L405.31 139.05L405.24 139.24L405.17 139.43L405.09 139.62L405.02 139.81L404.94 140L404.86 140.19L404.78 140.38L404.7 140.56L404.63 140.75L404.54 140.94L404.46 141.12L404.38 141.31L404.3 141.5L404.21 141.68L404.13 141.87L404.04 142.05L403.96 142.23L403.87 142.42L403.78 142.6L403.69 142.78L403.6 142.97L403.51 143.15L403.42 143.33L403.33 143.51L403.23 143.69L403.14 143.87L403.05 144.05L402.95 144.23L402.85 144.41L402.76 144.59L402.66 144.77L402.56 144.95L402.46 145.12L402.36 145.3L402.26 145.48L402.16 145.65L402.05 145.83L401.95 146.01L401.85 146.18L401.1 147.42L401 147.6L400.89 147.77L400.78 147.94L400.66 148.11L400.55 148.28L400.43 148.44L400.31 148.61L400.19 148.77L400.07 148.94L399.94 149.1L399.82 149.25L399.69 149.41L399.56 149.57L399.42 149.72L399.29 149.87L399.15 150.02L399.01 150.17L398.87 150.31L398.73 150.46L398.59 150.6L398.44 150.74L398.29 150.88L398.14 151.02L397.99 151.15L397.84 151.28L397.68 151.42L397.53 151.54L397.37 151.67L397.21 151.8L397.05 151.92L396.88 152.04L396.72 152.16L396.55 152.28L396.38 152.39L396.21 152.5L396.04 152.61L395.87 152.72L395.69 152.83L395.52 152.93L393.87 153.89L393.63 154.03L393.39 154.16L393.15 154.29L392.9 154.42L392.66 154.54L392.41 154.67L392.16 154.78L391.91 154.9L391.66 155.01L391.41 155.12L391.16 155.22L390.9 155.32L390.65 155.42L390.39 155.51L390.13 155.6L389.87 155.69L389.61 155.77L389.35 155.86L389.09 155.93L388.82 156.01L388.56 156.08L388.29 156.14L388.03 156.21L387.76 156.27L387.49 156.32L387.22 156.38L386.95 156.43L386.68 156.47L386.41 156.51L386.14 156.55L385.87 156.59L385.6 156.62L385.32 156.65L385.05 156.67L384.77 156.69L384.5 156.71L384.22 156.72L383.95 156.74L383.67 156.74L369.7 156.99L369.38 157L369.05 157L368.72 156.99L368.4 156.99L368.07 156.97L367.75 156.96L367.42 156.94L367.1 156.92L366.77 156.89L366.45 156.86L366.13 156.83L365.8 156.79L365.48 156.75L365.16 156.71L364.84 156.66L364.52 156.61L364.2 156.56L363.88 156.5L363.56 156.43L363.24 156.37L362.93 156.3L362.61 156.23L362.29 156.15L361.98 156.07L361.67 155.99L361.35 155.9L361.04 155.81L360.73 155.71L360.42 155.61L360.11 155.51L359.81 155.41L359.5 155.3L359.19 155.19L358.89 155.07L358.59 154.95L358.28 154.83L357.98 154.7L357.69 154.57L357.48 154.48L357.46 154.47L357.33 154.41L357.2 154.35L357.07 154.29L356.94 154.22L356.82 154.15L356.69 154.09L356.56 154.02L356.43 153.95L356.31 153.88L356.18 153.81L356.06 153.73L355.93 153.66L355.81 153.58L355.69 153.51L355.57 153.43L355.45 153.35L355.32 153.27L355.21 153.19L355.09 153.11L354.97 153.03L354.85 152.95L354.73 152.86L354.62 152.78L354.5 152.69L354.39 152.6L354.27 152.51L354.16 152.42L354.05 152.33L353.94 152.24L353.83 152.15L353.72 152.05L353.61 151.96L353.5 151.86L353.39 151.77L353.28 151.67L353.18 151.57L353.07 151.47L352.97 151.37L352.71 151.12L352.57 150.98L352.43 150.84L352.29 150.69L352.15 150.55L352.02 150.4L351.88 150.25L351.75 150.1L351.62 149.95L351.49 149.8L351.36 149.65L351.23 149.49L351.11 149.34L350.99 149.18L350.87 149.02L350.75 148.86L350.63 148.7L350.52 148.53L350.4 148.37L350.29 148.21L350.18 148.04L350.07 147.87L349.97 147.7L349.86 147.53L349.76 147.36L349.66 147.19L349.56 147.02L349.46 146.84L349.37 146.67L349.27 146.49L349.18 146.31L349.09 146.13L349.01 145.95L348.92 145.77L348.84 145.59L348.76 145.41L348.68 145.23L348.6 145.04L348.52 144.86L348.45 144.67L348.47 144.73L348.42 144.6L348.38 144.47L348.33 144.34ZM357.6 154.53L357.39 154.44L357.48 154.48L357.6 154.53ZM368.36 125L368.16 125.01L367.95 125.01L367.75 125.02L367.54 125.03L367.34 125.05L367.13 125.06L366.93 125.08L366.73 125.11L366.52 125.13L366.32 125.16L366.12 125.19L365.92 125.22L365.71 125.26L365.51 125.3L365.31 125.34L365.11 125.38L364.91 125.43L364.71 125.47L364.52 125.52L364.32 125.58L364.12 125.63L363.92 125.69L363.73 125.75L363.53 125.82L362.88 126.03L362.61 126.13L362.34 126.23L362.07 126.34L361.81 126.46L361.55 126.59L361.3 126.72L361.05 126.87L360.81 127.01L360.57 127.17L360.33 127.33L360.1 127.5L359.88 127.67L359.66 127.86L359.45 128.05L359.24 128.24L359.04 128.44L358.84 128.65L358.65 128.86L358.47 129.08L358.29 129.3L358.12 129.53L357.95 129.77L357.79 130.01L357.64 130.26L357.5 130.51L354.23 136.41L354.05 136.74L353.88 137.09L353.73 137.43L353.58 137.78L353.44 138.14L353.31 138.5L353.2 138.86L353.1 139.22L353 139.59L352.92 139.96L352.85 140.33L352.79 140.7L352.75 141.08L352.71 141.45L352.68 141.83L352.67 142.21L352.67 142.59L352.68 142.96L352.7 143.34L352.73 143.72L352.77 144.1L352.83 144.47L352.9 144.85L352.98 145.23L353.07 145.6L353.23 146.25L353.26 146.35L353.29 146.45L353.32 146.55L353.35 146.65L353.39 146.75L353.43 146.85L353.46 146.95L353.5 147.04L353.55 147.14L353.59 147.24L353.63 147.33L353.68 147.42L353.73 147.52L353.78 147.61L353.83 147.7L353.89 147.79L353.94 147.88L354 147.97L354.06 148.05L354.12 148.14L354.18 148.22L354.24 148.31L354.31 148.39L354.38 148.47L354.44 148.55L354.71 148.86L354.9 149.08L355.09 149.28L355.29 149.49L355.49 149.69L355.69 149.88L355.9 150.07L356.11 150.26L356.32 150.44L356.54 150.62L356.76 150.79L356.99 150.96L357.21 151.12L357.45 151.28L357.68 151.43L357.92 151.58L358.16 151.73L358.4 151.87L358.65 152L358.9 152.13L359.15 152.25L359.4 152.37L359.66 152.49L359.92 152.6L360.18 152.7L360.45 152.8L360.53 152.83L360.77 152.92L361.02 153L361.26 153.08L361.51 153.15L361.75 153.22L362 153.29L362.24 153.35L362.49 153.42L362.74 153.47L362.99 153.53L363.24 153.58L363.49 153.63L363.74 153.67L363.99 153.71L364.25 153.75L364.5 153.78L364.75 153.81L365.01 153.84L365.26 153.86L365.52 153.88L365.77 153.9L366.03 153.91L366.28 153.92L366.54 153.92L366.8 153.92L376.31 153.92L385.68 153.23L385.92 153.22L386.16 153.19L386.39 153.17L386.63 153.14L386.87 153.11L387.11 153.07L387.34 153.03L387.58 152.99L387.81 152.94L388.05 152.89L388.28 152.84L388.51 152.79L388.74 152.73L388.98 152.67L389.21 152.6L389.43 152.53L389.66 152.46L389.89 152.39L390.12 152.31L390.34 152.23L390.57 152.14L390.79 152.06L391.01 151.96L391.23 151.87L391.45 151.77L391.5 151.75L391.79 151.62L392.08 151.47L392.36 151.31L392.64 151.15L392.9 150.98L393.17 150.79L393.42 150.6L393.67 150.41L393.92 150.2L394.15 149.99L394.38 149.77L394.6 149.54L394.82 149.3L395.02 149.06L395.22 148.81L395.41 148.56L395.59 148.3L395.76 148.03L395.93 147.76L396.08 147.48L396.23 147.19L396.37 146.9L396.49 146.61L396.61 146.31L396.72 146L397.28 144.35L397.42 143.91L397.55 143.47L397.67 143.02L397.78 142.57L397.88 142.11L397.96 141.66L398.03 141.21L398.09 140.75L398.14 140.29L398.18 139.83L398.2 139.37L398.21 138.91L398.21 138.45L398.2 137.99L398.18 137.53L398.15 137.08L398.1 136.62L398.04 136.16L397.97 135.7L397.89 135.25L397.79 134.8L397.69 134.35L397.57 133.9L397.44 133.45L397.3 133.01L397.01 132.16L396.88 131.79L396.73 131.42L396.57 131.06L396.4 130.71L396.21 130.37L396.01 130.04L395.8 129.72L395.57 129.4L395.34 129.1L395.09 128.8L394.83 128.52L394.56 128.24L394.28 127.98L393.99 127.73L393.69 127.49L393.38 127.26L393.06 127.04L392.73 126.83L392.39 126.64L392.05 126.46L391.69 126.3L391.33 126.15L390.97 126.01L390.59 125.89L390.21 125.78L389.72 125.65L389.53 125.6L389.33 125.55L389.14 125.5L388.94 125.46L388.75 125.41L388.55 125.37L388.35 125.34L388.15 125.3L387.96 125.27L387.76 125.23L387.56 125.2L387.36 125.18L387.16 125.15L386.96 125.13L386.76 125.1L386.56 125.08L386.36 125.07L386.16 125.05L385.96 125.04L385.76 125.03L385.56 125.02L385.36 125.01L385.16 125L384.96 125L384.76 125L368.57 125L368.36 125Z" id="d9Lr3FeNa0"></path><path d="M573.95 119.41C573.95 120.68 573.95 121.47 573.95 121.79C573.95 122.25 573.6 122.65 573.13 122.7C556.41 124.52 508.18 129.77 491.74 131.56C490.46 131.7 489.49 132.78 489.49 134.08C489.49 134.38 489.49 134.35 489.49 134.99C489.49 135.33 489.21 135.61 488.87 135.61C486.07 135.61 478.37 135.61 475.6 135.61C475.2 135.61 474.89 135.29 474.89 134.9C474.89 133.05 474.89 128.42 474.89 121.01L573.95 119.41Z" id="bbtonlOzM"></path><path d="M53.35 100.72C54.62 100.38 55.93 100.19 57.24 100.14C90.93 98.84 190.62 95.01 224.46 93.71C225.25 93.68 226.03 93.86 226.72 94.24C230.91 96.52 236.24 99.43 238.89 100.88C244.47 103.92 251.09 104.45 257.08 102.31C262.65 100.33 264.09 99.82 268.2 98.36C279.33 94.4 290.75 91.35 302.37 89.24C306.92 88.41 312.06 87.47 318.85 86.24C323.03 85.47 327.3 85.24 331.54 85.53C333.67 85.68 332.43 85.59 334.25 85.72C339.45 86.08 344.65 85.08 349.36 82.84C350.86 82.12 352.62 81.28 355.23 80.04C356.29 79.53 357.46 79.26 358.64 79.26C408.07 79.26 554.85 79.26 604.35 79.26C605.13 79.26 605.76 78.63 605.76 77.85C605.76 76.57 605.76 73.38 605.76 68.26L759.76 68.26C759.76 77.11 759.76 82.64 759.76 84.85C759.76 85.65 759.16 86.32 758.36 86.4C750.22 87.17 727.09 89.37 718.93 90.15C718.13 90.23 717.34 89.93 716.79 89.34C716.36 88.89 716.29 88.81 715.95 88.45C715.27 87.72 714.1 87.78 713.49 88.58C713.15 89.03 712.94 89.31 712.51 89.87C712.04 90.48 711.34 90.87 710.57 90.95C709.8 91.02 708.48 91.15 707.65 91.23C707.07 91.28 706.5 91.07 706.1 90.65C705.62 90.15 705.34 89.87 704.99 89.51C704.3 88.79 703.14 88.83 702.51 89.6C702.13 90.06 701.77 90.5 701.28 91.09C700.85 91.6 700.23 91.93 699.56 92C698.86 92.06 697.87 92.16 697.19 92.22C696.48 92.29 695.78 92.03 695.29 91.51C694.87 91.07 694.66 90.85 694.31 90.48C693.71 89.85 692.7 89.9 692.17 90.58C691.81 91.03 691.57 91.35 691.16 91.86C690.65 92.51 689.9 92.92 689.08 92.99C688.29 93.07 687.26 93.17 686.48 93.24C685.6 93.32 684.74 93.01 684.13 92.38C683.76 92.01 683.58 91.81 683.2 91.43C682.73 90.95 681.95 91 681.56 91.54C681.21 92.01 681.03 92.26 680.71 92.7C680.16 93.45 679.32 93.92 678.39 94.01C677.72 94.08 677.27 94.12 676.63 94.18C675.6 94.28 674.58 93.91 673.86 93.17C673.52 92.83 673.32 92.62 672.9 92.19C672.53 91.81 671.9 91.83 671.55 92.24C671.1 92.77 670.54 93.41 670.13 93.89C669.59 94.53 668.82 94.92 668 95C667.18 95.08 666.15 95.18 665.36 95.25C664.45 95.34 663.55 94.99 662.94 94.31C662.64 93.98 662.7 94.05 662.4 93.71C661.92 93.17 661.07 93.2 660.62 93.77C660.29 94.18 660.22 94.27 659.91 94.66C659.31 95.43 658.41 95.91 657.44 96.01C656.85 96.06 656.27 96.12 655.6 96.18C654.87 96.25 654.15 96 653.62 95.5C653.23 95.14 652.95 94.87 652.57 94.52C652.07 94.05 651.28 94.09 650.83 94.6C650.45 95.05 650 95.55 649.59 96.02C649.14 96.53 648.51 96.86 647.83 96.92C642.7 97.41 639.44 97.72 637.07 97.94C627.21 98.88 617.57 101.51 608.59 105.7C602.31 108.63 587.93 115.34 579.37 119.33C577.92 120.01 576.33 120.37 574.73 120.39C529.3 120.82 405.12 122.01 362.11 122.43C352.52 122.52 343.02 124.38 334.11 127.92C327.74 130.45 325.47 131.35 319.93 133.55C308.37 138.14 298.24 145.75 290.61 155.58C287.87 159.12 282.91 165.52 278.07 171.76C277.36 172.66 276.17 173.03 275.08 172.69C267.04 170.14 251.11 165.08 244.66 163.03C238.27 161 231.45 160.73 224.92 162.25C191.45 170.02 96.95 191.95 62.46 199.96C59.5 200.65 56.41 199.48 54.65 197C53.77 195.75 54.47 196.74 53.7 195.65C51.43 192.46 50.1 188.7 49.84 184.79C48.85 169.72 46.17 128.88 45.16 113.4C44.99 110.77 45.25 108.13 45.93 105.59C46.1 104.96 45.81 106.04 46.03 105.19C46.49 103.51 47.81 102.19 49.5 101.74C50.65 101.44 52.03 101.07 53.35 100.72Z" id="aw1i3JGI3"></path><path d="M596.26 70.53C596.26 74.67 592.9 78.03 588.76 78.03C584.62 78.03 581.26 74.67 581.26 70.53C581.26 66.39 584.62 63.03 588.76 63.03C592.9 63.03 596.26 66.39 596.26 70.53Z" id="a7mBZyjPts"></path><path d="M764.03 86.78C765.01 86.78 765.8 85.99 765.8 85.02C765.8 77.18 765.8 55.31 765.8 47.44C765.8 46.56 765.09 45.85 764.21 45.85C763.32 45.85 762.24 45.85 761.36 45.85C760.48 45.85 759.76 46.56 759.76 47.44C759.76 55.31 759.76 77.04 759.76 84.84C759.76 85.91 760.63 86.78 761.71 86.78C762.53 86.78 763.18 86.78 764.03 86.78Z" id="bNKEZvj3M"></path><path d="M568.53 99.07C568.53 101.94 566.2 104.27 563.33 104.27C549.5 104.27 513.19 104.27 499.36 104.27C496.48 104.27 494.16 101.94 494.16 99.07C494.16 98.03 494.16 100.11 494.16 99.07C494.16 96.2 496.48 93.87 499.36 93.87C513.19 93.87 549.5 93.87 563.33 93.87C566.2 93.87 568.53 96.2 568.53 99.07C568.53 100.11 568.53 98.03 568.53 99.07Z" id="d2dYcZ3cwj"></path><path d="M388.72 32.92C389.16 32.92 389.52 33.27 389.52 33.71C389.52 36.54 389.52 44.21 389.52 47.04C389.52 47.48 389.16 47.83 388.72 47.83C387.9 47.83 386.1 47.83 385.25 47.83C384.89 47.83 384.6 47.54 384.6 47.19C384.6 44.33 384.6 36.35 384.6 33.48C384.6 33.17 384.85 32.92 385.16 32.92C386.03 32.92 387.9 32.92 388.72 32.92Z" id="bec5JPfVo"></path><path d="M399.7 52.47C399.7 48.82 399.7 46.54 399.7 45.63C399.7 44.65 399.29 43.72 398.59 43.04C398.02 42.51 397.06 41.6 396.41 40.97C396 40.59 395.47 40.37 394.91 40.37C391.6 40.37 382.49 40.37 379.17 40.37C378.65 40.37 378.15 40.57 377.78 40.93C377.11 41.56 375.9 42.71 375.28 43.29C374.74 43.81 374.42 44.53 374.42 45.28C374.42 46.24 374.42 48.64 374.42 52.47L399.7 52.47Z" id="b3zJYgI2qB"></path><path d="M751.14 30.25C750.88 30.25 750.67 30.46 750.67 30.72C750.67 32.84 750.67 37.96 750.67 39.89C750.67 40.71 750.06 41.41 749.24 41.5C747.05 41.77 741.31 42.46 738.97 42.74C738.56 42.79 738.25 43.14 738.25 43.55C738.25 43.94 738.25 44.9 738.25 46.45L756.25 46.45C756.25 38.25 756.25 33.12 756.25 31.07C756.25 30.62 755.88 30.25 755.43 30.25C754.48 30.25 752.16 30.25 751.14 30.25Z" id="ardGzfjR2"></path><path d="M1059.11 66.12L1059.22 66.14L1059.32 66.16L1059.43 66.19L1059.53 66.22L1059.62 66.26L1059.72 66.3L1059.81 66.35L1059.9 66.41L1059.98 66.47L1060.06 66.53L1060.14 66.6L1060.21 66.68L1060.28 66.75L1060.35 66.83L1060.41 66.92L1060.46 67.01L1060.51 67.1L1060.56 67.19L1060.6 67.29L1060.63 67.39L1060.66 67.49L1060.68 67.6L1060.7 67.7L1060.71 67.81L1060.71 67.92L1060.71 84.73L1060.71 84.8L1060.7 84.87L1060.69 84.95L1060.68 85.02L1060.66 85.08L1060.64 85.15L1060.61 85.22L1060.58 85.28L1060.55 85.34L1060.51 85.4L1060.47 85.45L1060.43 85.51L1060.38 85.56L1060.33 85.61L1060.28 85.65L1060.23 85.7L1060.17 85.74L1060.11 85.77L1060.05 85.81L1059.99 85.84L1059.92 85.86L1059.86 85.89L1059.79 85.91L1059.72 85.92L1059.65 85.93L1059.57 85.94L1059.5 85.94L1011.98 85.94L1011.87 85.94L1011.76 85.93L1011.65 85.91L1011.55 85.89L1011.45 85.86L1011.35 85.83L1011.25 85.79L1011.15 85.74L1011.06 85.69L1010.97 85.64L1010.89 85.58L1010.81 85.51L1010.73 85.44L1010.66 85.37L1010.59 85.29L1010.53 85.21L1010.47 85.13L1010.41 85.04L1010.36 84.95L1010.32 84.85L1010.28 84.76L1010.24 84.66L1010.21 84.55L1010.19 84.45L1010.18 84.34L1010.17 84.23L1010.16 84.12L1010.16 67.72L1010.17 67.62L1010.17 67.53L1010.19 67.43L1010.21 67.34L1010.23 67.25L1010.26 67.16L1010.3 67.07L1010.34 66.99L1010.38 66.91L1010.43 66.83L1010.49 66.75L1010.54 66.68L1010.6 66.61L1010.67 66.55L1010.74 66.49L1010.81 66.43L1010.88 66.38L1010.96 66.33L1011.04 66.28L1011.13 66.24L1011.21 66.21L1011.3 66.18L1011.39 66.15L1011.49 66.13L1011.58 66.12L1011.68 66.11L1011.78 66.11L1058.89 66.11L1059 66.11L1059.11 66.12ZM1055.69 81.02L1055.37 81.34L1055.25 81.73L1055.37 82.12L1055.69 82.44L1056.17 82.65L1056.75 82.73L1057.33 82.65L1057.81 82.44L1058.13 82.12L1058.25 81.73L1058.13 81.34L1057.81 81.02L1057.33 80.81L1056.75 80.73L1056.17 80.81L1055.69 81.02ZM1031.46 81.02L1031.14 81.34L1031.02 81.73L1031.14 82.12L1031.46 82.44L1031.94 82.65L1032.52 82.73L1033.1 82.65L1033.58 82.44L1033.9 82.12L1034.02 81.73L1033.9 81.34L1033.58 81.02L1033.1 80.81L1032.52 80.73L1031.94 80.81L1031.46 81.02ZM1020.77 81.02L1020.45 81.34L1020.33 81.73L1020.45 82.12L1020.77 82.44L1021.25 82.65L1021.83 82.73L1022.41 82.65L1022.89 82.44L1023.21 82.12L1023.33 81.73L1023.21 81.34L1022.89 81.02L1022.41 80.81L1021.83 80.73L1021.25 80.81L1020.77 81.02ZM1043.15 81.02L1042.82 81.34L1042.71 81.73L1042.82 82.12L1043.15 82.44L1043.62 82.65L1044.21 82.73L1044.79 82.65L1045.27 82.44L1045.59 82.12L1045.71 81.73L1045.59 81.34L1045.27 81.02L1044.79 80.81L1044.21 80.73L1043.62 80.81L1043.15 81.02ZM1055.69 69.52L1055.37 69.84L1055.25 70.22L1055.37 70.61L1055.69 70.93L1056.17 71.15L1056.75 71.22L1057.33 71.15L1057.81 70.93L1058.13 70.61L1058.25 70.22L1058.13 69.84L1057.81 69.52L1057.33 69.3L1056.75 69.22L1056.17 69.3L1055.69 69.52ZM1031.46 69.52L1031.14 69.84L1031.02 70.22L1031.14 70.61L1031.46 70.93L1031.94 71.15L1032.52 71.22L1033.1 71.15L1033.58 70.93L1033.9 70.61L1034.02 70.22L1033.9 69.84L1033.58 69.52L1033.1 69.3L1032.52 69.22L1031.94 69.3L1031.46 69.52ZM1020.77 69.52L1020.45 69.84L1020.33 70.22L1020.45 70.61L1020.77 70.93L1021.25 71.15L1021.83 71.22L1022.41 71.15L1022.89 70.93L1023.21 70.61L1023.33 70.22L1023.21 69.84L1022.89 69.52L1022.41 69.3L1021.83 69.22L1021.25 69.3L1020.77 69.52ZM1043.15 69.52L1042.82 69.84L1042.71 70.22L1042.82 70.61L1043.15 70.93L1043.62 71.15L1044.21 71.22L1044.79 71.15L1045.27 70.93L1045.59 70.61L1045.71 70.22L1045.59 69.84L1045.27 69.52L1044.79 69.3L1044.21 69.22L1043.62 69.3L1043.15 69.52Z" id="d159b0HEXp"></path><path d="" id="g11SRU5Xv"></path></defs><g><g><g><g><use xlink:href="#bcw1IiXlG4" opacity="1" fill="#3c3c3c" fill-opacity="1"></use><g><use xlink:href="#bcw1IiXlG4" opacity="1" fill-opacity="0" stroke="#000000" stroke-width="1" stroke-opacity="1"></use></g></g><g><use xlink:href="#c1eE9bLWuu" opacity="1" fill="#3c3c3c" fill-opacity="1"></use><g><use xlink:href="#c1eE9bLWuu" opacity="1" fill-opacity="0" stroke="#000000" stroke-width="1" stroke-opacity="1"></use></g></g><g><use xlink:href="#arvoYwrEp" opacity="1" fill="#3c3c3c" fill-opacity="1"></use><g><use xlink:href="#arvoYwrEp" opacity="1" fill-opacity="0" stroke="#000000" stroke-width="1" stroke-opacity="1"></use></g></g><g><use xlink:href="#caffnQ8HCF" opacity="1" fill="#3c3c3c" fill-opacity="1"></use><g><use xlink:href="#caffnQ8HCF" opacity="1" fill-opacity="0" stroke="#000000" stroke-width="1" stroke-opacity="1"></use></g></g><g><use xlink:href="#a1tH0KXwJf" opacity="1" fill="#3c3c3c" fill-opacity="1"></use><g><use xlink:href="#a1tH0KXwJf" opacity="1" fill-opacity="0" stroke="#000000" stroke-width="1" stroke-opacity="1"></use></g></g><g><use xlink:href="#aWpqYCSI0" opacity="1" fill="#3c3c3c" fill-opacity="1"></use><g><use xlink:href="#aWpqYCSI0" opacity="1" fill-opacity="0" stroke="#000000" stroke-width="1" stroke-opacity="1"></use></g></g><g><use xlink:href="#fAqoh8bgY" opacity="1" fill="#3c3c3c" fill-opacity="1"></use><g><use xlink:href="#fAqoh8bgY" opacity="1" fill-opacity="0" stroke="#000000" stroke-width="1" stroke-opacity="1"></use></g></g><g><use xlink:href="#b1KisPD5I" opacity="1" fill="#3c3c3c" fill-opacity="1"></use><g><use xlink:href="#b1KisPD5I" opacity="1" fill-opacity="0" stroke="#000000" stroke-width="1" stroke-opacity="1"></use></g></g><g><use xlink:href="#b1F4pH5py" opacity="1" fill="#3c3c3c" fill-opacity="1"></use><g><use xlink:href="#b1F4pH5py" opacity="1" fill-opacity="0" stroke="#000000" stroke-width="1" stroke-opacity="1"></use></g></g><g><use xlink:href="#f3LDYwaNKx" opacity="1" fill="#3c3c3c" fill-opacity="1"></use><g><use xlink:href="#f3LDYwaNKx" opacity="1" fill-opacity="0" stroke="#000000" stroke-width="1" stroke-opacity="1"></use></g></g><g><use xlink:href="#d13WHZbKwV" opacity="1" fill="#3c3c3c" fill-opacity="1"></use><g><use xlink:href="#d13WHZbKwV" opacity="1" fill-opacity="0" stroke="#000000" stroke-width="1" stroke-opacity="1"></use></g></g><g><use xlink:href="#h18LsJDYLg" opacity="1" fill="#3c3c3c" fill-opacity="1"></use><g><use xlink:href="#h18LsJDYLg" opacity="1" fill-opacity="0" stroke="#000000" stroke-width="1" stroke-opacity="1"></use></g></g><g><use xlink:href="#baEc4qqMB" opacity="1" fill="#3c3c3c" fill-opacity="1"></use><g><use xlink:href="#baEc4qqMB" opacity="1" fill-opacity="0" stroke="#000000" stroke-width="1" stroke-opacity="1"></use></g></g></g><g><use xlink:href="#f3tksVBTRT" opacity="1" fill="#7d7c7c" fill-opacity="1"></use><g><use xlink:href="#f3tksVBTRT" opacity="1" fill-opacity="0" stroke="#000000" stroke-width="1" stroke-opacity="1"></use></g></g><g><g><use xlink:href="#a9jE8JHmy3" opacity="1" fill="#b4b4b4" fill-opacity="1"></use><g><use xlink:href="#a9jE8JHmy3" opacity="1" fill-opacity="0" stroke="#000000" stroke-width="1" stroke-opacity="1"></use></g></g><g><use xlink:href="#cfAzo4vne" opacity="1" fill="#b4b4b4" fill-opacity="1"></use><g><use xlink:href="#cfAzo4vne" opacity="1" fill-opacity="0" stroke="#000000" stroke-width="1" stroke-opacity="1"></use></g></g><g><use xlink:href="#aF6dbsVBP" opacity="1" fill="#b4b4b4" fill-opacity="1"></use><g><use xlink:href="#aF6dbsVBP" opacity="1" fill-opacity="0" stroke="#000000" stroke-width="1" stroke-opacity="1"></use></g></g><g><use xlink:href="#i2m9JXT38T" opacity="1" fill="#b4b4b4" fill-opacity="1"></use><g><use xlink:href="#i2m9JXT38T" opacity="1" fill-opacity="0" stroke="#000000" stroke-width="1" stroke-opacity="1"></use></g></g><g><use xlink:href="#iboC4y87lu" opacity="1" fill="#b4b4b4" fill-opacity="1"></use><g><use xlink:href="#iboC4y87lu" opacity="1" fill-opacity="0" stroke="#000000" stroke-width="1" stroke-opacity="1"></use></g></g><g><use xlink:href="#a5SnHqRV0A" opacity="1" fill="#b4b4b4" fill-opacity="1"></use><g><use xlink:href="#a5SnHqRV0A" opacity="1" fill-opacity="0" stroke="#000000" stroke-width="1" stroke-opacity="1"></use></g></g><g><use xlink:href="#d2xWbwkM8d" opacity="1" fill="#b4b4b4" fill-opacity="1"></use><g><use xlink:href="#d2xWbwkM8d" opacity="1" fill-opacity="0" stroke="#000000" stroke-width="1" stroke-opacity="1"></use></g></g><g><use xlink:href="#eKLuAJ6qW" opacity="1" fill="#b4b4b4" fill-opacity="1"></use><g><use xlink:href="#eKLuAJ6qW" opacity="1" fill-opacity="0" stroke="#000000" stroke-width="1" stroke-opacity="1"></use></g></g><g><use xlink:href="#b1XGFf7vQH" opacity="1" fill="#b4b4b4" fill-opacity="1"></use><g><use xlink:href="#b1XGFf7vQH" opacity="1" fill-opacity="0" stroke="#000000" stroke-width="1" stroke-opacity="1"></use></g></g><g><use xlink:href="#c2uXlaFllx" opacity="1" fill="#b4b4b4" fill-opacity="1"></use><g><use xlink:href="#c2uXlaFllx" opacity="1" fill-opacity="0" stroke="#000000" stroke-width="1" stroke-opacity="1"></use></g></g><g><use xlink:href="#b2xVT1USja" opacity="1" fill="#b4b4b4" fill-opacity="1"></use><g><use xlink:href="#b2xVT1USja" opacity="1" fill-opacity="0" stroke="#000000" stroke-width="1" stroke-opacity="1"></use></g></g><g><use xlink:href="#i4gg7x3Zi" opacity="1" fill="#b4b4b4" fill-opacity="1"></use><g><use xlink:href="#i4gg7x3Zi" opacity="1" fill-opacity="0" stroke="#000000" stroke-width="1" stroke-opacity="1"></use></g></g><g><use xlink:href="#b8wIYRnN2A" opacity="1" fill="#b4b4b4" fill-opacity="1"></use><g><use xlink:href="#b8wIYRnN2A" opacity="1" fill-opacity="0" stroke="#000000" stroke-width="1" stroke-opacity="1"></use></g></g><g><use xlink:href="#e15eGFoHh1" opacity="1" fill="#b4b4b4" fill-opacity="1"></use><g><use xlink:href="#e15eGFoHh1" opacity="1" fill-opacity="0" stroke="#000000" stroke-width="1" stroke-opacity="1"></use></g></g></g><g><use xlink:href="#f28Cdhq1Mx" opacity="1" fill="#969696" fill-opacity="1"></use><g><use xlink:href="#f28Cdhq1Mx" opacity="1" fill-opacity="0" stroke="#000000" stroke-width="1" stroke-opacity="1"></use></g></g><g><use xlink:href="#a1cKp1oFRB" opacity="1" fill="#bfbfbf" fill-opacity="1"></use></g><g><use xlink:href="#bjvVJ2K6Z" opacity="1" fill="#a5a5a5" fill-opacity="1"></use><g><use xlink:href="#bjvVJ2K6Z" opacity="1" fill-opacity="0" stroke="#060606" stroke-width="1" stroke-opacity="1"></use></g></g><g><use xlink:href="#dJH2tyeOQ" opacity="1" fill="#929292" fill-opacity="1"></use><g><use xlink:href="#dJH2tyeOQ" opacity="1" fill-opacity="0" stroke="#060606" stroke-width="1" stroke-opacity="1"></use></g></g><g><use xlink:href="#b3IP57Kv8g" opacity="1" fill="#7d7d7d" fill-opacity="1"></use><g><use xlink:href="#b3IP57Kv8g" opacity="1" fill-opacity="0" stroke="#060606" stroke-width="1" stroke-opacity="1"></use></g></g><g><use xlink:href="#f1JAGYljz9" opacity="1" fill="#7d7d7d" fill-opacity="1"></use><g><use xlink:href="#f1JAGYljz9" opacity="1" fill-opacity="0" stroke="#060606" stroke-width="1" stroke-opacity="1"></use></g></g><g><use xlink:href="#a1bvVCnpIP" opacity="1" fill="#5c5c5c" fill-opacity="1"></use><g><use xlink:href="#a1bvVCnpIP" opacity="1" fill-opacity="0" stroke="#060606" stroke-width="1" stroke-opacity="1"></use></g></g><g><use xlink:href="#bwJjAolLa" opacity="1" fill="#aaaaaa" fill-opacity="1"></use><g><use xlink:href="#bwJjAolLa" opacity="1" fill-opacity="0" stroke="#060606" stroke-width="1" stroke-opacity="1"></use></g></g><g><use xlink:href="#a1tk5wqfST" opacity="1" fill="#666666" fill-opacity="1"></use><g><use xlink:href="#a1tk5wqfST" opacity="1" fill-opacity="0" stroke="#000000" stroke-width="1" stroke-opacity="1"></use></g></g><g><use xlink:href="#d1lvRR9Upt" opacity="1" fill="#aaaaaa" fill-opacity="1"></use><g><use xlink:href="#d1lvRR9Upt" opacity="1" fill-opacity="0" stroke="#060606" stroke-width="1" stroke-opacity="1"></use></g></g><g><use xlink:href="#f4eCs62JzO" opacity="1" fill="#b4b4b4" fill-opacity="1"></use><g><use xlink:href="#f4eCs62JzO" opacity="1" fill-opacity="0" stroke="#060606" stroke-width="1" stroke-opacity="1"></use></g></g><g><use xlink:href="#a8HvotAKhT" opacity="1" fill="#666666" fill-opacity="1"></use><g><use xlink:href="#a8HvotAKhT" opacity="1" fill-opacity="0" stroke="#060606" stroke-width="1" stroke-opacity="1"></use></g></g><g><use xlink:href="#fg0NFpm2h" opacity="1" fill="#959595" fill-opacity="1"></use><g><use xlink:href="#fg0NFpm2h" opacity="1" fill-opacity="0" stroke="#000000" stroke-width="1" stroke-opacity="1"></use></g></g><g><use xlink:href="#b2nG9BfOb" opacity="1" fill="#959595" fill-opacity="1"></use><g><use xlink:href="#b2nG9BfOb" opacity="1" fill-opacity="0" stroke="#000000" stroke-width="1" stroke-opacity="1"></use></g></g><g><use xlink:href="#d9Lr3FeNa0" opacity="1" fill="#8a8a8a" fill-opacity="1"></use><g><use xlink:href="#d9Lr3FeNa0" opacity="1" fill-opacity="0" stroke="#060606" stroke-width="1" stroke-opacity="1"></use></g></g><g><use xlink:href="#bbtonlOzM" opacity="1" fill="#7e7e7e" fill-opacity="1"></use><g><use xlink:href="#bbtonlOzM" opacity="1" fill-opacity="0" stroke="#060606" stroke-width="1" stroke-opacity="1"></use></g></g><g><use xlink:href="#aw1i3JGI3" opacity="1" fill="#9f5122" fill-opacity="1"></use><g><use xlink:href="#aw1i3JGI3" opacity="1" fill-opacity="0" stroke="#000000" stroke-width="1" stroke-opacity="1"></use></g></g><g><use xlink:href="#a7mBZyjPts" opacity="1" fill="#7b7b7b" fill-opacity="1"></use><g><use xlink:href="#a7mBZyjPts" opacity="1" fill-opacity="0" stroke="#060606" stroke-width="1" stroke-opacity="1"></use></g></g><g><use xlink:href="#bNKEZvj3M" opacity="1" fill="#747474" fill-opacity="1"></use><g><use xlink:href="#bNKEZvj3M" opacity="1" fill-opacity="0" stroke="#060606" stroke-width="1" stroke-opacity="1"></use></g></g><g><use xlink:href="#d2dYcZ3cwj" opacity="1" fill="#000000" fill-opacity="0.16"></use><g><use xlink:href="#d2dYcZ3cwj" opacity="1" fill-opacity="0" stroke="#060606" stroke-width="1" stroke-opacity="1"></use></g></g><g><use xlink:href="#bec5JPfVo" opacity="1" fill="#999999" fill-opacity="1"></use><g><use xlink:href="#bec5JPfVo" opacity="1" fill-opacity="0" stroke="#000000" stroke-width="1" stroke-opacity="1"></use></g></g><g><use xlink:href="#b3zJYgI2qB" opacity="1" fill="#a4a4a4" fill-opacity="1"></use><g><use xlink:href="#b3zJYgI2qB" opacity="1" fill-opacity="0" stroke="#000000" stroke-width="1" stroke-opacity="1"></use></g></g><g><use xlink:href="#ardGzfjR2" opacity="1" fill="#909090" fill-opacity="1"></use><g><use xlink:href="#ardGzfjR2" opacity="1" fill-opacity="0" stroke="#000000" stroke-width="1" stroke-opacity="1"></use></g></g><g><use xlink:href="#d159b0HEXp" opacity="1" fill="#c3c3c3" fill-opacity="1"></use><g><use xlink:href="#d159b0HEXp" opacity="1" fill-opacity="0" stroke="#000000" stroke-width="1" stroke-opacity="1"></use></g></g><g><g><use xlink:href="#g11SRU5Xv" opacity="1" fill-opacity="0" stroke="#120f0f" stroke-width="1" stroke-opacity="1"></use></g></g></g></g></svg>