<?xml version="1.0" encoding="UTF-8" standalone="no"?>
<!DOCTYPE svg PUBLIC "-//W3C//DTD SVG 1.1//EN" "http://www.w3.org/Graphics/SVG/1.1/DTD/svg11.dtd">
<svg version="1.1" xmlns="http://www.w3.org/2000/svg" xmlns:xlink="http://www.w3.org/1999/xlink" preserveAspectRatio="xMidYMid meet" viewBox="0 0 800 650" width="800" height="650"><defs><path d="M524.17 152.33L524.17 135.2L521.37 135.2L521.43 152.33L524.17 152.33Z" id="aiyWeekjD"></path><path d="M174.3 624.73C174.12 623.42 173.1 622.38 171.79 622.19C166.2 621.38 154.08 619.62 149.1 618.9C145.61 618.4 142.07 618.41 138.59 618.95C133.95 619.66 122.31 621.45 116.93 622.28C116.01 622.42 115.29 623.15 115.17 624.06C115.04 625.03 114.89 626.15 114.77 627.05C114.64 628.01 115.39 628.87 116.36 628.87C128.06 628.87 161.47 628.87 173.2 628.87C174.08 628.87 174.75 628.1 174.63 627.23C174.51 626.29 174.41 625.56 174.3 624.73Z" id="c93h7vCkV"></path><path d="M312.73 241.82C311.87 248.87 311.33 253.27 311.12 255.03C310.63 259.02 313.36 262.68 317.32 263.36C318.69 263.6 322.12 264.18 327.6 265.12L324.96 267.43C320.01 266.41 316.92 265.77 315.69 265.51C311 264.54 307.89 260.09 308.58 255.35C308.81 253.83 309.36 250.04 310.25 243.97L312.73 241.82Z" id="b13R03VF4g"></path><path d="M153.83 157.07L278.08 157.07L278.08 171.9L153.83 171.9L153.83 157.07Z" id="df66oh1EC"></path><path d="M152.58 156.04L278.08 156.04L278.08 167.14L152.58 167.14L152.58 156.04Z" id="aDxTZjwf"></path><path d="M306.2 244.95C305.34 252 304.8 256.4 304.59 258.16C304.1 262.15 306.83 265.81 310.79 266.49C312.16 266.73 315.59 267.31 321.07 268.25L318.43 270.56C313.48 269.54 310.39 268.9 309.16 268.64C304.47 267.67 301.36 263.22 302.05 258.48C302.27 256.97 302.83 253.17 303.72 247.1L306.2 244.95Z" id="a82nor5L0"></path><path d="M214.24 174.22C504.73 174.22 686.29 174.22 758.92 174.22C760.41 174.22 761.62 175.43 761.62 176.93C761.62 178.7 761.62 180.98 761.62 182.66C761.62 184.41 760.21 185.82 758.46 185.82C685.9 185.82 504.49 185.82 214.24 185.82L214.24 174.22Z" id="e3q6lW6sh"></path><path d="M486.34 153.3L502.9 135.2L503.74 138.13L490.9 152.63L486.34 153.3Z" id="a1tY0WTIWj"></path><path d="M325.31 233.77C324.45 240.82 323.92 245.23 323.7 246.99C323.22 250.97 325.95 254.64 329.91 255.32C331.28 255.55 334.7 256.14 340.19 257.08L337.54 259.39C332.6 258.36 329.51 257.72 328.27 257.46C323.59 256.49 320.47 252.04 321.17 247.31C321.39 245.79 321.95 241.99 322.84 235.92L325.31 233.77Z" id="a2CvtsTQn"></path><path d="M501.69 195.5C533.13 195.5 552.77 195.5 560.63 195.5C565.41 195.5 569.28 191.62 569.28 186.85C569.28 182.96 569.28 181 569.28 177.38C569.28 171.87 564.81 167.4 559.31 167.4C553.27 167.4 538.17 167.4 514.02 167.4L514.02 174.22C537.82 174.22 552.69 174.22 558.64 174.22C561.34 174.22 563.54 176.42 563.54 179.12C563.54 181.22 563.54 181.34 563.54 183.12C563.54 186.7 560.64 189.6 557.06 189.6C549.68 189.6 531.22 189.6 501.69 189.6L501.69 195.5Z" id="aCNYuadr4"></path><path d="M569.49 151.54L569.58 151.55L569.66 151.55L569.75 151.56L569.84 151.57L569.92 151.57L570.01 151.58L570.1 151.59L570.18 151.61L570.27 151.62L570.35 151.64L570.44 151.65L570.52 151.67L570.61 151.69L570.69 151.71L570.78 151.73L570.86 151.75L570.94 151.77L571.03 151.8L571.11 151.82L571.19 151.85L571.27 151.88L571.35 151.91L571.44 151.94L571.52 151.97L571.6 152.01L571.68 152.04L571.75 152.08L571.83 152.11L571.91 152.15L571.99 152.19L572.07 152.23L572.14 152.27L572.22 152.31L572.29 152.36L572.37 152.4L572.44 152.45L572.52 152.5L572.59 152.54L595.01 167.69L595.1 167.75L595.19 167.82L595.27 167.88L595.35 167.95L595.43 168.01L595.51 168.08L595.59 168.16L595.66 168.23L595.73 168.3L595.8 168.38L595.87 168.46L595.94 168.54L596 168.62L596.06 168.7L596.12 168.78L596.18 168.87L596.24 168.96L596.29 169.04L596.34 169.13L596.39 169.22L596.44 169.32L596.48 169.41L596.53 169.5L596.57 169.6L596.6 169.69L596.64 169.79L596.67 169.89L596.7 169.98L596.73 170.08L596.76 170.18L596.78 170.28L596.81 170.39L596.82 170.49L596.84 170.59L596.86 170.7L596.87 170.8L596.88 170.9L596.88 171.01L596.89 171.11L596.89 171.22L596.89 187.8L596.89 187.87L596.88 187.95L596.87 188.02L596.86 188.09L596.85 188.16L596.84 188.23L596.82 188.3L596.8 188.37L596.77 188.44L596.75 188.5L596.72 188.56L596.69 188.63L596.65 188.69L596.62 188.75L596.58 188.81L596.54 188.86L596.5 188.92L596.45 188.97L596.41 189.02L596.36 189.07L596.31 189.12L596.26 189.17L596.21 189.21L596.15 189.25L596.09 189.29L596.04 189.33L595.98 189.37L595.91 189.4L595.85 189.43L595.79 189.46L595.72 189.49L595.66 189.51L595.59 189.53L595.52 189.55L595.45 189.56L595.38 189.58L595.31 189.59L595.23 189.6L595.16 189.6L595.09 189.6L144.66 189.6L144.59 189.6L144.51 189.6L144.44 189.59L144.37 189.58L144.3 189.56L144.23 189.55L144.16 189.53L144.09 189.51L144.03 189.49L143.96 189.46L143.9 189.43L143.83 189.4L143.77 189.37L143.71 189.33L143.65 189.29L143.6 189.25L143.54 189.21L143.49 189.17L143.44 189.12L143.39 189.07L143.34 189.02L143.29 188.97L143.25 188.92L143.21 188.86L143.17 188.81L143.13 188.75L143.09 188.69L143.06 188.63L143.03 188.56L143 188.5L142.97 188.44L142.95 188.37L142.93 188.3L142.91 188.23L142.9 188.16L142.88 188.09L142.87 188.02L142.87 187.95L142.86 187.87L142.86 187.8L142.86 154.07L142.86 153.96L142.87 153.86L142.88 153.76L142.89 153.66L142.91 153.56L142.93 153.46L142.96 153.36L142.99 153.27L143.02 153.17L143.06 153.08L143.1 152.99L143.14 152.91L143.19 152.82L143.24 152.74L143.29 152.65L143.35 152.58L143.4 152.5L143.47 152.42L143.53 152.35L143.6 152.28L143.67 152.21L143.74 152.15L143.82 152.09L143.89 152.03L143.97 151.97L144.05 151.92L144.14 151.87L144.22 151.82L144.31 151.78L144.4 151.74L144.49 151.7L144.58 151.67L144.68 151.64L144.78 151.62L144.87 151.59L144.97 151.58L145.07 151.56L145.18 151.55L145.28 151.54L145.38 151.54L569.31 151.54L569.4 151.54L569.49 151.54ZM539.96 157.99L539.59 158.02L539.18 158.13L538.82 158.31L538.49 158.55L538.22 158.83L537.99 159.15L537.82 159.51L537.72 159.89L537.67 160.29L537.7 160.69L537.81 161.1L537.99 161.5L548.89 180.45L549.1 180.79L549.34 181.1L549.61 181.39L549.9 181.66L550.21 181.89L550.53 182.1L550.88 182.28L551.24 182.43L551.61 182.55L551.99 182.64L552.39 182.69L552.79 182.71L553.24 182.67L553.66 182.55L554.04 182.36L554.37 182.11L554.65 181.82L554.88 181.48L555.05 181.11L555.16 180.71L555.2 180.3L555.16 179.88L555.04 179.46L554.84 179.05L543.18 159.87L542.99 159.59L542.77 159.32L542.54 159.08L542.29 158.86L542.03 158.66L541.74 158.49L541.45 158.34L541.14 158.21L540.82 158.11L540.49 158.04L540.16 158L539.96 157.99L540.02 157.98L539.82 157.98L539.96 157.99ZM526.49 157.99L526.12 158.02L525.72 158.13L525.36 158.31L525.03 158.55L524.76 158.83L524.53 159.15L524.36 159.51L524.25 159.89L524.21 160.29L524.24 160.69L524.34 161.1L524.53 161.5L535.42 180.45L535.64 180.79L535.88 181.1L536.15 181.39L536.43 181.66L536.74 181.89L537.07 182.1L537.42 182.28L537.78 182.43L538.15 182.55L538.53 182.64L538.93 182.69L539.33 182.71L539.78 182.67L540.2 182.55L540.57 182.36L540.91 182.11L541.19 181.82L541.42 181.48L541.59 181.11L541.7 180.71L541.73 180.3L541.7 179.88L541.58 179.46L541.38 179.05L529.71 159.87L529.52 159.59L529.31 159.32L529.08 159.08L528.83 158.86L528.56 158.66L528.28 158.49L527.99 158.34L527.68 158.21L527.36 158.11L527.03 158.04L526.7 158L526.49 157.99L526.56 157.98L526.36 157.98L526.49 157.99ZM554.04 157.99L553.67 158.02L553.27 158.13L552.9 158.31L552.58 158.55L552.3 158.83L552.07 159.15L551.91 159.51L551.8 159.89L551.76 160.29L551.78 160.69L551.89 161.1L552.07 161.5L562.97 180.45L563.18 180.79L563.42 181.1L563.69 181.39L563.98 181.66L564.29 181.89L564.62 182.1L564.96 182.28L565.32 182.43L565.69 182.55L566.08 182.64L566.47 182.69L566.87 182.71L567.32 182.67L567.74 182.55L568.12 182.36L568.45 182.11L568.74 181.82L568.97 181.48L569.14 181.11L569.24 180.71L569.28 180.3L569.24 179.88L569.12 179.46L568.92 179.05L557.26 159.87L557.07 159.59L556.86 159.32L556.63 159.08L556.38 158.86L556.11 158.66L555.83 158.49L555.53 158.34L555.22 158.21L554.9 158.11L554.58 158.04L554.24 158L554.04 157.99L554.1 157.98L553.9 157.98L554.04 157.99ZM162.31 159.65L162.09 159.67L161.87 159.69L161.66 159.72L161.44 159.76L161.24 159.81L161.03 159.86L160.83 159.92L160.63 159.99L160.43 160.07L160.24 160.16L160.06 160.25L159.87 160.35L159.69 160.46L159.52 160.57L159.35 160.69L159.19 160.81L159.03 160.94L158.87 161.08L158.72 161.23L158.58 161.37L158.44 161.53L158.31 161.69L158.18 161.85L158.07 162.02L157.95 162.2L157.85 162.37L157.75 162.56L157.65 162.75L157.57 162.94L157.49 163.13L157.42 163.33L157.36 163.53L157.3 163.74L157.26 163.95L157.22 164.16L157.19 164.37L157.16 164.59L157.15 164.81L157.15 165.03L157.15 165.26L157.16 165.49L157.19 165.71L157.22 165.93L157.26 166.15L157.31 166.36L157.36 166.57L157.43 166.78L157.5 166.99L157.58 167.19L157.67 167.39L157.76 167.58L157.87 167.77L157.98 167.95L158.09 168.13L158.21 168.3L158.34 168.47L158.48 168.64L158.62 168.8L158.77 168.95L158.92 169.1L159.08 169.24L159.24 169.37L159.41 169.5L159.59 169.63L159.77 169.74L159.95 169.85L160.14 169.95L160.33 170.05L160.53 170.14L160.73 170.22L160.93 170.29L161.14 170.35L161.35 170.41L161.57 170.46L161.79 170.5L162.01 170.53L162.23 170.55L162.46 170.57L162.69 170.57L264.31 170.57L264.53 170.57L264.75 170.55L264.97 170.53L265.19 170.5L265.4 170.46L265.61 170.41L265.82 170.36L266.02 170.3L266.22 170.22L266.42 170.15L266.61 170.06L266.8 169.97L266.98 169.87L267.16 169.76L267.34 169.65L267.51 169.53L267.68 169.4L267.84 169.27L267.99 169.13L268.14 168.98L268.29 168.83L268.43 168.68L268.56 168.52L268.69 168.35L268.81 168.18L268.92 168L269.03 167.82L269.13 167.64L269.22 167.45L269.31 167.26L269.38 167.06L269.46 166.86L269.52 166.66L269.57 166.45L269.62 166.24L269.66 166.03L269.69 165.81L269.71 165.59L269.73 165.37L269.73 165.15L269.73 164.92L269.71 164.7L269.69 164.47L269.66 164.26L269.62 164.04L269.57 163.83L269.52 163.62L269.45 163.41L269.38 163.21L269.3 163.01L269.21 162.81L269.12 162.62L269.02 162.43L268.91 162.25L268.79 162.07L268.67 161.9L268.54 161.73L268.41 161.57L268.27 161.41L268.12 161.26L267.97 161.11L267.81 160.97L267.65 160.84L267.48 160.71L267.31 160.59L267.13 160.47L266.95 160.36L266.76 160.26L266.57 160.17L266.37 160.08L266.17 160L265.97 159.93L265.76 159.86L265.55 159.81L265.34 159.76L265.12 159.72L264.91 159.69L264.68 159.67L264.46 159.65L264.23 159.65L162.53 159.65L162.31 159.65Z" id="l1Sal8Glgp"></path><path d="M90.59 175.77L90.59 178.82C84.27 178.82 80.33 178.82 78.75 178.82C78.65 178.82 78.58 178.74 78.58 178.64C78.58 178.07 78.58 176.95 78.58 176.48C78.58 176.09 78.89 175.77 79.28 175.77C80.79 175.77 84.56 175.77 90.59 175.77Z" id="c1grcA2VeX"></path><path d="M489.75 207.83L502.09 222.66L502.09 219L493.09 207.83L489.75 207.83Z" id="b1r14Hvkg"></path><path d="M319.26 237.67C318.4 244.72 317.86 249.12 317.65 250.88C317.16 254.87 319.89 258.53 323.85 259.21C325.22 259.45 328.65 260.03 334.13 260.97L331.49 263.28C326.55 262.26 323.45 261.62 322.22 261.36C317.54 260.39 314.42 255.94 315.11 251.2C315.34 249.68 315.89 245.89 316.78 239.82L319.26 237.67Z" id="a6sNzVv1C8"></path><path d="M221.48 271.73L221.37 271.73L221.27 271.72L221.16 271.71L221.06 271.7L220.96 271.68L220.86 271.66L220.76 271.64L220.66 271.61L220.56 271.57L220.47 271.54L220.37 271.5L220.28 271.45L220.19 271.41L220.1 271.36L220.01 271.31L219.93 271.25L219.84 271.19L219.76 271.13L219.68 271.06L219.61 270.99L219.53 270.92L219.46 270.84L219.39 270.76L219.33 270.68L194.35 238.63L194.29 238.56L194.24 238.49L194.19 238.41L194.14 238.33L194.09 238.25L194.05 238.17L194.01 238.09L193.96 238.01L193.93 237.92L193.89 237.84L193.86 237.76L193.83 237.67L193.8 237.58L193.77 237.49L193.75 237.41L193.73 237.32L193.71 237.23L193.69 237.14L193.68 237.05L193.67 236.95L193.66 236.86L193.65 236.77L193.65 236.68L193.65 236.59L193.65 233.73L224.65 233.73L224.65 271.73L221.48 271.73ZM215.57 250.47L214.7 251.34L214.13 252.44L213.93 253.7L214.13 254.96L214.7 256.06L215.57 256.93L216.66 257.5L217.93 257.7L219.19 257.5L220.29 256.93L221.16 256.06L221.72 254.96L221.93 253.7L221.72 252.44L221.16 251.34L220.29 250.47L219.19 249.9L217.93 249.7L216.66 249.9L215.57 250.47ZM204.38 236.7L203.51 237.57L202.94 238.66L202.74 239.93L202.94 241.19L203.51 242.29L204.38 243.15L205.48 243.72L206.74 243.93L208 243.72L209.1 243.15L209.97 242.29L210.54 241.19L210.74 239.93L210.54 238.66L209.97 237.57L209.1 236.7L208 236.13L206.74 235.93L205.48 236.13L204.38 236.7Z" id="b1fKb4qCx2"></path><path d="M82.08 178.82C81.43 180.05 81.03 180.83 80.87 181.14C79.81 183.16 79.7 185.55 80.56 187.66C81.1 188.98 81.89 190.91 82.56 192.56C82.65 192.77 82.35 192.93 82.23 192.74C81.09 191.06 79.47 188.65 78.53 187.25C77.31 185.44 77.14 183.12 78.08 181.15C78.23 180.84 78.61 180.06 79.21 178.82L82.08 178.82Z" id="b3iiVwSdoF"></path><path d="M216.73 234.95C216.17 234.21 215.29 233.77 214.36 233.77C188.91 233.77 115.09 233.77 89.9 233.77C88.37 233.77 87.12 232.53 87.12 230.99C87.12 214.76 87.12 169.5 87.12 153.43C87.12 151.44 88.73 149.83 90.73 149.83C102.05 149.83 132.43 149.83 143.76 149.83C145.75 149.83 147.36 151.44 147.36 153.43C147.36 158.66 147.36 167.85 147.36 172.35C147.36 176.34 150.59 179.56 154.57 179.56C228.33 179.56 445.27 179.56 519.75 179.56C521.74 179.56 523.36 181.18 523.36 183.17C523.36 188.57 523.36 202.12 523.36 207.75C523.36 209.08 522.28 210.16 520.95 210.16C508.65 210.16 480.39 210.16 469.65 210.16C463.13 210.16 456.89 212.82 452.37 217.52C447.02 223.08 440.73 229.63 436.06 234.5C429.88 240.92 420.2 242.46 412.34 238.28C403.51 233.57 387.12 224.85 377.49 219.72C371.75 216.66 364.81 216.92 359.31 220.4C346.16 228.72 314.95 248.49 301.64 256.92C296.63 260.09 293.59 265.62 293.59 271.55C293.59 277.57 293.59 291.97 293.59 299.46C293.59 300.65 292.62 301.62 291.42 301.62C278.09 301.62 240.45 301.62 227.16 301.62C225.83 301.62 224.76 300.55 224.75 299.22C224.73 288.45 224.67 258.02 224.65 247.12C224.65 245.97 224.27 244.86 223.58 243.95C222.03 241.92 218.31 237.03 216.73 234.95Z" id="b3AU8dNBnm"></path><path d="M424.5 210.18L425.04 210.2L425.58 210.24L426.13 210.28L426.67 210.34L427.21 210.4L427.76 210.48L428.3 210.56L428.84 210.66L430.82 211.02L431.42 211.14L432.02 211.27L432.61 211.41L433.2 211.57L433.79 211.74L434.37 211.92L434.94 212.11L435.51 212.31L436.08 212.52L436.64 212.75L437.19 212.99L437.74 213.24L438.28 213.5L438.82 213.77L439.35 214.05L439.87 214.34L440.39 214.65L440.9 214.96L441.4 215.29L441.9 215.62L442.39 215.97L442.88 216.32L443.35 216.69L443.82 217.06L444.28 217.45L444.73 217.85L445.18 218.25L445.61 218.66L446.04 219.09L446.46 219.52L446.87 219.96L447.27 220.42L447.66 220.88L448.05 221.35L448.42 221.82L448.78 222.31L449.14 222.8L449.48 223.31L449.82 223.82L450.14 224.34L463.23 245.85L463.79 246.78L464.34 247.72L464.87 248.66L465.39 249.6L465.89 250.56L466.39 251.51L466.87 252.48L467.34 253.45L467.8 254.42L468.24 255.4L468.67 256.39L469.09 257.38L469.5 258.37L469.89 259.37L470.27 260.38L470.63 261.39L470.99 262.4L471.33 263.42L471.66 264.44L471.97 265.47L472.27 266.5L472.56 267.54L472.84 268.57L473.1 269.62L473.35 270.66L473.59 271.71L473.81 272.76L474.02 273.81L474.21 274.87L474.39 275.93L474.56 277L474.72 278.06L474.86 279.13L474.99 280.2L475.1 281.27L475.2 282.35L475.29 283.42L475.36 284.5L475.42 285.58L475.47 286.66L476.43 313.67L476.48 315.2L476.5 316.73L476.5 318.26L476.48 319.79L476.43 321.32L476.37 322.84L476.28 324.36L476.18 325.88L476.05 327.4L475.9 328.92L475.73 330.43L475.53 331.94L475.32 333.44L475.08 334.94L474.83 336.44L474.55 337.93L474.25 339.42L473.94 340.91L473.6 342.39L473.24 343.86L472.85 345.33L472.45 346.79L472.03 348.25L471.59 349.71L471.12 351.15L470.64 352.59L470.14 354.03L469.61 355.45L469.07 356.87L468.5 358.28L467.92 359.69L467.31 361.09L466.69 362.48L466.04 363.86L465.38 365.23L464.69 366.6L463.99 367.95L463.26 369.3L462.52 370.64L461.75 371.97L448.1 395.32L447.76 395.9L447.41 396.48L447.05 397.05L446.69 397.62L446.33 398.18L445.96 398.74L445.58 399.3L445.2 399.85L444.81 400.4L444.42 400.94L444.02 401.48L443.61 402.01L443.2 402.54L442.79 403.07L442.37 403.59L441.94 404.11L441.51 404.62L441.07 405.13L440.63 405.64L440.19 406.14L439.74 406.63L439.28 407.12L438.82 407.61L438.35 408.09L437.88 408.56L437.4 409.04L436.92 409.5L436.44 409.96L435.94 410.42L435.45 410.87L434.95 411.32L434.44 411.76L433.93 412.2L433.42 412.63L432.9 413.06L432.38 413.48L431.85 413.89L431.31 414.3L430.78 414.71L430.24 415.11L161.98 611.17L161.8 611.3L161.64 611.44L161.48 611.59L161.34 611.74L161.2 611.89L161.07 612.06L160.95 612.22L160.84 612.4L160.74 612.57L160.65 612.75L160.57 612.93L160.49 613.12L160.43 613.31L160.37 613.5L160.32 613.69L160.29 613.89L160.26 614.08L160.24 614.28L160.23 614.48L160.22 614.67L160.23 614.87L160.25 615.07L160.27 615.26L160.31 615.46L160.35 615.65L160.4 615.84L160.46 616.03L160.53 616.22L160.61 616.4L160.7 616.58L160.79 616.76L160.9 616.94L161.01 617.1L161.14 617.27L161.27 617.43L161.41 617.58L161.56 617.73L161.72 617.87L161.89 618.01L162.06 618.14L165.21 620.32L165.25 620.35L165.29 620.39L165.32 620.42L165.36 620.46L165.39 620.5L165.41 620.54L165.43 620.58L165.45 620.62L165.47 620.66L165.48 620.71L165.49 620.75L165.49 620.79L165.5 620.84L165.5 620.88L165.49 620.93L165.49 620.97L165.48 621.01L165.47 621.05L165.45 621.1L165.44 621.14L165.42 621.18L165.4 621.21L165.37 621.25L165.35 621.29L165.32 621.32L165.29 621.35L165.26 621.38L165.22 621.41L165.19 621.44L165.15 621.46L165.11 621.48L165.07 621.5L165.02 621.51L164.98 621.52L164.93 621.53L164.88 621.54L164.83 621.54L164.78 621.53L164.73 621.53L164.68 621.52L160.84 620.65L160.66 620.61L160.47 620.57L160.29 620.53L160.1 620.49L159.92 620.45L159.73 620.42L159.54 620.38L159.36 620.35L159.17 620.31L158.98 620.28L158.79 620.25L158.61 620.22L158.42 620.19L158.23 620.17L158.04 620.14L157.86 620.11L157.67 620.09L157.48 620.06L157.29 620.04L157.1 620.02L156.91 620L156.73 619.98L156.54 619.96L156.35 619.94L156.16 619.93L155.97 619.91L155.78 619.9L155.59 619.88L155.4 619.87L155.21 619.86L155.02 619.85L154.83 619.84L154.64 619.83L154.45 619.83L154.26 619.82L154.07 619.82L153.88 619.81L153.69 619.81L153.5 619.81L153.31 619.81L134.56 619.81L134.4 619.81L134.23 619.81L134.07 619.81L133.91 619.82L133.75 619.82L133.59 619.82L133.43 619.83L133.27 619.84L133.11 619.84L132.94 619.85L132.78 619.86L132.62 619.87L132.46 619.88L132.3 619.89L132.14 619.91L131.98 619.92L131.82 619.94L131.66 619.95L131.5 619.97L131.34 619.98L131.18 620L131.02 620.02L130.86 620.04L130.7 620.06L130.54 620.08L130.38 620.11L130.22 620.13L130.06 620.15L129.9 620.18L129.74 620.2L129.58 620.23L129.43 620.26L129.27 620.29L129.11 620.32L128.95 620.35L128.79 620.38L128.63 620.41L128.48 620.44L128.32 620.48L128.16 620.51L126.13 620.96L126.08 620.97L126.02 620.98L125.97 620.98L125.92 620.98L125.87 620.97L125.82 620.96L125.77 620.95L125.73 620.94L125.68 620.92L125.64 620.9L125.6 620.87L125.56 620.85L125.53 620.82L125.5 620.79L125.46 620.75L125.43 620.72L125.41 620.68L125.38 620.64L125.36 620.6L125.34 620.56L125.32 620.52L125.31 620.48L125.3 620.43L125.29 620.39L125.28 620.34L125.28 620.3L125.28 620.25L125.28 620.2L125.29 620.16L125.3 620.11L125.31 620.07L125.32 620.02L125.34 619.98L125.37 619.94L125.39 619.89L125.42 619.85L125.45 619.81L125.49 619.78L125.53 619.74L125.58 619.71L128.92 617.36L133.46 613.65L301.15 456.01L301.77 455.43L302.38 454.84L302.99 454.25L303.6 453.65L304.2 453.04L304.79 452.44L305.38 451.83L305.97 451.21L306.55 450.59L307.13 449.97L307.7 449.34L308.26 448.71L308.83 448.07L309.38 447.43L309.94 446.78L310.48 446.14L311.03 445.48L311.57 444.83L312.1 444.16L312.63 443.5L313.15 442.83L313.67 442.16L314.18 441.48L314.69 440.8L315.19 440.12L315.69 439.43L316.18 438.74L316.67 438.05L317.16 437.35L317.63 436.64L318.11 435.94L318.57 435.23L319.04 434.52L319.49 433.8L319.94 433.08L320.39 432.36L320.83 431.63L321.27 430.9L321.7 430.16L322.12 429.43L337.87 401.88L338.49 400.78L339.07 399.66L339.63 398.53L340.15 397.39L340.65 396.24L341.12 395.08L341.56 393.91L341.97 392.74L342.35 391.55L342.7 390.36L343.02 389.17L343.31 387.96L343.57 386.75L343.81 385.54L344.01 384.32L344.18 383.1L344.33 381.88L344.44 380.65L344.53 379.42L344.58 378.19L344.61 376.96L344.6 375.73L344.57 374.5L344.5 373.26L344.41 372.03L344.29 370.81L344.13 369.58L343.95 368.36L343.74 367.14L343.5 365.92L343.22 364.71L342.92 363.51L342.59 362.31L342.23 361.11L341.84 359.92L341.41 358.75L340.96 357.57L340.48 356.41L339.97 355.26L339.43 354.11L300.22 273.8L300.12 273.58L300.02 273.36L299.94 273.14L299.87 272.92L299.8 272.7L299.74 272.47L299.69 272.25L299.65 272.02L299.62 271.8L299.6 271.57L299.58 271.34L299.57 271.11L299.57 270.89L299.58 270.66L299.6 270.44L299.62 270.21L299.66 269.99L299.7 269.77L299.74 269.55L299.8 269.33L299.86 269.12L299.94 268.9L300.01 268.69L300.1 268.48L300.19 268.28L300.29 268.08L300.4 267.88L300.52 267.68L300.64 267.49L300.77 267.3L300.91 267.12L301.05 266.94L301.2 266.77L301.36 266.6L301.52 266.44L301.69 266.28L301.87 266.13L302.06 265.98L302.25 265.84L302.45 265.7L329.16 248.24L329.24 248.18L329.33 248.13L329.41 248.08L329.5 248.04L329.58 247.99L329.67 247.95L329.76 247.91L329.85 247.87L329.94 247.83L330.03 247.8L330.12 247.77L330.21 247.73L330.3 247.71L330.4 247.68L330.49 247.65L330.58 247.63L330.68 247.61L330.77 247.59L330.86 247.57L330.96 247.56L331.05 247.55L331.15 247.54L331.25 247.53L331.34 247.52L331.44 247.52L331.53 247.52L331.63 247.52L331.73 247.52L331.82 247.52L331.92 247.53L332.02 247.54L332.11 247.55L332.21 247.56L332.31 247.58L332.4 247.59L332.5 247.61L332.59 247.63L332.69 247.66L332.78 247.68L332.88 247.71L337.51 249.13L337.94 249.26L338.38 249.37L338.81 249.48L339.24 249.58L339.68 249.67L340.11 249.75L340.55 249.82L340.99 249.88L341.43 249.93L341.87 249.97L342.31 250L342.75 250.03L343.19 250.04L343.63 250.05L344.07 250.04L344.51 250.03L344.94 250.01L345.38 249.98L345.82 249.93L346.26 249.88L346.69 249.83L347.12 249.76L347.56 249.68L347.99 249.59L348.42 249.5L348.84 249.39L349.27 249.28L349.69 249.16L350.11 249.03L350.53 248.89L350.94 248.74L351.36 248.58L351.77 248.41L352.17 248.23L352.58 248.05L352.98 247.86L353.37 247.65L353.77 247.44L354.15 247.22L354.54 246.99L407.93 214.5L408.4 214.22L408.88 213.95L409.36 213.68L409.84 213.43L410.33 213.19L410.82 212.95L411.32 212.72L411.82 212.51L412.32 212.3L412.83 212.1L413.34 211.92L413.85 211.74L414.36 211.57L414.88 211.41L415.4 211.26L415.92 211.12L416.44 210.99L416.97 210.86L417.5 210.75L418.03 210.65L418.56 210.56L419.1 210.47L419.63 210.4L420.17 210.34L420.71 210.28L421.25 210.24L421.79 210.2L422.33 210.18L422.87 210.16L423.41 210.16L423.95 210.16L424.5 210.18ZM447.44 326.59L447.21 326.6L446.98 326.63L446.76 326.66L446.54 326.7L446.31 326.74L446.1 326.79L445.88 326.85L445.66 326.91L445.45 326.98L445.24 327.05L445.04 327.14L444.83 327.22L444.63 327.32L444.43 327.42L444.24 327.52L444.04 327.63L443.86 327.75L443.67 327.87L443.49 327.99L443.31 328.13L443.14 328.26L442.97 328.41L442.8 328.55L442.64 328.71L442.48 328.86L442.33 329.02L442.18 329.19L442.04 329.36L441.9 329.54L441.77 329.72L441.64 329.9L441.52 330.09L441.4 330.29L441.29 330.48L441.18 330.68L441.08 330.89L440.98 331.1L440.89 331.31L426.11 368.22L425.37 370L424.59 371.76L423.78 373.5L422.93 375.21L422.04 376.9L421.11 378.57L420.15 380.21L419.15 381.82L418.12 383.41L417.05 384.98L415.95 386.52L414.81 388.03L413.64 389.51L412.44 390.96L411.21 392.39L409.95 393.79L408.66 395.16L407.33 396.49L405.98 397.8L404.6 399.08L403.19 400.32L401.75 401.54L400.28 402.72L398.79 403.86L397.27 404.98L395.73 406.06L394.16 407.1L392.56 408.11L390.94 409.09L389.3 410.03L387.64 410.93L385.95 411.79L384.24 412.62L382.51 413.41L380.76 414.16L378.99 414.88L377.2 415.55L375.38 416.18L373.56 416.78L371.71 417.33L365.71 419.05L365.48 419.12L365.25 419.2L365.03 419.28L364.82 419.38L364.61 419.48L364.41 419.59L364.21 419.71L364.02 419.83L363.83 419.96L363.65 420.1L363.48 420.24L363.31 420.39L363.15 420.55L362.99 420.71L362.84 420.87L362.7 421.05L362.56 421.22L362.43 421.41L362.31 421.59L362.19 421.78L362.09 421.98L361.98 422.18L361.89 422.38L361.8 422.59L361.73 422.8L361.66 423.01L361.59 423.23L361.54 423.44L361.49 423.67L361.45 423.89L361.43 424.11L361.4 424.34L361.39 424.57L361.39 424.8L361.4 425.03L361.41 425.26L361.43 425.49L361.47 425.73L361.51 425.96L361.56 426.19L361.63 426.43L361.7 426.67L361.78 426.9L361.87 427.13L361.97 427.35L362.08 427.56L362.2 427.77L362.32 427.98L362.45 428.17L362.59 428.36L362.74 428.55L362.89 428.73L363.05 428.9L363.21 429.07L363.38 429.23L363.56 429.38L363.74 429.52L363.93 429.66L364.12 429.79L364.32 429.91L364.52 430.03L364.72 430.14L364.93 430.24L365.15 430.33L365.37 430.41L365.59 430.49L365.81 430.55L366.04 430.61L366.27 430.66L366.5 430.7L366.73 430.73L366.97 430.75L367.21 430.76L367.45 430.76L367.69 430.76L367.93 430.74L368.17 430.71L368.41 430.68L368.66 430.63L368.9 430.57L372.83 429.56L375.09 428.94L377.33 428.27L379.55 427.55L381.74 426.78L383.91 425.96L386.06 425.09L388.18 424.17L390.27 423.2L392.34 422.19L394.37 421.12L396.38 420.01L398.36 418.86L400.31 417.66L402.23 416.41L404.12 415.12L405.98 413.79L407.8 412.41L409.59 410.99L411.35 409.53L413.07 408.03L414.75 406.49L416.4 404.91L418.01 403.29L419.58 401.64L421.12 399.94L422.61 398.21L424.06 396.44L425.48 394.64L426.85 392.8L428.18 390.93L429.46 389.02L430.71 387.08L431.9 385.11L433.06 383.11L434.16 381.08L435.22 379.01L436.23 376.92L437.2 374.8L438.11 372.65L438.98 370.47L452.97 333.94L453.06 333.68L453.14 333.41L453.21 333.14L453.26 332.87L453.3 332.61L453.32 332.34L453.33 332.08L453.33 331.81L453.31 331.55L453.29 331.29L453.25 331.04L453.19 330.78L453.13 330.54L453.05 330.29L452.97 330.05L452.87 329.81L452.76 329.58L452.64 329.36L452.51 329.14L452.37 328.93L452.22 328.72L452.06 328.52L451.9 328.33L451.72 328.14L451.53 327.97L451.34 327.8L451.14 327.64L450.93 327.49L450.71 327.35L450.49 327.22L450.26 327.11L450.02 327L449.77 326.9L449.52 326.82L449.26 326.74L449 326.68L448.73 326.63L448.46 326.6L448.18 326.58L447.9 326.57L447.67 326.58L447.44 326.59Z" id="a927kqGb5W"></path><path d="M389.32 406.32C391.92 413.58 396.16 420.14 401.71 425.49C406.26 429.87 411.36 434.79 415.89 439.15C415.89 439.15 432.72 456.06 432.72 456.06C443.26 467.1 466.98 491.95 477.6 503.08C482.12 507.82 489.37 508.65 494.85 505.07C496.83 503.77 493.7 505.82 495.78 504.46C500.47 501.39 501.27 494.83 497.46 490.72C488.24 480.79 467.96 458.93 458.77 449.01C453.87 443.73 449.62 437.88 446.11 431.58C444.31 428.34 443.11 426.18 441.04 422.46C438.41 417.75 436.14 412.85 434.22 407.81C432.28 402.67 429.66 395.77 427.8 390.87C425.65 385.19 421.7 380.38 416.55 377.17C414.74 376.03 418.14 378.16 416.55 377.17C410.57 373.43 405.39 368.54 401.3 362.79C392.34 350.17 371.32 320.57 362.28 307.83C358.58 302.62 353.01 299.02 346.73 297.8C344.78 297.41 348.22 298.09 346.14 297.68C341.1 296.7 336.24 300.04 335.35 305.09C335.16 306.14 335.84 302.31 335.55 303.92C334.82 308.05 335.63 312.3 337.83 315.88C346.98 330.77 369.52 367.44 378.29 381.72C381.81 387.45 384.73 393.52 387 399.85C388.25 403.35 388.17 403.12 389.32 406.32Z" id="b1PCUlvX4B"></path><path d="M432.29 223.17C432.29 228.45 428.01 232.73 422.73 232.73C417.46 232.73 413.18 228.45 413.18 223.17C413.18 217.9 417.46 213.62 422.73 213.62C428.01 213.62 432.29 217.9 432.29 223.17Z" id="b35071yHkq"></path><path d="M422.73 218.37L422.73 214.77" id="gr1ZHXYI"></path><path d="M422.73 231.63L422.73 228.03" id="a5XLBks5f"></path><path d="M427.56 223.2L431.17 223.2" id="cy8gfj8Xc"></path><path d="M414.3 223.2L417.91 223.2" id="bTi8nlMeI"></path><path d="M426.15 226.61L428.7 229.16" id="d9FmtboCY"></path><path d="M416.77 217.24L419.32 219.78" id="c4ozWe89j"></path><path d="M419.32 226.61L416.77 229.16" id="dpP9nan7l"></path><path d="M428.7 217.24L426.15 219.78" id="bDiUb7hQA"></path><path d="M424.39 207.13L418.79 238.86L421.08 239.27L426.68 207.53L424.39 207.13Z" id="a1aGEqSUDt"></path><path d="M438.8 224.85L407.07 219.26L406.67 221.54L438.4 227.14L438.8 224.85Z" id="b2za9xAbv9"></path><path d="M425.87 223.75C425.57 225.48 423.91 226.64 422.18 226.34C420.45 226.03 419.29 224.38 419.6 222.65C419.9 220.91 421.56 219.76 423.29 220.06C425.02 220.37 426.18 222.02 425.87 223.75Z" id="epHHmRJQK"></path><path d="M426.05 204.37L427.39 204.66L428.68 205.03L429.93 205.49L431.13 206.02L432.29 206.64L433.39 207.32L434.43 208.08L435.42 208.9L436.35 209.78L437.22 210.72L438.02 211.72L438.75 212.77L439.41 213.86L440 214.99L440.51 216.17L440.94 217.38L441.3 218.62L441.57 219.89L441.75 221.18L441.84 222.49L441.84 223.82L441.75 225.17L441.56 226.52L441.28 227.85L440.9 229.15L440.45 230.4L439.91 231.6L439.3 232.75L438.61 233.85L437.85 234.9L437.03 235.89L436.15 236.81L435.21 237.68L434.21 238.48L433.17 239.21L432.08 239.87L430.94 240.46L429.77 240.97L428.56 241.41L427.32 241.76L426.05 242.03L424.75 242.21L423.44 242.31L422.11 242.31L420.77 242.21L419.41 242.02L418.08 241.74L416.79 241.37L415.54 240.91L414.33 240.37L413.18 239.76L412.08 239.07L411.04 238.32L410.05 237.5L409.12 236.61L408.25 235.67L407.45 234.68L406.72 233.63L406.06 232.54L405.47 231.41L404.96 230.23L404.53 229.02L404.17 227.78L403.9 226.51L403.72 225.22L403.63 223.9L403.63 222.57L403.72 221.23L403.91 219.88L404.19 218.54L404.56 217.25L405.02 216L405.56 214.8L406.17 213.65L406.86 212.55L407.61 211.5L408.44 210.51L409.32 209.58L410.26 208.72L411.26 207.92L412.3 207.19L413.39 206.52L414.53 205.94L415.7 205.42L416.91 204.99L418.15 204.64L419.42 204.37L420.72 204.19L422.03 204.09L423.36 204.09L424.7 204.18L426.05 204.37ZM420.14 207.48L418.86 207.74L417.61 208.11L416.41 208.58L415.24 209.14L414.13 209.79L413.08 210.53L412.09 211.35L411.16 212.25L410.31 213.23L409.54 214.27L408.85 215.39L408.25 216.56L407.74 217.8L407.34 219.09L407.05 220.43L406.87 221.8L406.8 223.15L406.85 224.48L407.01 225.79L407.28 227.07L407.65 228.32L408.12 229.53L408.68 230.69L409.33 231.8L410.07 232.85L410.89 233.85L411.79 234.77L412.76 235.62L413.81 236.4L414.92 237.09L416.1 237.68L417.33 238.19L418.63 238.59L419.97 238.89L421.33 239.07L422.68 239.13L424.02 239.08L425.33 238.92L426.61 238.65L427.85 238.28L429.06 237.82L430.22 237.26L431.34 236.6L432.39 235.87L433.38 235.04L434.31 234.14L435.16 233.17L435.93 232.12L436.62 231.01L437.22 229.83L437.72 228.6L438.13 227.31L438.42 225.97L438.6 224.6L438.67 223.25L438.62 221.92L438.46 220.61L438.19 219.33L437.82 218.08L437.35 216.87L436.79 215.71L436.14 214.6L435.4 213.54L434.58 212.55L433.68 211.63L432.71 210.77L431.66 210L430.55 209.31L429.37 208.71L428.13 208.21L426.84 207.81L425.5 207.51L424.14 207.33L422.79 207.27L421.45 207.32L420.14 207.48Z" id="aetJi2KfC"></path><path d="M441.12 213.58C440.78 215.48 438.97 216.75 437.06 216.42C435.16 216.08 433.89 214.26 434.22 212.36C434.56 210.46 436.38 209.19 438.28 209.52C440.18 209.86 441.45 211.67 441.12 213.58Z" id="a9uGOXfq2"></path><path d="M87.12 166.71L70.03 166.71L70.03 163.65L87.12 163.65L87.12 166.71Z" id="c4xBlasYDr"></path><path d="M87.12 204.36L70.03 204.36L70.03 201.3L87.12 201.3L87.12 204.36Z" id="b3TfdDoOcu"></path><path d="M63.16 159.24C62.31 159.24 61.62 159.94 61.62 160.79C61.62 161.67 61.62 162.25 61.62 163C61.62 164.41 62.11 165.77 63 166.86C63.45 167.42 63.19 167.1 63.58 167.58C64.67 168.9 65.26 170.56 65.26 172.27C65.26 177.56 65.26 191.05 65.26 196.41C65.26 197.9 64.65 199.33 63.56 200.36C63.17 200.73 63.4 200.52 62.94 200.96C62.1 201.76 61.62 202.87 61.62 204.03C61.62 204.77 61.62 206.02 61.62 206.97C61.62 207.4 61.96 207.74 62.39 207.74C63.92 207.74 67.32 207.74 68.74 207.74C69.45 207.74 70.03 207.17 70.03 206.46C70.03 197.01 70.03 169.77 70.03 160.27C70.03 159.7 69.57 159.24 69 159.24C67.52 159.24 64.54 159.24 63.16 159.24Z" id="b3NYw1gjf"></path><path d="M282.19 235.07C283.84 235.07 285.18 236.41 285.18 238.06C285.18 249.13 285.18 279.37 285.18 290.45C285.18 292.1 283.84 293.44 282.19 293.44C275.15 293.44 256.98 293.44 249.94 293.44C248.29 293.44 246.95 292.1 246.95 290.45C246.95 279.37 246.95 249.13 246.95 238.06C246.95 236.41 248.29 235.07 249.94 235.07C256.98 235.07 275.15 235.07 282.19 235.07Z" id="c2SJ1XlkG"></path><path d="M279.51 239.93C280.88 239.93 282 241.05 282 242.42C282 251.65 282 276.86 282 286.09C282 287.46 280.88 288.58 279.51 288.58C273.63 288.58 258.5 288.58 252.62 288.58C251.25 288.58 250.13 287.46 250.13 286.09C250.13 276.86 250.13 251.65 250.13 242.42C250.13 241.05 251.25 239.93 252.62 239.93C258.5 239.93 273.63 239.93 279.51 239.93Z" id="b2CZglrb"></path><path d="M257.2 276.27C257.2 276.71 256.85 277.06 256.41 277.06C255.87 277.06 254.8 277.06 254.2 277.06C253.92 277.06 253.69 276.83 253.69 276.55C253.69 271.53 253.69 257.11 253.69 252.12C253.69 251.75 254 251.45 254.37 251.45C254.94 251.45 255.91 251.45 256.47 251.45C256.87 251.45 257.2 251.77 257.2 252.18C257.2 257.15 257.2 271.31 257.2 276.27Z" id="a1tLBjoSxx"></path><path d="M266.59 260.28C266.59 262.04 265.17 263.46 263.41 263.46C261.65 263.46 260.22 262.04 260.22 260.28C260.22 258.52 261.65 257.09 263.41 257.09C265.17 257.09 266.59 258.52 266.59 260.28Z" id="f7Ds4Mys3A"></path><path d="M263.41 260.76L263.41 258.37" id="bdii5yjBA"></path><path d="M353.82 311.05C353.82 314.57 350.97 317.42 347.45 317.42C343.93 317.42 341.08 314.57 341.08 311.05C341.08 307.53 343.93 304.68 347.45 304.68C350.97 304.68 353.82 307.53 353.82 311.05Z" id="a1clcLp2Zb"></path><path d="M414.5 403.29C414.5 406.11 412.22 408.39 409.4 408.39C406.59 408.39 404.31 406.11 404.31 403.29C404.31 400.48 406.59 398.19 409.4 398.19C412.22 398.19 414.5 400.48 414.5 403.29Z" id="d7TjqKeTA"></path><path d="M521.43 492.68C521.43 511.17 506.42 526.18 487.93 526.18C469.44 526.18 454.43 511.17 454.43 492.68C454.43 474.19 469.44 459.18 487.93 459.18C506.42 459.18 521.43 474.19 521.43 492.68Z" id="b1FG6Hru5G"></path><path d="M510.02 148.26C510.02 146.71 509.73 145.16 509.17 143.71C501.24 123.43 478.3 64.75 470.37 44.46C469.9 43.27 468.56 42.69 467.38 43.16C466.31 43.59 465.12 44.07 464.02 44.51C462.92 44.95 462.38 46.2 462.81 47.31C470.59 67.03 493.3 124.62 501.11 144.44C501.5 145.41 501.69 146.44 501.69 147.48C501.69 164.46 501.69 214.09 501.69 231.13C501.69 231.84 502.26 232.41 502.96 232.41C504.38 232.41 506.77 232.41 508.05 232.41C509.14 232.41 510.02 231.52 510.02 230.43C510.02 213.52 510.02 165.09 510.02 148.26Z" id="m25wkWBPI"></path><path d="M360.88 486.27L360.88 496.46L614.98 496.46L614.98 486.27L360.88 486.27Z" id="d29QmnyVQq"></path><path d="M523.11 119.32C523.69 119.32 524.17 119.79 524.17 120.38C524.17 122.35 524.17 127.3 524.17 135.2C522.2 135.2 520.97 135.2 520.48 135.2C519.89 135.2 519.42 134.73 519.42 134.14C519.42 131.18 519.42 123.2 519.42 120.2C519.42 119.71 519.81 119.32 520.3 119.32C521.07 119.32 522.37 119.32 523.11 119.32Z" id="c4vtkRSCAb"></path><path d="M493.03 364.32L482.83 364.32L482.83 618.42L493.03 618.42L493.03 364.32Z" id="b244cLuZzS"></path><path d="M401.7 397.92L394.49 405.13L574.16 584.81L581.37 577.6L401.7 397.92Z" id="d1I8D2wcb3"></path><path d="M574.16 397.92L581.37 405.13L401.7 584.81L394.49 577.6L574.16 397.92Z" id="cVZBdoHa"></path><path d="M368.6 447.46L372.5 438.04L607.26 535.28L603.36 544.7L368.6 447.46Z" id="gjHgL4XD"></path><path d="M541.26 377.25L531.84 373.35L434.6 608.11L444.02 612.01L541.26 377.25Z" id="aEN4pvsuY"></path><path d="M607.26 447.46L603.36 438.04L368.6 535.28L372.5 544.7L607.26 447.46Z" id="lgQkGCEob"></path><path d="M434.6 377.25L444.02 373.35L541.26 608.11L531.84 612.01L434.6 377.25Z" id="b6GKc9BJE"></path><path d="M499.2 354.32L504.74 354.89L510.22 355.67L515.63 356.66L520.96 357.87L526.21 359.27L531.37 360.88L536.45 362.68L541.43 364.68L546.31 366.86L551.1 369.22L555.77 371.76L560.34 374.48L564.79 377.36L569.11 380.41L573.32 383.62L577.39 386.98L581.33 390.5L585.14 394.16L588.8 397.96L592.31 401.9L595.68 405.98L598.89 410.18L601.93 414.51L604.82 418.96L607.53 423.52L610.07 428.2L612.44 432.98L614.62 437.87L616.61 442.85L618.42 447.93L620.02 453.09L621.43 458.34L622.63 463.67L623.63 469.08L624.41 474.55L624.97 480.1L625.32 485.7L625.43 491.37L625.32 497.03L624.97 502.64L624.41 508.18L623.63 513.66L622.63 519.06L621.43 524.39L620.02 529.64L618.42 534.81L616.61 539.88L614.62 544.87L612.44 549.75L610.07 554.53L607.53 559.21L604.82 563.77L601.93 568.22L598.89 572.55L595.68 576.75L592.31 580.83L588.8 584.77L585.14 588.57L581.33 592.24L577.39 595.75L573.32 599.11L569.11 602.32L564.79 605.37L560.34 608.25L555.77 610.97L551.1 613.51L546.31 615.87L541.43 618.05L536.45 620.05L531.37 621.85L526.21 623.46L520.96 624.87L515.63 626.07L510.22 627.07L504.74 627.85L499.2 628.41L493.59 628.75L487.93 628.87L482.27 628.75L476.66 628.41L471.12 627.85L465.64 627.07L460.23 626.07L454.9 624.87L449.65 623.46L444.49 621.85L439.41 620.05L434.43 618.05L429.55 615.87L424.76 613.51L420.09 610.97L415.52 608.25L411.08 605.37L406.75 602.32L402.54 599.11L398.47 595.75L394.53 592.24L390.72 588.57L387.06 584.77L383.55 580.83L380.18 576.75L376.97 572.55L373.93 568.22L371.04 563.77L368.33 559.21L365.79 554.53L363.42 549.75L361.24 544.87L359.25 539.88L357.45 534.81L355.84 529.64L354.43 524.39L353.23 519.06L352.23 513.66L351.45 508.18L350.89 502.64L350.55 497.03L350.43 491.37L350.55 485.7L350.89 480.1L351.45 474.55L352.23 469.08L353.23 463.67L354.43 458.34L355.84 453.09L357.45 447.93L359.25 442.85L361.24 437.87L363.42 432.98L365.79 428.2L368.33 423.52L371.04 418.96L373.93 414.51L376.97 410.18L380.18 405.98L383.55 401.9L387.06 397.96L390.72 394.16L394.53 390.5L398.47 386.98L402.54 383.62L406.75 380.41L411.08 377.36L415.52 374.48L420.09 371.76L424.76 369.22L429.55 366.86L434.43 364.68L439.41 362.68L444.49 360.88L449.65 359.27L454.9 357.87L460.23 356.66L465.64 355.67L471.12 354.89L476.66 354.32L482.27 353.98L487.93 353.87L493.59 353.98L499.2 354.32ZM477.68 366.78L472.65 367.29L467.67 368L462.75 368.91L457.91 370L453.13 371.28L448.44 372.74L443.82 374.38L439.29 376.2L434.85 378.18L430.51 380.33L426.26 382.64L422.11 385.11L418.06 387.73L414.13 390.5L410.31 393.41L406.6 396.47L403.02 399.67L399.56 403L396.23 406.45L393.04 410.04L389.98 413.74L387.06 417.56L384.29 421.5L381.67 425.54L379.2 429.69L376.89 433.94L374.74 438.29L372.76 442.73L370.95 447.26L369.31 451.87L367.85 456.57L366.57 461.34L365.47 466.19L364.57 471.1L363.86 476.08L363.35 481.12L363.03 486.22L362.93 491.37L363.03 496.52L363.35 501.61L363.86 506.65L364.57 511.63L365.47 516.55L366.57 521.39L367.85 526.16L369.31 530.86L370.95 535.47L372.76 540L374.74 544.44L376.89 548.79L379.2 553.04L381.67 557.19L384.29 561.23L387.06 565.17L389.98 568.99L393.04 572.7L396.23 576.28L399.56 579.74L403.02 583.07L406.6 586.26L410.31 589.32L414.13 592.24L418.06 595.01L422.11 597.63L426.26 600.1L430.51 602.41L434.85 604.55L439.29 606.54L443.82 608.35L448.44 609.99L453.13 611.45L457.91 612.73L462.75 613.83L467.67 614.73L472.65 615.44L477.68 615.95L482.78 616.26L487.93 616.37L493.08 616.26L498.18 615.95L503.22 615.44L508.19 614.73L513.11 613.83L517.95 612.73L522.73 611.45L527.42 609.99L532.04 608.35L536.57 606.54L541.01 604.55L545.35 602.41L549.61 600.1L553.75 597.63L557.8 595.01L561.73 592.24L565.56 589.32L569.26 586.26L572.84 583.07L576.3 579.74L579.63 576.28L582.83 572.7L585.88 568.99L588.8 565.17L591.57 561.23L594.19 557.19L596.66 553.04L598.97 548.79L601.12 544.44L603.1 540L604.91 535.47L606.55 530.86L608.02 526.16L609.29 521.39L610.39 516.55L611.29 511.63L612 506.65L612.52 501.61L612.83 496.52L612.93 491.37L612.83 486.22L612.52 481.12L612 476.08L611.29 471.1L610.39 466.19L609.29 461.34L608.02 456.57L606.55 451.87L604.91 447.26L603.1 442.73L601.12 438.29L598.97 433.94L596.66 429.69L594.19 425.54L591.57 421.5L588.8 417.56L585.88 413.74L582.83 410.04L579.63 406.45L576.3 403L572.84 399.67L569.26 396.47L565.56 393.41L561.73 390.5L557.8 387.73L553.75 385.11L549.61 382.64L545.35 380.33L541.01 378.18L536.57 376.2L532.04 374.38L527.42 372.74L522.73 371.28L517.95 370L513.11 368.91L508.19 368L503.22 367.29L498.18 366.78L493.08 366.47L487.93 366.37L482.78 366.47L477.68 366.78Z" id="d6DtR7zBxf"></path><path d="M520.43 492.68C520.43 510.62 505.87 525.18 487.93 525.18C469.99 525.18 455.43 510.62 455.43 492.68C455.43 474.74 469.99 460.18 487.93 460.18C505.87 460.18 520.43 474.74 520.43 492.68Z" id="a34LpzsY2V"></path><path d="M268.07 158.89C267.58 157.56 267.27 156.74 267.14 156.4C266.67 155.14 266.43 153.8 266.43 152.45C266.43 151.71 266.43 149.87 266.43 146.92L264.18 146.92C264.18 149.93 264.18 151.82 264.18 152.57C264.18 153.84 263.95 155.1 263.5 156.29C263.37 156.64 263.05 157.5 262.53 158.89L268.07 158.89Z" id="a1yz7iC89b"></path><path d="M500.43 491.37C500.43 498.27 494.83 503.87 487.93 503.87C481.03 503.87 475.43 498.27 475.43 491.37C475.43 484.47 481.03 478.87 487.93 478.87C494.83 478.87 500.43 484.47 500.43 491.37Z" id="e1Lg8r1A8"></path><path d="M270.3 163.14C270.3 165.9 268.06 168.14 265.3 168.14C262.54 168.14 260.3 165.9 260.3 163.14C260.3 160.38 262.54 158.14 265.3 158.14C268.06 158.14 270.3 160.38 270.3 163.14Z" id="b3rdPeSL0"></path><path d="M262.53 146.16C262.53 146.58 262.87 146.92 263.28 146.92C264.3 146.92 266.48 146.92 267.47 146.92C267.91 146.92 268.2 146.47 268.02 146.07C267.81 145.59 267.68 145.29 267.51 144.89C267.15 144.06 266.96 143.16 266.96 142.26C266.96 141.94 266.96 142.02 266.96 141.61C266.96 141 266.72 140.42 266.29 139.99C266.15 139.85 266.43 140.13 266.29 139.99C265.9 139.59 265.87 138.96 266.25 138.53C266.39 138.37 266.27 138.51 266.44 138.32C266.78 137.93 266.96 137.44 266.96 136.93C266.96 136.5 266.96 135.85 266.96 135.39C266.96 135 266.82 134.63 266.55 134.34C266.36 134.13 266.33 134.1 266.18 133.93C265.84 133.56 265.81 132.99 266.13 132.6C266.29 132.38 266.49 132.13 266.72 131.85C266.87 131.64 266.96 131.4 266.96 131.14C266.96 130.54 266.96 129.26 266.96 128.69C266.96 128.35 266.83 128.02 266.6 127.77C266.4 127.55 266.4 127.55 266.26 127.4C265.87 126.97 265.85 126.33 266.22 125.89C266.37 125.7 266.39 125.68 266.59 125.43C266.83 125.13 266.96 124.76 266.96 124.38C266.96 123.44 266.96 121.07 266.96 120.1C266.96 119.86 266.76 119.66 266.52 119.66C265.72 119.66 263.95 119.66 263.2 119.66C262.83 119.66 262.53 119.95 262.53 120.32C262.53 125.64 262.53 140.86 262.53 146.16Z" id="b97XCwjk"></path><path d="M267.3 163.14C267.3 164.24 266.41 165.14 265.3 165.14C264.2 165.14 263.3 164.24 263.3 163.14C263.3 162.03 264.2 161.14 265.3 161.14C266.41 161.14 267.3 162.03 267.3 163.14Z" id="h42HP1epWh"></path><path d="" id="edvWvA9VW"></path></defs><g><g><g><use xlink:href="#aiyWeekjD" opacity="1" fill="#6e6e6e" fill-opacity="1"></use><g><use xlink:href="#aiyWeekjD" opacity="1" fill-opacity="0" stroke="#000000" stroke-width="1" stroke-opacity="1"></use></g></g><g><use xlink:href="#c93h7vCkV" opacity="1" fill="#6f3e15" fill-opacity="1"></use><g><use xlink:href="#c93h7vCkV" opacity="1" fill-opacity="0" stroke="#000000" stroke-width="1" stroke-opacity="1"></use></g></g><g><use xlink:href="#b13R03VF4g" opacity="1" fill="#5c5c5c" fill-opacity="1"></use><g><use xlink:href="#b13R03VF4g" opacity="1" fill-opacity="0" stroke="#000000" stroke-width="1" stroke-opacity="1"></use></g></g><g><use xlink:href="#df66oh1EC" opacity="1" fill="#262626" fill-opacity="1"></use></g><g><use xlink:href="#aDxTZjwf" opacity="1" fill="#444444" fill-opacity="1"></use></g><g><use xlink:href="#a82nor5L0" opacity="1" fill="#5c5c5c" fill-opacity="1"></use><g><use xlink:href="#a82nor5L0" opacity="1" fill-opacity="0" stroke="#000000" stroke-width="1" stroke-opacity="1"></use></g></g><g><use xlink:href="#e3q6lW6sh" opacity="1" fill="#a8a8a8" fill-opacity="1"></use><g><use xlink:href="#e3q6lW6sh" opacity="1" fill-opacity="0" stroke="#010102" stroke-width="1" stroke-opacity="1"></use></g></g><g><use xlink:href="#a1tY0WTIWj" opacity="1" fill="#d1d1d1" fill-opacity="1"></use><g><use xlink:href="#a1tY0WTIWj" opacity="1" fill-opacity="0" stroke="#000000" stroke-width="1" stroke-opacity="1"></use></g></g><g><use xlink:href="#a2CvtsTQn" opacity="1" fill="#5c5c5c" fill-opacity="1"></use><g><use xlink:href="#a2CvtsTQn" opacity="1" fill-opacity="0" stroke="#000000" stroke-width="1" stroke-opacity="1"></use></g></g><g><use xlink:href="#aCNYuadr4" opacity="1" fill="#fff1ba" fill-opacity="1"></use><g><use xlink:href="#aCNYuadr4" opacity="1" fill-opacity="0" stroke="#0f0f12" stroke-width="1" stroke-opacity="1"></use></g></g><g><use xlink:href="#l1Sal8Glgp" opacity="1" fill="#626262" fill-opacity="1"></use><g><use xlink:href="#l1Sal8Glgp" opacity="1" fill-opacity="0" stroke="#010102" stroke-width="1" stroke-opacity="1"></use></g></g><g><use xlink:href="#c1grcA2VeX" opacity="1" fill="#959595" fill-opacity="1"></use><g><use xlink:href="#c1grcA2VeX" opacity="1" fill-opacity="0" stroke="#0f0f12" stroke-width="1" stroke-opacity="1"></use></g></g><g><use xlink:href="#b1r14Hvkg" opacity="1" fill="#dbdbdb" fill-opacity="1"></use><g><use xlink:href="#b1r14Hvkg" opacity="1" fill-opacity="0" stroke="#000000" stroke-width="1" stroke-opacity="1"></use></g></g><g><use xlink:href="#a6sNzVv1C8" opacity="1" fill="#5c5c5c" fill-opacity="1"></use><g><use xlink:href="#a6sNzVv1C8" opacity="1" fill-opacity="0" stroke="#000000" stroke-width="1" stroke-opacity="1"></use></g></g><g><use xlink:href="#b1fKb4qCx2" opacity="1" fill="#6e6e6e" fill-opacity="1"></use><g><use xlink:href="#b1fKb4qCx2" opacity="1" fill-opacity="0" stroke="#0f0f12" stroke-width="1" stroke-opacity="1"></use></g></g><g><use xlink:href="#b3iiVwSdoF" opacity="1" fill="#9c9c9c" fill-opacity="1"></use><g><use xlink:href="#b3iiVwSdoF" opacity="1" fill-opacity="0" stroke="#010102" stroke-width="1" stroke-opacity="1"></use></g></g><g><use xlink:href="#b3AU8dNBnm" opacity="1" fill="#a4a4a4" fill-opacity="1"></use><g><use xlink:href="#b3AU8dNBnm" opacity="1" fill-opacity="0" stroke="#000000" stroke-width="1" stroke-opacity="1"></use></g></g><g><use xlink:href="#a927kqGb5W" opacity="1" fill="#fff1ba" fill-opacity="1"></use><g><use xlink:href="#a927kqGb5W" opacity="1" fill-opacity="0" stroke="#000000" stroke-width="1" stroke-opacity="1"></use></g></g><g><use xlink:href="#b1PCUlvX4B" opacity="1" fill="#ddd1a1" fill-opacity="1"></use><g><use xlink:href="#b1PCUlvX4B" opacity="1" fill-opacity="0" stroke="#000000" stroke-width="1" stroke-opacity="1"></use></g></g><g><use xlink:href="#b35071yHkq" opacity="1" fill="#6e6e6e" fill-opacity="1"></use><g><use xlink:href="#b35071yHkq" opacity="1" fill-opacity="0" stroke="#000000" stroke-width="1" stroke-opacity="1"></use></g></g><g><g><g><use xlink:href="#gr1ZHXYI" opacity="1" fill-opacity="0" stroke="#353535" stroke-width="1" stroke-opacity="1"></use></g></g><g><g><use xlink:href="#a5XLBks5f" opacity="1" fill-opacity="0" stroke="#353535" stroke-width="1" stroke-opacity="1"></use></g></g></g><g><g><g><use xlink:href="#cy8gfj8Xc" opacity="1" fill-opacity="0" stroke="#353535" stroke-width="1" stroke-opacity="1"></use></g></g><g><g><use xlink:href="#bTi8nlMeI" opacity="1" fill-opacity="0" stroke="#353535" stroke-width="1" stroke-opacity="1"></use></g></g></g><g><g><g><use xlink:href="#d9FmtboCY" opacity="1" fill-opacity="0" stroke="#353535" stroke-width="1" stroke-opacity="1"></use></g></g><g><g><use xlink:href="#c4ozWe89j" opacity="1" fill-opacity="0" stroke="#353535" stroke-width="1" stroke-opacity="1"></use></g></g></g><g><g><g><use xlink:href="#dpP9nan7l" opacity="1" fill-opacity="0" stroke="#353535" stroke-width="1" stroke-opacity="1"></use></g></g><g><g><use xlink:href="#bDiUb7hQA" opacity="1" fill-opacity="0" stroke="#353535" stroke-width="1" stroke-opacity="1"></use></g></g></g><g><use xlink:href="#a1aGEqSUDt" opacity="1" fill="#535353" fill-opacity="1"></use><g><use xlink:href="#a1aGEqSUDt" opacity="1" fill-opacity="0" stroke="#000000" stroke-width="1" stroke-opacity="1"></use></g></g><g><use xlink:href="#b2za9xAbv9" opacity="1" fill="#535353" fill-opacity="1"></use><g><use xlink:href="#b2za9xAbv9" opacity="1" fill-opacity="0" stroke="#000000" stroke-width="1" stroke-opacity="1"></use></g></g><g><use xlink:href="#epHHmRJQK" opacity="1" fill="#747474" fill-opacity="1"></use><g><use xlink:href="#epHHmRJQK" opacity="1" fill-opacity="0" stroke="#000000" stroke-width="1" stroke-opacity="1"></use></g></g><g><use xlink:href="#aetJi2KfC" opacity="1" fill="#6f3e15" fill-opacity="1"></use><g><use xlink:href="#aetJi2KfC" opacity="1" fill-opacity="0" stroke="#000000" stroke-width="1" stroke-opacity="1"></use></g></g><g><use xlink:href="#a9uGOXfq2" opacity="1" fill="#6f6f6f" fill-opacity="1"></use><g><use xlink:href="#a9uGOXfq2" opacity="1" fill-opacity="0" stroke="#000000" stroke-width="1" stroke-opacity="1"></use></g></g><g><use xlink:href="#c4xBlasYDr" opacity="1" fill="#5d5d5d" fill-opacity="1"></use><g><use xlink:href="#c4xBlasYDr" opacity="1" fill-opacity="0" stroke="#010102" stroke-width="1" stroke-opacity="1"></use></g></g><g><use xlink:href="#b3TfdDoOcu" opacity="1" fill="#5d5d5d" fill-opacity="1"></use><g><use xlink:href="#b3TfdDoOcu" opacity="1" fill-opacity="0" stroke="#010102" stroke-width="1" stroke-opacity="1"></use></g></g><g><use xlink:href="#b3NYw1gjf" opacity="1" fill="#6f3e15" fill-opacity="1"></use><g><use xlink:href="#b3NYw1gjf" opacity="1" fill-opacity="0" stroke="#010102" stroke-width="1" stroke-opacity="1"></use></g></g><g><use xlink:href="#c2SJ1XlkG" opacity="1" fill="#595959" fill-opacity="1"></use><g><use xlink:href="#c2SJ1XlkG" opacity="1" fill-opacity="0" stroke="#010102" stroke-width="1" stroke-opacity="1"></use></g></g><g><g><use xlink:href="#b2CZglrb" opacity="1" fill-opacity="0" stroke="#000000" stroke-width="1" stroke-opacity="0.33"></use></g></g><g><use xlink:href="#a1tLBjoSxx" opacity="1" fill="#6f3e15" fill-opacity="1"></use><g><use xlink:href="#a1tLBjoSxx" opacity="1" fill-opacity="0" stroke="#0a0a0e" stroke-width="1" stroke-opacity="1"></use></g></g><g><use xlink:href="#f7Ds4Mys3A" opacity="1" fill="#8e908a" fill-opacity="1"></use><g><use xlink:href="#f7Ds4Mys3A" opacity="1" fill-opacity="0" stroke="#0a0a0e" stroke-width="1" stroke-opacity="1"></use></g></g><g><g><use xlink:href="#bdii5yjBA" opacity="1" fill-opacity="0" stroke="#0a0a0e" stroke-width="1" stroke-opacity="0.55"></use></g></g><g><use xlink:href="#a1clcLp2Zb" opacity="1" fill="#939393" fill-opacity="1"></use><g><use xlink:href="#a1clcLp2Zb" opacity="1" fill-opacity="0" stroke="#0f0f12" stroke-width="1" stroke-opacity="1"></use></g></g><g><use xlink:href="#d7TjqKeTA" opacity="1" fill="#ababab" fill-opacity="1"></use><g><use xlink:href="#d7TjqKeTA" opacity="1" fill-opacity="0" stroke="#0f0f12" stroke-width="1" stroke-opacity="1"></use></g></g><g><use xlink:href="#b1FG6Hru5G" opacity="1" fill="#6f3e15" fill-opacity="1"></use><g><use xlink:href="#b1FG6Hru5G" opacity="1" fill-opacity="0" stroke="#0b0f0f" stroke-width="2" stroke-opacity="1"></use></g></g><g><use xlink:href="#m25wkWBPI" opacity="1" fill="#8c8c8c" fill-opacity="1"></use><g><use xlink:href="#m25wkWBPI" opacity="1" fill-opacity="0" stroke="#000000" stroke-width="1" stroke-opacity="1"></use></g></g><g><use xlink:href="#d29QmnyVQq" opacity="1" fill="#6f3e15" fill-opacity="1"></use><g><use xlink:href="#d29QmnyVQq" opacity="1" fill-opacity="0" stroke="#000000" stroke-width="1" stroke-opacity="1"></use></g></g><g><use xlink:href="#c4vtkRSCAb" opacity="1" fill="#b0b0b0" fill-opacity="1"></use><g><use xlink:href="#c4vtkRSCAb" opacity="1" fill-opacity="0" stroke="#000000" stroke-width="1" stroke-opacity="1"></use></g></g><g><use xlink:href="#b244cLuZzS" opacity="1" fill="#6f3e15" fill-opacity="1"></use><g><use xlink:href="#b244cLuZzS" opacity="1" fill-opacity="0" stroke="#000000" stroke-width="1" stroke-opacity="1"></use></g></g><g><use xlink:href="#d1I8D2wcb3" opacity="1" fill="#6f3e15" fill-opacity="1"></use><g><use xlink:href="#d1I8D2wcb3" opacity="1" fill-opacity="0" stroke="#000000" stroke-width="1" stroke-opacity="1"></use></g></g><g><use xlink:href="#cVZBdoHa" opacity="1" fill="#6f3e15" fill-opacity="1"></use><g><use xlink:href="#cVZBdoHa" opacity="1" fill-opacity="0" stroke="#000000" stroke-width="1" stroke-opacity="1"></use></g></g><g><use xlink:href="#gjHgL4XD" opacity="1" fill="#6f3e15" fill-opacity="1"></use><g><use xlink:href="#gjHgL4XD" opacity="1" fill-opacity="0" stroke="#000000" stroke-width="1" stroke-opacity="1"></use></g></g><g><use xlink:href="#aEN4pvsuY" opacity="1" fill="#6f3e15" fill-opacity="1"></use><g><use xlink:href="#aEN4pvsuY" opacity="1" fill-opacity="0" stroke="#000000" stroke-width="1" stroke-opacity="1"></use></g></g><g><use xlink:href="#lgQkGCEob" opacity="1" fill="#6f3e15" fill-opacity="1"></use><g><use xlink:href="#lgQkGCEob" opacity="1" fill-opacity="0" stroke="#000000" stroke-width="1" stroke-opacity="1"></use></g></g><g><use xlink:href="#b6GKc9BJE" opacity="1" fill="#6f3e15" fill-opacity="1"></use><g><use xlink:href="#b6GKc9BJE" opacity="1" fill-opacity="0" stroke="#000000" stroke-width="1" stroke-opacity="1"></use></g></g><g><use xlink:href="#d6DtR7zBxf" opacity="1" fill="#6f3e15" fill-opacity="1"></use><g><use xlink:href="#d6DtR7zBxf" opacity="1" fill-opacity="0" stroke="#000000" stroke-width="1" stroke-opacity="1"></use></g></g><g><use xlink:href="#a34LpzsY2V" opacity="1" fill="#6f3e15" fill-opacity="1"></use></g><g><use xlink:href="#a1yz7iC89b" opacity="1" fill="#7d7d7d" fill-opacity="1"></use><g><use xlink:href="#a1yz7iC89b" opacity="1" fill-opacity="0" stroke="#000000" stroke-width="1" stroke-opacity="1"></use></g></g><g><use xlink:href="#e1Lg8r1A8" opacity="1" fill="#939393" fill-opacity="1"></use><g><use xlink:href="#e1Lg8r1A8" opacity="1" fill-opacity="0" stroke="#484848" stroke-width="2" stroke-opacity="1"></use></g></g><g><use xlink:href="#b3rdPeSL0" opacity="1" fill="#959595" fill-opacity="1"></use><g><use xlink:href="#b3rdPeSL0" opacity="1" fill-opacity="0" stroke="#000000" stroke-width="1" stroke-opacity="1"></use></g></g><g><use xlink:href="#b97XCwjk" opacity="1" fill="#6f3e15" fill-opacity="1"></use><g><use xlink:href="#b97XCwjk" opacity="1" fill-opacity="0" stroke="#000000" stroke-width="1" stroke-opacity="1"></use></g></g><g><use xlink:href="#h42HP1epWh" opacity="1" fill="#656565" fill-opacity="1"></use></g><g><g><use xlink:href="#edvWvA9VW" opacity="1" fill-opacity="0" stroke="#1c1e1e" stroke-width="1" stroke-opacity="1"></use></g></g></g></g></svg>